<?xml version="1.0" encoding="utf-8"?>
<!-- Generator: Adobe Illustrator 18.1.1, SVG Export Plug-In . SVG Version: 6.00 Build 0)  -->
<svg version="1.1" id="Layer_1" xmlns="http://www.w3.org/2000/svg" xmlns:xlink="http://www.w3.org/1999/xlink" x="0px" y="0px"
	 width="400px" height="400px" viewBox="0 0 400 400" enable-background="new 0 0 400 400" xml:space="preserve">
<g>
	<g>
		<defs>
			<rect id="SVGID_1_" x="-0.7" width="400.7" height="399.5"/>
		</defs>
		<clipPath id="SVGID_2_">
			<use xlink:href="#SVGID_1_"  overflow="visible"/>
		</clipPath>
		<path clip-path="url(#SVGID_2_)" fill="#F8AF00" d="M79.5,372.4c0,0.1-0.1,0.3,0,0.4c0.1,0.1,0.1,0.1,0.2,0.2
			c0.1,0.1,0.1,0.3,0,0.4c-0.1,0.2-0.1,0.4,0.1,0.6c0.2,0.3,0.7,1,1,1.1c0.3,0.1,0.1-0.3,0.1-0.3s-0.5-0.5-0.5-0.8s0-0.6,0.2-0.6
			c0.1,0,0.4,0.1,0.5,0.1c0.1-0.1,0.2-0.2,0.1-0.3c-0.1-0.1-0.7-0.3-0.8-0.5c-0.1-0.2-0.3-0.5-0.3-0.8c0-0.4,0.3-0.9,0.2-1
			c-0.2-0.2-0.7,0.1-0.8,0.5C79.4,371.7,79.5,372.3,79.5,372.4 M383.5,249.7L383,250l-0.2,0l-0.4-0.1l0.1-0.9l0.6,0.1L383.5,249.7z
			 M381.8,249l-0.1,0.9l-0.2,0l-0.6-0.1l0.1-0.9L381.8,249z M380.6,248.8l-0.1,0.5l-0.4-0.1l0.1-0.5L380.6,248.8z M377.4,246.6
			c0,0-0.3,0.4-0.5,0.5c-0.2,0.1-0.6-0.1-0.6-0.1l0.1-1c0,0,0.3-0.1,0.6,0.1C377.3,246.2,377.4,246.6,377.4,246.6 M376.4,248.1
			l0.2,0l0.4,0.4c0,0,0.2,0.3,0.1,0.5c0,0.2-0.3,0.5-0.3,0.5l-0.4,0.3l-0.6,0.1l0.3-1.9L376.4,248.1z M375.8,251.3l0.1-0.9l0.4,0.1
			c0,0,0.3,0.1,0.4,0.4c0,0.3-0.2,0.3-0.2,0.3l-0.4,0.1L375.8,251.3z M343.3,211.9l-0.8,0.1l-0.3-0.5l0.9-0.2L343.3,211.9z
			 M343.2,211.2l-1,0.2l-0.4-0.6l1.3-0.3L343.2,211.2z M343,210.3l-1.3,0.3l-0.3-0.4l1.5-0.3L343,210.3z M342.8,209.7l-1.5,0.3
			l-0.1-0.1l0.2-0.1l0.3-0.1l1.1-0.2L342.8,209.7z M342.7,203.1l0.4-0.8l0,0l0,0.1l-0.3,0.8l-0.1,0.3L342.7,203.1z M343.3,200.6
			l-0.3-0.8l0-0.2l0.1-0.1l0.5-0.1l-0.1,0.4l-0.2,0.6L343.3,200.6z M343.4,200.8l0.4-1.4l0.2-0.1l0,0.1l0,0.2l-0.3,0.9l-0.1,0.4
			L343.4,200.8z M344,198.8l-0.1-0.2l0.2-0.9l0.1-0.4l0.1-0.1l0,0.5l-0.2,1.1L344,198.8z M344.5,196.7l-0.2,0.1l-0.1-0.3l0.1-0.8
			l0.1-0.4l0.2,0l0,0.4L344.5,196.7z M344.7,194.6L344.7,194.6l-0.1-0.2l0-0.3l0.1-0.7l0.1-0.1l0,0.1l0,0.2l0,0.5L344.7,194.6z
			 M344.9,192.6l-0.1,0l-0.1-0.3l0.1-0.6l0.1-0.4l0,0.2l0,0.4L344.9,192.6z M344.9,190l0,0.5l-0.1-0.1l0-0.7l0.2-0.3L344.9,190z
			 M344.9,188.7l-0.1,0.1l-0.1-0.2l-0.1-0.7l0.2-0.3L344.9,188.7z M344.8,186.9L344.8,186.9l-0.3-0.2l-0.1-0.6l0.2-0.3L344.8,186.9z
			 M344.5,185l0,0.1l-0.2-0.3l-0.1-0.4l0.2-0.3L344.5,185z M344.2,183.3l-0.3-0.3l-0.1-0.3l0.1-0.3L344.2,183.3z M343.9,181.9
			l-0.3,0.1l-0.2-0.8l0.2-0.4L343.9,181.9z M343.4,182l-0.4,0l0.2-0.6L343.4,182z M343.4,180.1l-0.1,0.1l-0.2,0l-0.2-0.8l0.1-0.4
			l0.1,0.2L343.4,180.1z M342.9,180.3l-0.3,0.1l0.1-0.4L342.9,180.3z M342.9,179l-0.1,0.3l-0.1-0.5l0.2,0L342.9,179z M342.8,178.6
			l-0.3,0l-0.2-0.5l0.2-0.5l0.3,0.8L342.8,178.6z M342.3,177.4l-0.1,0.4l-0.2-0.5l0.3-0.1L342.3,177.4z M342.2,177l-0.3,0.1
			l-0.3-0.6l0.1-0.2L342.2,177L342.2,177z M342,176.5l-0.3-0.3l0.1-0.2L342,176.5z M341.6,175.8l-0.2,0.3l-0.1-0.3l0.2-0.2
			L341.6,175.8z M341.5,175.4l-0.3,0.1l-0.4-0.5l0.1-0.2L341.5,175.4z M340.9,174.3l-0.1,0.4l-0.2-0.3l0.2-0.2L340.9,174.3z
			 M340.7,174l-0.5,0.1l-0.2-0.3l0.1-0.8l0.1,0.2L340.7,174z M340,172.8l-0.1,0.4l-0.1,0.1l-0.2-0.3L340,172.8L340,172.8z
			 M339.9,172.5l-0.6,0.1l-0.2-0.2l0.1-0.8L339.9,172.5 M339.1,171.4l-0.2,0.7l-0.4-0.7l0.5-0.1L339.1,171.4z M339,171.1l-0.6,0.1
			l-0.2-0.1l0.1-0.5L339,171.1z M338.8,170.8l-0.5-0.3l0-0.4L338.8,170.8z M338.2,172.5l0.1-0.5l0.4,0.5L338.2,172.5L338.2,172.5z
			 M338.1,173.1l0.6,0.9l-2.3,0.4l-0.2-0.9L338.1,173.1z M338.1,170.1l-0.2,0.6l-0.4-0.7l0.5-0.1l0.1,0L338.1,170.1z M338,169.7
			l-0.7,0.1l0.1-1L338,169.7z M337.2,171.2l0.1-0.7l0.5,0.6L337.2,171.2z M337.2,171.6l0.7,1l-1.8,0.3l-0.2-1.1L337.2,171.6z
			 M337.1,170.3l-0.1,0.7l-0.6-0.9l0.6-0.1L337.1,170.3z M337.1,168.8l-0.1,0.4l-0.5-0.3l-0.2-0.2l0.6-0.1L337.1,168.8z
			 M336.9,168.4l-0.6,0.1l-0.1-0.1l0-0.4L336.9,168.4z M336.9,168.2l-0.7-0.4l-0.1-0.5l0.2,0.2L336.9,168.2z M336.1,169.8l-0.8-1
			l0.7-0.1L336.1,169.8 M335.9,168.5l-0.5,0.2l-0.1-0.1l-0.2-0.8l0.1,0c0,0,0.2,0.2,0.3,0.3C335.5,168.2,335.9,168.5,335.9,168.5
			 M335.6,167.3L335.6,167.3l0,0.3l-0.1,0.2l-0.3-0.4L335.6,167.3z M335.8,167.1l-0.6,0.1l-0.2-0.1l-0.1-0.8l0.1,0L335.8,167.1
			 M334.8,170.3l0.1,0.4l-0.1,0L334.8,170.3L334.8,170.3z M335.1,172.3l-0.1-0.4l0.1,0l0.1,0.4L335.1,172.3z M335.9,175.4
			L335.9,175.4l-0.2-0.7l0.1,0L335.9,175.4z M336.2,169l0.6,0.9l-0.5,0.1L336.2,169z M336.9,171.3l-1.1,0.2l-0.1-1.1l0.5-0.1
			L336.9,171.3z M336.2,177L336.2,177l-0.2-0.8l0.1,0L336.2,177z M337.9,172.3l-0.5-0.8l0.5-0.1l0.1,0.2L337.9,172.3z M338,172.9
			l-1.9,0.4l0-0.1l1.8-0.4L338,172.9z M335,172.2c0.1,0.3,1.1,5,1.1,5.4c0.1,0.4,1.3,6.3,1.4,6.5c0,0.2,1.1,5.4,1.2,5.7
			c0.1,0.4,1.1,5.2,1.1,5.6c0.1,0.4,1.2,6,1.3,6.4c0.1,0.5,0.3,1.5,0.3,1.7s-0.3,1.3-0.4,1.4c0,0.1-0.7,2.6-0.9,2.7
			c-0.1,0.1-0.4,0.1-0.5,0.1c-0.1,0-0.4-0.2-0.5-0.3c-0.1,0-1.7-0.1-2.3,0c-0.4-11-2-22.2-5.1-33.2c-0.7-2.4-1.4-4.7-2.2-7
			c0.3-0.2,2.4-1.2,2.6-1.2c0.2,0,1.8,1.7,1.9,1.8C334.1,167.9,335,171.9,335,172.2 M334.6,169.3L334.6,169.3l-0.1-0.3l0,0
			L334.6,169.3z M334,167.3L334,167.3l-0.2-0.2l-0.1-0.2l0-0.1l0.1,0.1l0.1,0L334,167.3z M333.8,166.7L333.8,166.7l-0.1,0.1
			l-0.1-0.1L333.8,166.7L333.8,166.7z M333.8,166.4L333.8,166.4l-0.1,0l0-0.1l0.1,0L333.8,166.4z M333.5,166l0,0.2l0,0L333.5,166
			L333.5,166z M333.2,166.4l-0.1-0.1l0.1-0.1l0.1,0.1l0,0L333.2,166.4 M333.5,166.7l0.1,0.1l0.1,0.2l0,0.1l-0.1-0.1l-0.2-0.2l0-0.1
			L333.5,166.7z M333.3,166.6l-0.1-0.1l0.1-0.1l0.1,0l0.1,0.1l0.1,0.1l-0.1,0L333.3,166.6z M333.3,166L333.3,166l-0.2,0l-0.1-0.1
			l0.2-0.1L333.3,166L333.3,166z M333,161.9l-0.6,0.1l0-0.3l0.4-0.1l0,0L333,161.9z M332.8,161.4l0,0.1l-0.4,0.1c0,0,0-0.1,0-0.2
			c0-0.1,0-0.2,0.1-0.2l0.3-0.1L332.8,161.4 M332.7,161l-0.3,0.1c0,0,0,0,0-0.1c0-0.1,0.1-0.2,0.2-0.2L332.7,161 M332.7,160.6
			l-0.2,0l0-0.2l0.1-0.1l0.1,0L332.7,160.6L332.7,160.6z M332,161.7l0.1-0.3l0.1,0.3L332,161.7z M332,161.8l0,0.2l-0.1,0l0-0.2
			L332,161.8z M332.3,159.3c-0.1,0.1-0.2,0.3-0.2,0.3l0,0c0,0-0.5,2.3-0.7,2.4c-0.1,0.2-0.9-0.2-1.2-0.1c-0.1,0-0.4,0.1-0.8,0.1
			l1.9-1.6L332.3,159.3z M303.3,120.2l-0.3,0.2c-0.1-0.1-0.2-0.2-0.3-0.4l0.3-0.5l0,0.2L303.3,120.2z M222.8,69
			c-0.2,0.5-0.3,0.9-0.7,1.2c-0.4,0.3-0.4,0.4-0.7,0.6c-0.3,0.2-0.6,0.1-0.6,0.3c-0.1,0.2,0.1,0.1-0.2,0.4c-0.3,0.3-0.3,0.1-0.6,0.8
			c-0.3,0.6-0.3,0.9-0.3,0.9l-11.5-1.8l0.1-0.3c0,0,0.8,0.1,1.1,0c0.2-0.1,0.3-0.4,0.5-0.7c0.2-0.3,0.6-0.2,0.9-0.4
			c0.3-0.2,0.2-0.9,0.7-1.5c0.5-0.6,1.2-1.1,1.8-1.5c0.6-0.4,1.7-0.9,2-1.4c0.3-0.5,0.5-0.8,0.3-1.2c-0.2-0.4-0.4-0.4-0.3-1
			c0.1-0.6,0-1.7,0.5-2.1c0.5-0.3,2.7-2,2.7-2l0.3-0.1c0,0,0.2,0.7,0.4,0.9c0.2,0.3,2,2.6,2.2,2.9c0.2,0.3,1.4,1.5,1.4,2.3
			S223,68.6,222.8,69 M212.1,59.5c0,0.1,0.1,0,0.1,0.6c0,0.6,0.7,2.4,0.6,2.8c-0.1,0.4-0.2,1-0.4,1.2c-0.1,0.2-1.9,2.1-2.3,2.3
			c-0.4,0.1-1.6,0.9-2,1c-0.4,0-0.6,0.3-0.9,0.6c-0.3,0.3-0.5,0.8-0.9,0.9c-0.4,0.2-0.8,0.3-0.9,0.4c-0.1,0.2,0.2,0.3,0,0.5
			c-0.2,0.2-0.5,0.5-0.6,0.8c-0.1,0.3-0.1,0.4-0.1,0.4l-3.8-0.7c0,0-0.1-0.4,0.1-0.6c0.2-0.2,0.2-0.1,0.5-0.2
			c0.3-0.1,0.9-0.3,1.1-0.5c0.1-0.2,0.4-0.3,0.7-0.7c0.2-0.3,0.2-0.9,0.4-1.4c0.2-0.5,0.1-0.8,0.1-1.3c0-0.5-0.2-2.2-0.1-2.5
			c0.1-0.4,0.4-1,0.5-1.5c0.1-0.5-0.1-1.1,0-1.7c0-0.6,0.1-1.7,0.2-2c0.1-0.3-0.1-0.7,0-1c0.2-0.2,0.5-0.1,1,0.1
			c0.4,0.2,3.5,1,4.4,0.9c1-0.1,2.7-0.2,2.7-0.2S212,59.3,212.1,59.5 M206.6,40.5c0,0.2-0.4,2.7-0.4,2.7l-1.2-0.2
			c0,0,0.1-0.2,0.1-0.3c0-0.1,0.2-0.8,0.2-1.1c0-0.3-0.4-1.2-0.6-1.4s0-0.6,0-0.6s0.2,0.1,0.5,0.1c0.3,0,0.9,0.4,1.2,0.5
			C206.7,40.3,206.6,40.3,206.6,40.5 M176.3,9.7l-0.1,0l0-0.2l0.1,0L176.3,9.7z M176.3,9.5l-0.1,0l0-0.2l0.1,0L176.3,9.5z
			 M175.9,9.7L175.9,9.7l-0.2-0.1l0-0.2l0.1-0.1l0.1,0L175.9,9.7 M175.3,8.6L175.3,8.6l-0.1-0.1l0.1,0L175.3,8.6z M175.2,8.4
			L175.2,8.4L175.2,8.4l-0.1-0.1l0.1,0L175.2,8.4z M175.2,20.7l-0.5,0.1l0-0.1l-0.1-0.8l0.5-0.1L175.2,20.7z M175,19.7l-0.5,0.1
			l-0.2-0.8l0.5-0.1L175,19.7z M174.9,18.7L174.9,18.7l-0.5,0.1l-0.1-0.8l0.4-0.1L174.9,18.7z M174.7,17.7l-0.5,0.1l-0.1-0.8l0,0
			l0.3-0.1l0.1,0.1l0.1,0.2L174.7,17.7z M174.6,16.7l-0.4,0.1l-0.1-0.8l0,0l0.1,0l0.4,0.6L174.6,16.7z M174,18l0.1,0.9l-0.5,0.1
			l-0.1-0.9L174,18z M174,17.7l-0.6,0.1l-0.1-0.7l0.5-0.1L174,17.7z M173.9,16.8l-0.5,0.1l-0.1-0.8l0.5-0.1L173.9,16.8z M173.7,15.4
			l0,0.2l-0.1,0.1l-0.2-0.1l0-0.2l0.1-0.1l0.1-0.1L173.7,15.4z M173.6,15l-0.2,0.1l-0.2-0.1v-0.3l-0.2-0.2l0.1-0.1l0.1,0.1l0.3,0.3
			L173.6,15z M172.9,15.3l0.2-0.1l0.2,0l0,0l-0.1,0.2l-0.2,0.2l-0.1-0.2L172.9,15.3z M172.8,15.1l-0.1,0.2l-0.2,0.1l-0.1-0.2
			l0.1-0.2l0.1,0L172.8,15.1z M172.5,15.6l0.1-0.1l0.1,0l0.1,0.1l0.1,0.2l-0.2,0.1l-0.2,0l-0.1-0.1L172.5,15.6z M171.7,28l-0.3,0
			l-0.1-0.7l0.3,0L171.7,28z M171.6,21.2l-0.3,0l-0.1-0.7l0.3,0L171.6,21.2z M171.5,20.2l-0.4,0.1l-0.1-0.8l0.1-0.1l0.3,0
			L171.5,20.2z M171.3,19.1l-0.3,0.1l-0.1-0.7l0.4-0.1L171.3,19.1z M171.2,18.1l-0.3,0.1l-0.1-0.7l0.3,0L171.2,18.1z M171.1,17.1
			l-0.3,0.1l-0.1-0.8l0.3-0.2L171.1,17.1z M170.9,16.2l-0.2,0l0-0.2l0.1-0.1l0.1,0L170.9,16.2z M170.9,15.5l-0.2,0l-0.1-0.2l0.1-0.1
			L170.9,15.5z M170.6,15.1l-0.2,0.1l-0.1,0l0.1-0.1l0.1-0.1L170.6,15.1z M170.2,16.4l0.1,0.9l-0.4,0.1l-0.1-0.9L170.2,16.4z
			 M170.2,16.3l-0.2,0l-0.1-0.1l0-0.2l0.1-0.1l0.2,0.1L170.2,16.3z M170.1,15.6c0,0-0.1,0.1-0.2,0.1c-0.1,0-0.2-0.2-0.2-0.2l0.3-0.1
			L170.1,15.6z M170.1,15.3l-0.3,0l0-0.1l0.1-0.1C170,15.2,170.1,15.3,170.1,15.3 M169.8,15.8l0,0.1l-0.1,0.2l-0.1,0l0-0.2l0.1-0.1
			L169.8,15.8z M169.5,17.6l0.1,0.9l-0.4,0.1l0-0.9L169.5,17.6z M169.5,17.4l-0.2,0.1l0-0.3l0.2-0.6L169.5,17.4z M169.2,18.7
			l0.5-0.1l0.1,0.7l-0.5,0.1L169.2,18.7z M147.5,80.5l0.1,0.2l-0.2,0.1L147.5,80.5 M100.8,90.6l-3.3,3.1c0,0-1.5-1.7-1.6-2.2
			c-0.2-0.5,0.3-1.5,0.8-2c0.5-0.4,1.4-1.1,2.1-0.7C99.5,89.1,100.8,90.6,100.8,90.6 M91,99.8l-0.3,0.2L90,99.2l0.3-0.2L91,99.8z
			 M82.7,108l-0.2,0.2l-0.8-0.9l0.2-0.2L82.7,108z M61.2,131.2l-1.7-2.9l0.1-0.2L61.2,131.2z M60.2,126.7l-0.1-0.3l0.1-0.1l0.2,0
			L60.2,126.7z M59.4,129.1l1.5,2.6l-0.1,0l-1.5-2.4L59.4,129.1z M59.2,130.4l0.7,1.1l-0.3-0.1l-0.6-0.9L59.2,130.4z M58.9,130.8
			l0.3,0.4l-0.3,0L58.9,130.8z M58.7,122.1l-0.5,0.3l-0.3-0.2l0.5-0.3L58.7,122.1z M58,121.7l-0.4,0.3l-0.3-0.2l0.4-0.3L58,121.7z
			 M57,121.9l0.4,0.2l-0.5,0.2l-0.3-0.2L57,121.9z M56.4,122.3l0.3,0.2l-0.4,0.3l-0.3-0.2L56.4,122.3z M56,122.9l-0.9,1.1l-0.3-0.2
			l0.9-1.1L56,122.9z M54.5,124l0.3,0.2l-0.8,0.9l-0.3-0.2L54.5,124z M53.6,125.2l0.3,0.1l-0.9,1.1l-0.3-0.2L53.6,125.2z
			 M52.5,126.5l0.3,0.2l-1.1,1.8l-0.3-0.2L52.5,126.5z M51.3,128.6l0.4,0.2l-0.9,1.6l-0.4-0.2L51.3,128.6z M50.2,130.3l0.4,0.2
			l-1,1.7l-0.4-0.2L50.2,130.3z M49.1,132.3l0.4,0.2l-1.1,2.3l-0.4-0.2L49.1,132.3z M48,134.7l0.3,0.2l-0.9,1.9l-0.4-0.1L48,134.7z
			 M46.9,136.8l0.4,0.2l-1,2l-0.4-0.2L46.9,136.8z M45.8,139.1l0.4,0.2l-0.8,2l-0.4-0.1L45.8,139.1z M45,141.5l0.4,0.1l-0.6,1.8
			l-0.4-0.2L45,141.5z M44.2,143.5l0.4,0.1l-0.6,1.7l-0.4-0.1L44.2,143.5z M43.5,145.5l0.3,0.1l-0.3,1.6l-0.4-0.1L43.5,145.5z
			 M43.2,147.3l0.3,0.1l-0.2,1.3l-0.4-0.2L43.2,147.3z M42.9,148.8l0.3,0.1l-0.2,1.1l-0.3-0.1L42.9,148.8z M42.7,150.4l0.4,0.1
			l0.1,0.6l-0.4-0.2L42.7,150.4z M42.9,151.3l0.3,0.1l0.1,0.4l-0.4-0.1L42.9,151.3z M43,152l0.4,0.2l0.1,0.4l-0.4-0.1L43,152z
			 M43.5,150.6l0.4,0.2l0.1,0.6l-0.4-0.2L43.5,150.6z M43.7,151.5l0.3,0.1l0.1,0.5l-0.4-0.1L43.7,151.5z M43.8,152.3l0.3,0.1l0,0.4
			l-0.3-0.1L43.8,152.3z M44,149.3l-0.2,1.1l-0.3-0.1l0.2-1.1L44,149.3z M44.3,147.8l-0.2,1.2l-0.3-0.1l0.2-1.3L44.3,147.8z
			 M44.1,147.4l0.3-1.5l0.3,0.1l-0.3,1.5L44.1,147.4z M44.8,145.7l-0.4-0.2l0.6-1.7l0.3,0.1L44.8,145.7z M45.2,143.6l0.6-1.7
			l0.3,0.1l-0.6,1.8L45.2,143.6z M46,141.6l0.7-2.1l0.4,0.1l-0.8,2.1L46,141.6z M47.2,139.4l-0.3-0.2l0.9-1.9l0.3,0.1L47.2,139.4z
			 M48.2,137.2l-0.4-0.2l1-1.9l0.3,0.2L48.2,137.2z M49,150.3l0.1-0.2l4.6-1l0.1,0.2L49,150.3z M52.3,128.8l1-1.7l0.3,0.2l-1,1.7
			L52.3,128.8z M51.2,130.5l0.9-1.6l0.3,0.2l-0.9,1.6L51.2,130.5z M50.1,132.4l1-1.7l0.4,0.2l-1.1,1.7L50.1,132.4z M49.2,135.1
			l-0.3-0.2l1.1-2.2l0.3,0.2L49.2,135.1z M53.4,148.8l0.2,0.2l-4.4,0.9l0.2-0.3L53.4,148.8z M50.5,148.1l0.1-0.5l1-0.1l0.5,0.3
			L50.5,148.1z M52.7,148.2l0.4,0.3L50,149l0.2-0.5L52.7,148.2z M53.8,126.8l-0.3-0.1l0.8-1l0.3,0.1L53.8,126.8z M54.8,125.6
			l-0.3-0.1l0.8-1l0.2,0.2L54.8,125.6z M55.7,124.4l-0.2-0.2l0.9-1.1l0.3,0.2L55.7,124.4z M57,123.2l-0.4-0.2l0.5-0.2l0.2,0.2
			L57,123.2z M57.4,122.6L57.4,122.6l0.4-0.2l0.2,0.2l-0.4,0.2L57.4,122.6 M61.5,287.6l0.2,0l0.2,0.1l1.2-0.3l1.6,0.5l2.1-0.8
			l-0.6-1.9c2.6,5,5.6,9.7,8.7,14.3c-0.4,0.4-1.3,1.2-1.3,1.2l-0.1,0.2l0.3,0.4l-0.1,0l-0.5-0.7l-0.4-0.1c-0.1-0.1-1-1.1-1.2-1.2
			c-0.2-0.1-0.5-0.5-0.6-0.6c-0.1-0.1-2.3-2.6-2.4-2.7c-0.2-0.2-1.2-1.4-1.2-1.4L68,294l-0.1-0.2l-0.3-0.4c-0.1-0.1-0.9-1-1-1.1
			c-0.1-0.1-1.2-1.3-1.3-1.4c-0.1-0.1-0.9-1-1.1-1.1c-0.1-0.2-1.5-1.5-1.6-1.6c-0.1-0.1-0.2,0-0.2,0l-0.1,0.1
			C62.2,288.3,61.9,287.9,61.5,287.6 M66,294.4l0.3,0.4l2.3,2.4c0.1,0.1,2.2,2.4,2.3,2.6c0.1,0.1,2,2.3,2,2.3s-0.4,0.2-0.5,0.2
			c-0.1,0-3.3,1.7-3.4,1.8c-0.2,0.1-4,2.1-4,2.1l-3.3,3.1l-0.2,0c0,0,0.4-1.3,0.4-1.4c0-0.1,1-3.5,1.1-3.6c0-0.1,1.2-3.9,1.2-4
			c0-0.1,0.9-3,0.9-3.1S66,294.4,66,294.4 M61.5,310.7l0.2-0.1l1.9,0.6c0.1,0,2.1,0.6,2.2,0.7c0.1,0,3,0.9,3,0.9l5.2,1.7
			c0,0-5.1-1.6-5.2-1.6c-0.1,0-3.9-1.2-4-1.2C64.5,311.6,61.5,310.7,61.5,310.7 M61.4,310.7l1.5,0.4l2.1,0.6c0.1,0,1.7,0.5,1.9,0.6
			c0.1,0,2.6,0.8,2.7,0.8c0.1,0,1.8,0.5,2,0.6c0.2,0,3,0.9,3.2,1c0.2,0.1,1.4,0.4,1.4,0.4s3.2,1.1,3.3,1.1c0.1,0,4.4,1.5,4.5,1.6
			c0.1,0,2.6,0.9,2.7,1c0.1,0,2.7,1,2.7,1l0.2,0.2c0,0-0.8-0.3-0.9-0.3c-0.1,0-1.3-0.4-1.4-0.5c-0.1,0-2-0.7-2.2-0.7
			c-0.1,0-3.3-1.1-3.4-1.1c-0.1,0-3-1-3.2-1c-0.2-0.1-2.7-0.9-2.9-0.9c-0.2-0.1-3-1-3.1-1c-0.1,0-2.6-0.9-2.7-0.9c-0.1,0-3-1-3.2-1
			c-0.1,0-2.4-0.7-2.5-0.8c-0.1,0-2-0.7-2-0.7l-0.7-0.2L61.4,310.7z M61.2,310.9c0,0,1.5,0.5,1.7,0.5c0.2,0,2.5,0.8,2.7,0.9
			c0.2,0,3.9,1.3,4,1.3c0.2,0,3.7,1.2,3.7,1.2s-3-1-3.2-1s-0.2,0-0.2,0s-2.8-0.9-2.9-0.9c-0.1,0-3.4-1-3.5-1.1
			c-0.1,0-2.4-0.7-2.5-0.7L61,311L61.2,310.9z M61,311c0,0,1.7,0.5,1.8,0.5c0.1,0,2.2,0.7,2.4,0.7c0.2,0,3,0.9,3.2,1
			c0.2,0.1,2.8,0.9,3,0.9c0.2,0,3,0.9,3.2,1c0.2,0.1,2.7,0.9,2.9,0.9c0.2,0.1,3.4,1.2,3.6,1.2c0.2,0.1,3.3,1.1,3.5,1.2
			c0.3,0.1,2.7,1,2.9,1c0.2,0.1,1.4,0.5,1.6,0.6c0.1,0,0.7,0.3,0.7,0.3l0.1,0l0.7,0.7l0,0c0,0-1.1-0.4-1.3-0.5
			c-0.2-0.1-1.7-0.6-1.8-0.7c-0.1,0-4.2-1.5-4.3-1.5c-0.1,0-5.6-1.9-5.8-2c-0.1,0-5.8-2-5.9-2c-0.1,0-4.9-1.6-5.1-1.7
			c-0.1,0-3.5-1.1-3.6-1.2C62.8,311.8,60.9,311.1,61,311L61,311z M89.8,320.4l-0.3-0.1c-0.1,0-1.4-0.5-1.5-0.5
			c-0.1,0-1.3-0.5-1.5-0.5c-0.2-0.1-1.9-0.7-2-0.7c-0.1-0.1-2.5-0.9-2.6-0.9c-0.1,0-1.9-0.7-2-0.7l1.9,0.6c0,0,1.5,0.5,1.6,0.6
			c0.1,0,1.8,0.6,2,0.6c0.2,0.1,2,0.7,2.2,0.7c0.2,0.1,2.1,0.7,2.1,0.7L89.8,320.4z M68.7,306.3L68.7,306.3c0,0,1.5-0.6,1.6-0.6
			c0.1,0,3.5-1.2,3.6-1.2c0.1,0,0.8-0.3,0.8-0.3l0.8,0.9c0,0-2.2,0.4-2.4,0.4c-0.2,0-3.4,0.6-3.6,0.6
			C69.5,306.1,68.7,306.3,68.7,306.3 M66.9,307l1.2-0.5l1-0.2c0.1,0,3.7-0.6,3.9-0.6c0.2,0,2.7-0.5,2.7-0.5l0.5,0.6
			c0,0-2.1,0.3-2.3,0.3c-0.2,0-1.8,0.2-1.9,0.2c-0.1,0-4.4,0.6-4.5,0.6L66.9,307 M74.7,306.5c-0.2,0-3.5,0.2-3.6,0.2
			c-0.1,0-2.7,0.1-2.7,0.1s1.1-0.1,1.2-0.2c0.1,0,3.7-0.5,3.9-0.5c0.2,0,2.8-0.4,2.8-0.4l0.5,0.6C76.7,306.4,74.9,306.5,74.7,306.5
			 M65.9,307.3l0.6-0.2l0.9-0.1c0,0,2.7-0.2,2.8-0.2c0.1,0,4.2-0.2,4.3-0.2c0.1,0,2.2-0.1,2.2-0.1l0.6,0.6c0,0-1.3,0-1.5,0
			c-0.2,0-3.3,0.1-3.4,0.1c-0.2,0-5.1,0.1-5.2,0.1C67.2,307.3,65.9,307.3,65.9,307.3 M76.4,307.6c-0.2,0-3.3-0.1-3.4-0.1
			c-0.1,0-4.9-0.1-4.9-0.1s4.4-0.1,4.6-0.1c0.2,0,4.3-0.1,4.4-0.1l0.5,0l0.3,0.4C77.8,307.6,76.6,307.6,76.4,307.6 M65.6,307.5
			l0.2-0.2c0,0,1.6,0,1.7,0c0.1,0,4.9,0.1,4.9,0.1s4.1,0.2,4.2,0.2c0.1,0,1.3,0,1.3,0l0.6,0.7c0,0-2.4-0.2-2.5-0.2
			c-0.1,0-2.9-0.2-3.1-0.2c-0.2,0-4.2-0.2-4.4-0.2C68.4,307.7,65.6,307.6,65.6,307.5 M78.9,308.8c0,0-2.3-0.2-2.4-0.3
			c-0.1,0-4.9-0.5-4.9-0.5l-2.4-0.2l3.5,0.2l5.9,0.4L78.9,308.8L78.9,308.8z M65.2,307.8l0.3-0.2c0,0,6.3,0.5,6.4,0.5
			c0.1,0,4.9,0.5,5.1,0.5c0.1,0,2,0.2,2,0.2l0.7,0.8l-2.8-0.4c-0.1,0-3.9-0.5-4-0.5c-0.1,0-4.1-0.5-4.3-0.5
			C68.5,308.2,65.2,307.8,65.2,307.8 M76.4,309.4c-0.2,0-4-0.6-4.1-0.6c-0.1,0-2.3-0.3-2.3-0.3l2.8,0.3c0,0,4.2,0.6,4.3,0.6
			c0.1,0,2.7,0.4,2.7,0.4l0.2,0.2C80,309.9,76.6,309.4,76.4,309.4 M64.9,308.1l0.2-0.2l1,0.1c0,0,4.5,0.6,4.7,0.6
			c0.2,0,4.9,0.8,5.1,0.8c0.2,0,4.2,0.7,4.2,0.7l0.8,0.8c0,0-4.1-0.8-4.3-0.8c-0.2,0-3.5-0.6-3.6-0.6c-0.1,0-4.2-0.7-4.3-0.7
			C68.5,308.6,64.9,308.1,64.9,308.1 M78.4,310.5c-0.2,0-3.8-0.7-3.9-0.8c-0.1,0-4.7-0.9-4.7-0.9l4.7,0.8c0,0,4.7,0.9,4.9,0.9
			c0.3,0.1,1.4,0.3,1.4,0.3l0.1,0.1C81,311.1,78.6,310.6,78.4,310.5 M64.5,308.3l0.3-0.2c0,0,2.5,0.4,2.6,0.4c0.1,0,4.5,0.8,4.7,0.8
			c0.2,0,7.6,1.5,7.8,1.5c0.2,0,1.1,0.2,1.1,0.2l0.8,0.8c0,0-3.6-0.8-3.7-0.8c-0.1,0-5.9-1.3-6-1.3c-0.1,0-4.6-0.9-4.8-1
			C67.3,308.8,64.5,308.3,64.5,308.3 M76.5,310.9c-0.1,0-5.5-1.2-5.5-1.2s6.3,1.3,6.4,1.4c0.1,0,4.6,1.1,4.6,1.1l0.1,0.1
			C82,312.2,76.6,310.9,76.5,310.9 M64.2,308.6l0.2-0.2c0,0,2.5,0.5,2.6,0.5c0.2,0,4.5,1,4.7,1c0.2,0,4.1,0.9,4.4,1
			c0.2,0,6,1.4,6,1.4l0.8,0.8c0,0-4.1-1-4.2-1.1c-0.1,0-3.8-1-3.9-1c-0.1,0-5.3-1.3-5.4-1.3C69.2,309.7,64.2,308.6,64.2,308.6
			 M75.9,311.4l7.1,1.8l0.1,0.1L75.9,311.4z M63.8,308.8l0.2-0.2c0,0,3.3,0.7,3.4,0.8c0.2,0,4.5,1.1,4.9,1.2
			c0.3,0.1,7.5,1.9,7.5,1.9s1.7,0.4,2,0.5c0.3,0.1,1.3,0.4,1.3,0.4l0.8,0.9c0,0-2.5-0.7-2.7-0.8c-0.2-0.1-4.8-1.4-5-1.4
			c-0.2,0-4.6-1.2-4.8-1.3c-0.2,0-4.2-1.1-4.3-1.1C67,309.6,63.8,308.8,63.8,308.8 M63.5,309.1l0.2-0.2c0,0,5,1.2,5.1,1.2
			c0.1,0,6.1,1.6,6.3,1.6c0.2,0,5.1,1.4,5.3,1.4c0.2,0.1,3.6,1,3.6,1l0.8,0.8l-0.1,0c0,0-3.7-1.1-3.8-1.2s-6.2-1.8-6.3-1.8
			c-0.2,0-5.7-1.6-5.9-1.6C68.6,310.5,63.5,309.1,63.5,309.1 M63.2,309.3l0.3-0.2c0,0,6.5,1.7,6.8,1.8c0.3,0.1,6.9,1.9,6.9,1.9
			s4.4,1.3,4.6,1.4c0.2,0,2.9,0.9,3,0.9c0.1,0,0.3,0.1,0.3,0.1l0.7,0.8c0,0-3.3-1-3.5-1.1c-0.2-0.1-3.5-1.1-3.7-1.2
			c-0.2-0.1-4.3-1.3-4.5-1.3c-0.2-0.1-4.2-1.2-4.5-1.3c-0.2-0.1-5.9-1.7-6-1.7C63.4,309.4,63.2,309.3,63.2,309.3 M63.1,309.5
			l0.1-0.1l5.5,1.6L63.1,309.5z M83,315.3l2.8,0.9l0.1,0.1L83,315.3z M62.8,309.7l0.2-0.2c0,0,5,1.4,5.1,1.4c0.2,0,4.5,1.2,4.8,1.3
			c0.2,0.1,5.2,1.6,5.4,1.6c0.2,0,4.5,1.4,4.7,1.5c0.2,0.1,2.9,1,2.9,1l0.6,0.6c0,0-2.7-0.9-2.8-0.9c-0.1,0-4.1-1.3-4.2-1.4
			c-0.1,0-3.4-1.1-3.6-1.1c-0.2,0-4.1-1.2-4.3-1.3c-0.2-0.1-4.9-1.4-5.1-1.5c-0.2-0.1-2.5-0.7-2.6-0.8
			C63.7,309.9,62.8,309.7,62.8,309.7 M62.6,309.8L62.6,309.8l7.2,2L62.6,309.8z M79.5,314.7l2.1,0.6c0,0,4.3,1.4,4.4,1.5
			c0.1,0,0.7,0.2,0.7,0.2l0.1,0.1L79.5,314.7z M62.5,309.9l0.1-0.2c0,0,1.2,0.4,1.4,0.4c0.2,0,4.2,1.2,4.3,1.2c0.2,0,6,1.7,6.2,1.8
			c0.2,0,4.9,1.5,5.1,1.6c0.2,0.1,4.8,1.6,5,1.7c0.1,0,2.3,0.8,2.3,0.8l0.6,0.6c0,0-1.1-0.4-1.2-0.4c-0.2-0.1-5.7-1.9-5.9-1.9
			c-0.2-0.1-4.2-1.4-4.3-1.4c-0.2-0.1-7.5-2.3-7.6-2.4C68.2,311.6,62.5,309.9,62.5,309.9 M62.3,310L62.3,310l2.8,0.7l5.6,1.7
			c0,0-6-1.7-6.1-1.8C64.5,310.7,62.3,310,62.3,310 M86.2,317.6l-5.1-1.8l6.3,2.1l0.2,0.2L86.2,317.6z M62.1,310.2l0.1-0.1
			c0,0,3.4,1,3.5,1c0.2,0,5.9,1.7,6,1.7c0.2,0,5.4,1.7,5.5,1.7s6.3,2.1,6.3,2.1c0.2,0.1,4.2,1.5,4.2,1.5l0.3,0.4c0,0-3.1-1-3.2-1.1
			c-0.2-0.1-2.2-0.7-2.3-0.8c-0.1,0-3.8-1.2-4-1.3s-5.6-1.8-5.7-1.8c-0.1,0-4.1-1.3-4.4-1.4c-0.2-0.1-3.9-1.2-4.1-1.3
			C64.2,310.8,62.1,310.2,62.1,310.2 M61.9,310.4l0.1-0.1c0,0,3.6,1.1,3.8,1.1c0.2,0.1,5.5,1.8,5.5,1.8L61.9,310.4z M81.3,316.4
			c0,0,2.8,0.9,2.9,1c0.1,0,4,1.3,4,1.3l0.2,0.2L81.3,316.4z M86.7,318.7l2.2,0.8l0.3,0.3c0,0-2.4-0.9-2.5-0.9
			c-0.1,0-7.2-2.5-7.2-2.5L86.7,318.7z M77.9,315.7c-0.3-0.1-3.5-1.2-3.8-1.3c-0.3-0.1-5-1.6-5-1.6c-0.1,0-2.6-0.8-2.7-0.8
			c-0.1,0-3.7-1.2-3.8-1.2c-0.1,0-0.9-0.2-0.9-0.2l0.2-0.1c0,0,4.3,1.3,4.5,1.3c0.2,0.1,4.4,1.3,4.6,1.4c0.2,0,3.8,1.1,4,1.2
			c0.2,0.1,4.6,1.5,4.7,1.5s4,1.4,4.1,1.4c0.2,0,4.6,1.6,4.6,1.7l0.4,0.3l-0.1,0c0,0-5.4-1.8-5.5-1.8
			C83.1,317.4,78.2,315.8,77.9,315.7 M89.7,319.5c-0.1-0.2-2.4-2.4-2.5-2.6c-0.1-0.2-2.1-2.2-2.3-2.4c-0.2-0.2-2.7-2.9-2.9-3.1
			c-0.2-0.2-2.4-2.6-2.6-2.9c-0.2-0.2-1.7-1.9-1.9-2.1c-0.2-0.2-2-2.3-2-2.3l-0.2-0.2l0.8-0.3l0.3,0.2c0,0,0.7-0.5,1.3-0.9
			c4.7,6.3,9.9,12.2,15.6,17.5l-0.6,0.7l-0.6,0.6C92,321.8,89.8,319.7,89.7,319.5 M93.5,323.3c0,0,0.1-0.3,0.3-0.4
			c0.1-0.1,0.8-0.9,0.9-1.1c1.1,1,2.3,2.1,3.5,3.1c-0.3,0.4-0.8,0.9-1.3,1.6c-1-1-2.3-2.3-2.4-2.4C94.3,324,93.5,323.3,93.5,323.3
			 M292.1,331.8c0.1-0.2,1-0.9,1.1-1c0.1,0,0.2-0.1,0.3,0.1c0.1,0.2,0.2,0.2,0.4,0.3s0.3,0.6,0.5,0.7c0.1,0.1,0.1,0.4,0.1,0.5
			c0,0.1,0.2,0.2,0.4,0.4c0.1,0.2,0,0.6,0.1,0.8c0.1,0.2,0.1,0.2,0.3,0.2c0.2,0.1,0.4,0.5,0.5,0.7c0.1,0.1,0,0.2,0.1,0.4
			c0.1,0.2,0.6,0.8,0.7,1c0.1,0.2,0.1,0.5,0.2,0.7c0.1,0.2,0.3,1.3,0.4,1.5c0.1,0.2,0.4,0.3,0.5,0.4c0.1,0,0.3,0.3,0.5,0.4
			c0.2,0.1,0.1,0.2,0.2,0.3c0.1,0.1,0.3,0.4,0.4,0.6c0.1,0.2,0.1,0.2,0.3,0.4c0.2,0.2,0.2,0.4,0.3,0.6c0.1,0.2,0.2,0.3,0.2,0.5
			c0,0.2,0.3,0.7,0.4,0.9s0.3,0.6,0.4,0.8c0.1,0.2,0.3,0.5,0.3,0.5s-0.2-0.1-0.3-0.2c-0.2-0.1-0.4-0.5-0.6-0.7
			c-0.1-0.2-0.6-0.8-0.7-1.1c-0.1-0.3-0.6-1-0.7-1.2c-0.1-0.2-0.1-0.4-0.2-0.5c0-0.2-0.4-0.5-0.5-0.7c-0.1-0.2-0.2-0.3-0.2-0.5
			c0-0.2-0.2-0.4-0.3-0.5c-0.1-0.1-0.2-0.2-0.3-0.4c-0.1-0.2-0.5-0.6-0.7-0.7c-0.1-0.1-0.3,0-0.5-0.1c-0.2,0-0.2-0.2-0.3-0.4
			c-0.1-0.2-0.4-0.4-0.5-0.6c-0.1-0.2-0.4-0.3-0.6-0.6c-0.3-0.3-0.1-0.4-0.1-0.5c0-0.1-0.1-0.2-0.3-0.3c-0.2-0.1-0.1-0.2-0.3-0.4
			c-0.1-0.2-0.6-0.7-0.7-0.8c-0.2-0.1-0.2-0.4-0.2-0.5c0-0.1-0.2-0.2-0.3-0.4C291.9,332.1,292.1,332,292.1,331.8 M171.5,26.2
			L171.5,26.2l0.1,0.8l-0.3,0l-0.1-0.8L171.5,26.2z M171.4,25.3l0.1,0.9l-0.3,0l-0.2-0.8l0,0L171.4,25.3z M171.4,25.1l-0.4,0.1
			l-0.1-0.9l0.4-0.1L171.4,25.1z M171.1,23.3l0.1,0.8l-0.4,0.1l-0.1-0.8L171.1,23.3z M171,22.7l0.1,0.1l0,0.3l-0.4,0l0-0.1l0,0
			l0.1-0.1l0-0.2l0-0.1L171,22.7z M170.8,20.4l0.1,0.9l-0.5,0.1l-0.1-0.9L170.8,20.4z M170.6,19.4l0.1,0.9l-0.4,0.1l-0.1-0.9
			L170.6,19.4z M170.3,15.8l0.2-0.1l0.1,0.1l-0.1,0.3l-0.1,0L170.3,15.8z M169.9,17.6l0.5-0.1l0.1,0.8l-0.4,0.1L169.9,17.6z
			 M170,18.5l0.5-0.1l0.1,0.8l-0.4,0.1L170,18.5z M169.9,23.3l0-0.2l0.2,0l0-0.2l0-0.1l0.2,0l0.1,0.1l0.1,0.4L169.9,23.3z M170,24.3
			l-0.1-0.9l0.4-0.1l0,0l0.1,0.8L170,24.3z M170.2,25.3l-0.1-0.8l0,0l0.4-0.1l0.1,0.8L170.2,25.3z M170.3,26.2l-0.1-0.8l0.4-0.1
			l0.1,0.7L170.3,26.2z M170.5,27.2l-0.1-0.8l0.3-0.1l0.1,0.8L170.5,27.2z M170.5,27.4l0-0.1l0.3,0l0,0.1L170.5,27.4z M171,28.1
			l-0.4,0.1l-0.1-0.7l0.3,0L171,28.1z M170.8,25.4l0.1,0.8l-0.1,0L170.8,25.4L170.8,25.4z M170.6,24.2l-0.1-0.8l0.1,0L170.6,24.2
			L170.6,24.2z M170.7,24.4l0.1,0.8l-0.1,0L170.7,24.4L170.7,24.4z M171.1,27.3l0.1,0.7l-0.1,0L171.1,27.3L171.1,27.3z M171,27.1
			l-0.1-0.8l0.1,0L171,27.1L171,27.1z M169.5,20.4l-0.1-0.8l0.5-0.1l0,0.9L169.5,20.4z M169.9,20.5l0.2,0.9l-0.5,0l-0.2-0.9
			L169.9,20.5z M173.4,20.1l0.1,0.8l-0.4,0l-0.1-0.7L173.4,20.1z M173.4,19.9L173.4,19.9l-0.4,0.2l0-0.1L173.4,19.9z M173.2,18.1
			l0.1,0.8l-0.4,0.1l-0.1-0.9L173.2,18.1z M173.1,17.2l0.1,0.6l-0.4,0.1l-0.1-0.6L173.1,17.2z M172.6,16.9l-0.1-0.6l0,0l0.4-0.1
			l0.1,0.7L172.6,16.9z M173,16.9l0,0.1l-0.4,0.1l0-0.1L173,16.9z M173.3,16.9l0.5-0.1l0,0.1L173.3,16.9L173.3,16.9z M173.4,19.8
			l-0.4,0.1l-0.1-0.7l0.4-0.1L173.4,19.8z M173.7,19.8l-0.1-0.8l0.6-0.1l0.1,0.8L173.7,19.8z M174.4,20.8l-0.5,0.1l-0.1-0.9l0.5-0.1
			L174.4,20.8z M342,207.2l-0.8,0.2l0.5-0.8l0,0l0,0.2l0.1,0.2l0.2,0L342,207.2z M341.9,206.5l-0.1-0.3l0.2-0.1l0.1,0.3L341.9,206.5
			z M342.2,207.2L342.2,207.2l-0.2,0l0-0.2l0.1,0l0.1-0.1L342.2,207.2z M342.2,206.6L342.2,206.6l0.1,0.2l0,0l0,0.1L342.2,206.6z
			 M342.4,207.2l-0.1,0l0-0.2l0.1-0.1L342.4,207.2z M341.8,204.7l-0.1-0.3l0.1-0.2l0.1,0.2l0,0.2L341.8,204.7z M342,205.1l0,0.2
			l-0.1,0.1l-0.1-0.3l0.1-0.1L342,205.1z M342,201.2l-0.2-1.3l0.1-0.1l0.5-0.1l0,0.3l-0.2,0.8L342,201.2z M342.2,206.1l0.1,0.3
			l-0.1,0l-0.1-0.3L342.2,206.1z M342.1,206l0-0.2l0.1-0.1l0.1,0.1L342.1,206L342.1,206z M341.4,206.1l0.2,0.1l-0.1,0.2l-0.2,0.4
			l-0.2-0.1l0.2-0.5L341.4,206.1z M341.3,205.8l0.3-0.9l0.1,0.1l0.1,0.3l0,0.4l-0.2,0.3L341.3,205.8z M342.4,199.4l-0.6,0.1
			l-0.3-1.7l1.3-0.2l0.1,0.3l-0.2,0.9L342.4,199.4z M343,201.8l-0.4,1l-0.1-0.7l0.1-0.2L343,201.8L343,201.8L343,201.8z M343.1,201
			l-0.1,0.3l-0.2,0.1l-0.3,0l0-0.2l0.3-0.9l0.1,0.2L343.1,201z M343.6,198.9l0,0.2l-0.2,0.1l-0.3,0.1l-0.1-0.1l0-0.2l0.2-0.8l0-0.1
			l0.1,0.2L343.6,198.9L343.6,198.9z M343.7,198.7l-0.1,0.1l-0.1-0.1l-0.1-0.3l-0.2-0.5l0-0.1l0.1,0.1l0.1,0.2L343.7,198.7z
			 M344,197.3l0,0.2l-0.1,0.5l-0.1,0.5l-0.4-0.8l0.1-0.2L344,197.3z M344.1,196.6l0,0.2l-0.1,0.1l-0.5-0.8l0-0.3l0.1,0L344.1,196.6z
			 M344.3,195.4l-0.1,0.4l-0.1,0.5l-0.5-0.8l0.5-0.1L344.3,195.4z M344.4,194.5l-0.1,0.4l-0.6-0.8l0.1-0.5L344.4,194.5z
			 M344.5,193.5l0,0.3l-0.1,0.4l-0.4-0.7L344.5,193.5L344.5,193.5z M344.5,192.6l0,0.2l-0.1,0.1l-0.2-0.3l-0.3-0.4l0-0.5l0.1,0
			l0.1,0.2l0.4,0.6L344.5,192.6z M344.5,192l-0.1,0.1l-0.4-0.6l0.4-0.1l0,0.2L344.5,192z M343.9,190.6l0.4,0.5l0,0.1l-0.3,0.1
			l-0.1-0.1L343.9,190.6z M344.5,190.5l0,0.4l-0.1,0.1l-0.5-0.7l0-0.5l0.1-0.1L344.5,190.5z M344.6,190l0,0.3l-0.3-0.5l0.3-0.1
			L344.6,190z M344.2,189.2l-0.4,0l0-0.5L344.2,189.2z M344.5,188.6l0,0.5l-0.1,0.1l-0.6-0.6l0-0.5l0.2-0.1L344.5,188.6z
			 M344.5,188.1l0,0.3l-0.2-0.4l0.2-0.1L344.5,188.1z M343.8,192.5L343.8,192.5l0.2,0.1l0.3,0.4l-0.2,0.1l-0.2,0l-0.1-0.1l0-0.2
			L343.8,192.5z M343.8,187.4l0-0.3l0.2,0.3L343.8,187.4z M344.3,186.7l0.1,0.5l-0.2,0l-0.4-0.4l-0.1-0.6l0.2,0L344.3,186.7z
			 M344.1,184.8L344.1,184.8l0.1,0.7l-0.3,0.1l-0.3-0.4l-0.1-0.5l0.3-0.1L344.1,184.8 M343.2,183l0.3-0.1l0.2,0.2l0.1,0.6l-0.3,0.1
			l-0.2-0.2L343.2,183z M343.3,185.1l0.1,0.5l-0.2,0.1l-0.1-0.7l0.1,0L343.3,185.1 M343.1,184l0.1,0.5l-0.2,0l-0.1-0.5L343.1,184z
			 M343,183.5l0.1,0.3l-0.2,0l-0.1-0.6L343,183.5 M343.1,181.4l-0.1,0.4l-0.1,0.1l-0.1-0.5L343.1,181.4L343.1,181.4 M342.6,180.6
			l0.3-0.1l0.1,0l0.1,0.5l-0.1,0.1l-0.3,0.1L342.6,180.6z M342.7,182.2l-0.2,0l-0.1-0.7l0.2,0L342.7,182.2z M342.6,179.8l-0.2,0.3
			l-0.1-0.4L342.6,179.8L342.6,179.8z M342.1,179l0.3-0.1c0,0,0.2,0.4,0.2,0.5c0,0.1,0,0.2,0,0.2l-0.3,0.1L342.1,179z M342.1,179.8
			l0.2,0.6l-0.1,0.1l-0.1-0.1l-0.1-0.5L342.1,179.8z M341.9,178.2L341.9,178.2l-0.1,0.4l-0.1-0.3L341.9,178.2z M341.4,177.4l0.3-0.1
			l0.1,0.2l-0.2,0.4L341.4,177.4z M341.5,178.1l-0.3,0l0.1-0.3L341.5,178.1z M341.1,176.5l0.2-0.1l0.1,0.2l-0.2,0L341.1,176.5z
			 M340.6,176.9l0.3-0.1l0.2,0.4l-0.4,0L340.6,176.9z M337.6,183.6L337.6,183.6l-0.2-0.8l0.1,0L337.6,183.6z M341.1,178L341.1,178
			l-0.2-0.5l0.3-0.1l0.1,0.2L341.1,178z M337.6,179.6l-0.1-0.5l3.5-0.6l0.2,0.5L337.6,179.6z M337.8,180.5l-0.1-0.7l3.6-0.7l0.3,0.7
			L337.8,180.5z M337.9,181.2l-0.1-0.6l3.7-0.7l0.2,0.6L337.9,181.2z M338.1,186L338.1,186l-0.1-0.4l0,0L338.1,186z M341.3,178.9
			l-0.1-0.4l0.3-0.1l0.2,0.5L341.3,178.9z M341.8,179l0,0.1l-0.1,0.4l-0.2-0.5L341.8,179z M338.1,182.1l-0.1-0.6l3.8-0.7l0.2,0.6
			L338.1,182.1z M342.2,181.1l-0.1-0.4l0.2,0l0,0.2L342.2,181.1z M338.3,183l-0.1-0.7l3.8-0.7l0.2,0.7L338.3,183z M338.5,187.9
			L338.5,187.9l-0.2-0.5l0.1,0L338.5,187.9z M338.4,183.7l-0.1-0.6l3.9-0.7l0.1,0.6L338.4,183.7z M338.7,184.7l-0.2-0.8l3.9-0.8
			l0.2,0.8L338.7,184.7z M338.8,189.5L338.8,189.5L338.8,189.5l-0.2-0.5l0.1,0L338.8,189.5z M342.6,182.8l-0.1-0.5l0.2,0
			L342.6,182.8z M338.8,185.4l-0.1-0.5l4-0.8l0.1,0.6L338.8,185.4z M338.9,185.5l3.9-0.8l0,0l0.2,0.8l-4,0.8L338.9,185.5z
			 M339.2,191.3L339.2,191.3l-0.2-0.6l0.1,0L339.2,191.3z M339.2,187.1l0-0.4l3.8-0.8l0.1,0.4L339.2,187.1z M339.2,187.2l3.8-0.8
			l0.1,1.1l-3.8,0.7L339.2,187.2z M339.6,193.1l-0.1,0l-0.1-0.6l0.1,0L339.6,193.1z M339.5,188.7l-0.1-0.3l3.8-0.8l0,0.4
			L339.5,188.7z M339.7,190.1l-0.2-1.2l3.7-0.7l0.1,1.2L339.7,190.1z M339.8,190.5l0-0.3l3.5-0.7l0,0.2L339.8,190.5z M340.1,192
			l-0.2-1.3l3.4-0.7l0,1.4L340.1,192z M343.5,196.3l0.2,0.3l0.2,0.3l0,0.3l-0.5,0.1l-0.1-0.1L343.5,196.3L343.5,196.3z M343.6,192
			l-0.1,1.2l-0.1,0l0.1-1.2L343.6,192L343.6,192z M343.6,189.5l0,0.3l-0.1,0l-0.1-0.3L343.6,189.5z M343.6,188.5l0,0.8l-0.1,0l0-0.9
			L343.6,188.5z M343.6,188l-0.1,0l0-0.4l0.1,0L343.6,188z M343.3,186.2l-0.1-0.4l0.1,0l0.1,0.4L343.3,186.2z M343.4,186.7l0.1,0.3
			l0,0.4l-0.1,0l-0.1-0.7L343.4,186.7z M343.7,194.5L343.7,194.5l0.2,0.1l0.2,0.3l0,0.2l-0.5,0.1l-0.1-0.2L343.7,194.5z
			 M343.5,191.2l0-1l0.1,0l0,1L343.5,191.2z M340.2,192.3l0-0.2l3.1-0.6l0,0.2L340.2,192.3z M340.2,192.4l3.1-0.6l0,1.5l-2.8,0.5
			L340.2,192.4z M340.6,197.9L340.6,197.9l-0.2-0.7l0.1,0L340.6,197.9z M341.2,201l0.1,0.7l-0.1,0L341.2,201L341.2,201z M341,196
			l2.1-0.5l0,0.2l-0.3,1.6l-1.5,0.3L341,196z M340.8,199.1l0.1,0.7l-0.1,0L340.8,199.1L340.8,199.1z M340.6,194.2l2.7-0.6l-0.1,1.6
			l-2.2,0.5L340.6,194.2z M340.6,177.5l0.3,0.7l-3.5,0.6l-0.2-0.8L340.6,177.5L340.6,177.5z M340.5,175.9l0.1,0.2l-0.2,0.5l-0.3-0.7
			L340.5,175.9z M337.3,177.9l-0.1-0.4l3.1-0.6l0.2,0.4L337.3,177.9z M337.3,181.8L337.3,181.8l-0.2-0.6l0.1,0L337.3,181.8z
			 M340.2,176.8l-3.1,0.6l-0.2-0.8l2.8-0.5L340.2,176.8z M339.7,174.4l0.1,0.2l-0.2,0.5l-0.3-0.6L339.7,174.4z M339,173.9l0.1-0.5
			l0.3,0.5L339,173.9z M336.9,176.4l-0.1-0.3l2.7-0.5l0.1,0.3L336.9,176.4z M336.9,180.1l-0.1,0l-0.1-0.6l0.1,0L336.9,180.1z
			 M339.5,175.4l-2.7,0.5l-0.2-0.9l2.4-0.4L339.5,175.4z M336.6,178.6L336.6,178.6l-0.2-0.7l0.1,0L336.6,178.6z M336.5,174.6
			l2.4-0.5l0.1,0l0,0.2l-2.4,0.5L336.5,174.6z M338.2,172.9l0.1-0.1l0.4-0.1l0.1,0.1L338.2,172.9z M338.9,172.9l0.1,0.2l-0.2,0.6
			l-0.4-0.7L338.9,172.9z M339.5,172.8l0.3-0.1l-0.3,0.2L339.5,172.8z M339.6,174.2l-0.4,0.1l-0.1-0.2l0.4-0.1L339.6,174.2z
			 M340.4,175.7l-0.4,0l-0.1-0.2l0.4-0.1L340.4,175.7z M340.2,175.3l-0.2,0l0-0.4L340.2,175.3 M340,174.4l0.1-0.1l0.2,0.2l-0.1,0.3
			L340,174.4z M337,213.1c0-0.3,0-0.5,0-0.8c1-0.5,2.6-1.3,2.6-1.3c0.1,0,1-0.7,1.1-0.7c0.1,0,0.4,0.6,0.5,0.7
			c0.1,0.1,1.1,1.7,1.8,2.6c-1-0.4-1.8-0.7-1.8-0.7S338.6,212.9,337,213.1 M197.6,40.8l-0.3,0l-0.5-0.2c0,0,0-0.1,0-0.2
			c0-0.1,0.4-0.4,0.4-0.4l0.2-0.3l0.2,0.1c0,0.1,0,0.2,0.1,0.3S197.6,40.8,197.6,40.8 M196.3,41.3c0,0.1,0,0.1-0.1,0.2
			c-0.1,0-0.1-0.1-0.2-0.1l0.1-0.2C196.1,41.1,196.3,41.2,196.3,41.3 M167.5,30.1L167.5,30.1l-0.1-0.2l0.1,0L167.5,30.1z
			 M166.8,11.2l0,0.2l-0.1,0.1l-0.1-0.1l0.1-0.1L166.8,11.2L166.8,11.2L166.8,11.2 M166.7,11.1L166.7,11.1l-0.2,0.1
			c0-0.1,0-0.2,0-0.3c0-0.1,0-0.1,0-0.1l0.1,0L166.7,11.1 M166.3,29.6L166.3,29.6l-0.1-0.2l0,0l0-0.2l0.1,0l0,0.2L166.3,29.6z
			 M41.1,126.1c-1-0.3-2-0.6-2.1-0.7c-0.3-0.1-2.2-0.8-2.5-0.9c-0.2-0.1-0.6-0.1-0.7-0.3c-0.1-0.1-0.3-0.3-0.4-0.3l-0.2-0.4
			c0,0-0.1-0.6-0.2-0.8c-0.1-0.2-0.3-0.4-0.3-0.5c0-0.1-0.1-0.1-0.3-0.1c-0.2,0-0.1,0-0.2-0.1c0,0-0.2,0-0.4,0l2.8-4.1
			c0,0,0.4,0.8,0.6,1.1C37.4,119.2,40.5,125,41.1,126.1 M33.4,121.1c-0.3,0.4-0.5,0.7-0.6,0.9c-0.2-0.1-0.9-0.3-1.1-0.4
			c-0.2-0.1-0.6-0.1-1-0.1l-0.3-0.7l0.8-1.1l0.6,0.3l0,0.1l0.1,0.1l0.1-0.1l0.8,0.5l0,0.1l0.1,0l0.1,0L33.4,121.1z M30.3,121.5
			c-0.2,0-0.4,0-0.5,0l0.2-0.2l0.1-0.2L30.3,121.5z M28.6,135.4c0,0,0,0.1,0.1,0.2c0.4,0.1,0.7-0.3,0.7-0.3l2.5,0.7
			c1,0.5,1.9,0.9,2,1c0.2,0.1,3.3,1.6,4.2,2.1c-1-0.2-2.9-0.7-3.2-0.8c-0.4-0.1-5.8-1.4-6.3-1.5c-0.4-0.1-3.3-0.8-4.2-1
			c0.8-1.1,2.2-3.2,3-4.4c0.4,1.1,1,2.4,1.2,2.5c0.2,0.2,0.5,0.2,0.7,0.2l-0.4,0.7c-0.1,0-0.5-0.1-0.5-0.1l-0.1-0.1l-0.1,0.3l0,0.2
			l0.1-0.1c0,0,0.3,0.1,0.4,0.1L28.6,135.4z M30.2,135.1l-0.1-0.7l0.3-0.4l0.1,0l0.2,0.1l0.1-0.2l0.2,0l0.2-0.3c0,0,0.3,0.1,0.4,0.1
			c0.1,0.1,2.8,1.7,2.9,1.8c0.1,0,1,0.7,2.2,1.5L30.2,135.1z M38.4,139.1c-0.6-0.3-2.2-1.2-2.5-1.3c-0.3-0.1-2.5-1.2-3.5-1.7
			l5.2,1.4c1.2,0.8,2.4,1.6,3.2,2.1c-0.5-0.1-1.4-0.4-1.5-0.4c-0.1-0.1-0.1-0.1-0.4-0.1C38.7,139.2,38.6,139.2,38.4,139.1
			 M26.6,128.4l-1.3-0.7c0.3-0.4,0.7-0.9,1.1-1.4c0.1,0.6,0.1,1.2,0.1,1.4C26.4,127.8,26.5,128.1,26.6,128.4 M301.4,344.6
			c0,0,0.1,0.1,0.1,0.2c0.1,0.1,0.5,0.6,0.5,0.6l-0.2-0.1l-0.4-0.4L301.4,344.6 M305.8,363.1c0-0.1,0.3-1.1,0.3-1.4s0-1.1,0.1-1.4
			c0.1-0.3,0.4-1.3,0.5-1.4c0.1-0.1,0.2-0.8,0.3-0.8c0.1-0.1,0.7,0.7,0.8,0.8c0.1,0.1,0.9,1.1,1.1,1.4c0.2,0.2,0.7,1.2,0.9,1.4
			c0.1,0.2,0.7,1.1,0.7,1.2c0.1,0.1,0,0.3,0,0.3s0,0-0.1,0.1c-0.1,0-0.2,0-0.3,0c-0.1,0-0.3,0.1-0.5,0.1s-1.1,0-1.2,0
			c-0.1,0-0.4,0.1-0.5,0c-0.1-0.1-0.2-0.1-0.2-0.3c0-0.1-0.1-0.1-0.2-0.1l-0.2-0.1c-0.1-0.1-0.5,0.2-0.6,0.3
			c-0.1,0.1-0.2,0.2-0.2,0.2l-0.1,0.2c-0.1,0-0.2-0.1-0.3-0.1C305.8,363.5,305.8,363.3,305.8,363.1 M313.4,353.3
			c0.1,0,0.5,0.1,1.1-0.1c0.5-0.1,2.1-0.1,2.3-0.1c0.2,0,0.5,0.2,0.6,0.2c0.2,0,0.2,0,0.4,0.1c0.1,0,0.5,0.4,0.7,0.6
			c0,0,0,0.1,0,0.2c0,0.1,0.1,0.2,0.1,0.3c0,0.1,0,0.3-0.1,0.5c-0.1,0.2-0.1,0.6-0.1,0.7c0,0.2,0,0.4-0.1,0.5c-0.1,0.2,0,0.3,0,0.4
			c0,0-0.1,0.1-0.2,0.2c-0.1,0.1-0.2,0.4-0.2,0.4s-0.1,0.1-0.2,0.1c-0.1,0-0.2,0-0.4-0.1c-0.2-0.1-0.9-0.5-1.1-0.8
			c-0.3-0.3-0.9-0.7-1.2-1c-0.3-0.3-0.8-0.7-1-0.9c-0.2-0.2-0.5-0.8-0.5-0.8L313.4,353.3 M342.9,316.5l0.4-0.7l0.6,0.3
			C343.4,316.7,342.9,316.5,342.9,316.5 M346.1,315.5l0.1-0.2l2.4,1.3l-0.1,0.2L346.1,315.5z M348.7,316.6l-2.3-1.4l0.1-0.1l2.2,1.3
			L348.7,316.6z M349.2,316.8l0.2,0l0.1,0.1l0,0.2l-0.2,0L349.2,316.8z M349.6,315.9l-0.2-0.3l0.2,0l0.3,0l0.1,0.2l-0.1,0.1
			l-0.2,0.1L349.6,315.9z M348.6,310.5l0.1-0.3c0,0,1.5,1,1.7,1.1c0.2,0.1,0.7,0.5,0.7,0.5l-0.1,0.3c0,0-0.2-0.1-0.3-0.2
			C350.6,311.9,348.7,310.6,348.6,310.5 M350.5,315l0.2-0.1l0.3,0.2l-0.1,0.2l-0.3-0.1L350.5,315z M351.1,314.8l-0.3-0.1l0-0.2
			l0.2-0.1l0.3,0.2L351.1,314.8z M351,313.4l0.2,0l0,0.1l-0.1,0.2l-0.2,0L351,313.4z M351,313.1l-0.1-0.2l0.3-0.2l0.4,0.4l-0.2,0.2
			L351,313.1z M351.7,312.7l-0.4-0.3l0.2,0l0.4,0.1L351.7,312.7 M348.7,308.4l0,0.1l-0.1,0.1l-0.2,0l0.1-0.2l0.2-0.1L348.7,308.4z
			 M348.6,307.3l-0.1,0.1l-0.2-0.1l0-0.2l0.1,0L348.6,307.3z M348.3,307.8l0.1,0.2l-0.1,0.2l-0.2-0.1l-0.1-0.3L348.3,307.8z
			 M348,310l0.5,0.1l0,0.2l-0.2,0.1l-0.3-0.2l-0.3-0.2L348,310z M365.9,325.7c0,0,0.2,0.1,0.3,0.2c0.1,0.1,0.5,0.1,0.6,0.2
			c0.1,0,1.3,0,1.3,0s-0.8,0.1-1,0.1c-0.2,0-0.6,0.1-0.8,0c-0.2,0-0.4-0.2-0.5-0.2C365.8,325.9,365.9,325.7,365.9,325.7
			 M368.4,325.6l-0.3,0c0,0-0.7,0.1-0.9,0.1c-0.2,0-0.5-0.3-0.7-0.4c-0.2-0.1-0.4-0.7-0.4-0.7l0.2,0.1c0.1,0.1,0.3,0.2,0.5,0.4
			c0.1,0.1,0.4,0.2,0.6,0.2C367.7,325.3,368.4,325.6,368.4,325.6 M368.6,325c-0.1-0.1-0.3-0.4-0.4-0.7c-0.2-0.3-0.5-0.7-0.6-0.8
			c-0.1-0.2-0.5-0.1-0.5-0.1l0.1-0.1c0,0,0.3,0,0.6,0c0.3,0,0.2,0.1,0.4,0.2c0.2,0.2,0.5,1.2,0.5,1.2l0.3,0.5
			C368.9,325.2,368.7,325.2,368.6,325 M366.9,324.6c0.2,0.1,0.4,0.2,0.4,0.2l0,0.1l-0.3-0.1l-0.3-0.2
			C366.7,324.6,366.8,324.5,366.9,324.6 M367.2,323.6c0.2,0,0.2,0.1,0.3,0.3c0.2,0.2,0.3,0.4,0.3,0.4s-0.5-0.2-0.6-0.3
			c-0.1-0.1-0.6-0.3-0.6-0.3l0.1-0.3C366.8,323.6,367,323.6,367.2,323.6 M366.1,325.2c0.1,0.2,0.2,0.2,0.3,0.3
			c0.1,0.1,0.3,0.2,0.5,0.2c0.2,0.1,0.3,0.1,0.2,0.1c-0.1,0-0.5,0-0.6-0.1c-0.1-0.1-0.3-0.1-0.5-0.4c-0.1-0.2-0.1-0.6-0.1-0.6
			S366,325,366.1,325.2 M400,251c0-0.2-0.4-0.3-0.6-0.3c-0.2,0-0.1,0.3-0.2,0.3c-0.1,0-0.1-0.2-0.2-0.4c0-0.2-0.2,0-0.2,0
			s0,0.1,0,0.3c-0.1,0.2-0.4,0.1-0.4,0.1l-0.4-0.1l0-0.3l-0.4-0.1l0,0.3l-0.2,0l0-0.2l-0.2,0l0.1-0.5l-0.2,0l-0.1,0.5l-0.2,0l0,0.2
			l-0.2,0l0-0.2l-0.4-0.1l0,0.2l-1-0.1l0-0.2l-2.2-0.3l0-0.3l-0.4-0.1l0,0.2L392,250l0.1-0.9l0.4,0.1l0,0.2l0.2,0l0-0.2l0.2,0l0-0.2
			l-0.2,0l0-0.2l-0.2,0l0,0.2l-0.2,0l-0.2,0l-0.6-0.4l-0.1,0.5l-0.4-0.1c0,0-0.4-0.3-1-0.5c-1.3-0.1-1.7,0.7-1.7,0.7l-0.4-0.1
			l-0.2-0.4l0-0.3l-0.4-0.1l0,0.2l-1-0.1l0.1-0.7l-1.8-0.2l0-0.2l-0.2,0l0,0.2l-1-0.1l-0.3-0.6l-2.6-0.3l0-0.2l-0.2,0l0,0.2
			c0,0-0.7-0.1-1-0.1c-0.3,0-0.1-1-0.2-1.3c-0.1-0.3-0.2-0.3-0.4-0.2c-0.2,0-0.3,0.2-0.5,0.5c-0.2,0.3-0.5,0.1-0.6,0.1
			c-0.2,0-0.1-0.5-0.1-0.5s-0.8-0.1-1-0.3c-0.1-0.2-0.4,0-0.6-0.1c-0.2,0,0,0.2,0,0.3c-0.1,0.1-0.8-0.1-1-0.1
			c-0.2,0-0.2-0.4-0.2-0.4l-0.6-0.1l-0.2,0.3l-0.6-0.1l0-0.3l-1.6-0.2l-0.5-0.6l-0.2,0l0,0.3l-0.4-0.1l-0.2-0.4l0.1-0.7l3.6,0.5
			l0-0.3l-3.6-0.5l0-0.2l-0.4-0.1l0-0.2l-0.2,0l0,0.2l-1.4-0.2l0.1-1l-0.4-0.1l-0.1,1l-0.6-0.1l-0.2,0.1l-6.8-0.9l0-0.3l-0.4,0.1
			l0,0.2l-4.2-0.4l0.6-4.8l2.1-15.5l0.6,0.1l0-0.2l1.2,0.2l0,0.3l0.2,0l0-0.3l0.2,0l0,0.3l0.4,0.1l0-0.3l0.4,0.1l0-0.2l-0.4-0.1
			l0-0.3l-0.4-0.1l0,0.3l-0.2,0l0-0.3l-0.2,0l0,0.3l-1.2-0.2l0-0.2c0,0-1.4-0.3-2.6-0.5s-4.5-1.6-4.5-1.6l0-0.2l-0.2,0l0,0.2
			c0,0-0.6-0.1-1-0.1c0-0.5-0.2-1.2-0.8-1.5c-0.7-0.3-3.5-0.5-4-0.7c-0.2-0.1-1-0.4-1.9-0.8c0.1-0.2,0.1-0.7,0-1
			c-0.1-0.4-0.5-2.9-0.6-3.2c0-0.3-1-5.2-1.1-5.5c-0.1-0.3-0.1-0.2,0-0.4c0.1-0.3,1-3.3,1.2-3.8c0.1-0.5,0.9-5.1,0.9-5.5
			c0-0.4,0.2-4.5,0.2-5s-0.1-2.7-0.2-3.3c-0.1-0.6-0.9-4.7-1-5.3c-0.2-0.7-1.3-3.9-2.1-5.5c-0.8-1.6-2.5-4.5-3.2-5.5
			c-0.7-1-2.5-3.2-3.6-4.1c-0.4-0.4-0.5-0.4-0.5-0.4l-0.7-2.9l0.1,0l0-0.2l-0.1,0l-0.1-0.7l0.1,0l0,0l-0.1-0.3l-0.1,0l-0.4-2.3
			c0,0,0-0.3-0.4-0.4c-0.1-0.1-0.3,0-0.4,0l3.3-4.1l-0.2-0.3l-1,0.5l-0.1-0.1l1.9-5.8l0.7-0.6c0,0,0.1,0.1,0.2,0
			c0.1-0.1,0.1-0.2,0.1-0.2l0.4-0.3c0,0,0,0,0.1,0c0.1,0,0.1-0.2,0.1-0.2l0.2-0.2c0.1-0.1,0.3-0.2,0.3-0.3c0-0.1-0.2-0.3-0.4-0.2
			c-0.2,0.1-0.1,0.4-0.1,0.4l-0.2,0.2c0,0,0.1,0-0.1,0c-0.1,0-0.2,0.2-0.2,0.2l-0.4,0.3c0,0-0.1,0-0.2,0c-0.1,0.1-0.1,0.2-0.1,0.2
			l-0.5,0.4l0,0l-1.7-5.5l-4.2,0.8l-1.7-1.7l1.1-1.6l-0.4-0.4l-0.3,0.3l-7.1-7.5l1.8-1.3l0.9-0.1l0.3-0.4l5-3.8l4.7-3.5l0.4,0.5
			l0.2,0.2l0.1,0.1l0.3-0.3l-0.4-0.5l0-0.4l0.8-0.7l0.2,0.1l0.1-0.1l-0.1-0.2c0,0,0.7-0.5,0.9-0.6c0.2-0.1,1-0.9,1-1
			c0-0.2-1.2,0.6-1.2,0.6l-0.8,0.6l-0.1-0.4c0,0,0.6-0.3,0.7-0.5c0.1-0.2-0.1-0.7-0.1-0.8l0.1-0.2l2.8-2.1l4.2-3.1l2.1-1.6
			c0,0,0.6,0.8,0.7,0.8c0.2,0,0.2-0.2,0.2-0.3c0-0.1-0.4-0.7-0.4-0.7l0.1-0.3l0.8-0.6l0.1,0.1l0.1-0.1l0-0.1c0,0,0.5-0.3,0.8-0.5
			c0.3-0.2,0.7-0.8,0.6-0.9c-0.1-0.1-0.9,0.5-0.9,0.5l-0.6,0.4l-0.1-1.4l0.8-0.5l0.1-0.4c0,0,0.3-0.2,0.5-0.4c0.2-0.2,0.3-0.6,0-0.8
			c-0.3-0.1-1,0.4-1,0.4l-0.6,0.5l0-0.5l6.7-4.9l0.1-0.1c0,0,0.2,0.3,0.2,0.4c0.1,0.1,0.2,0.1,0.3,0c0.1-0.1-0.1-0.3-0.1-0.3
			l0.1-0.4c0-0.1,0.2-0.2,0.3-0.3c0.1,0,0.3-0.1,0.3-0.1l0-0.2l0.9-0.7l-0.1-0.1l-0.3,0.1l-0.5,0.4l0-1.8l2.8-2.1l1.1-0.4l0-0.4
			l1.5-1.1l0-0.2l-0.2-0.1l-0.7,0.5l0-1l0.9-0.7l0.9-0.2l0.2-0.2l0.1-0.4l0.5-0.4l0-0.1l-0.2-0.2l0.1-0.9l0.2-0.2
			c0.1,0,0.3,0.1,0.5,0c0.1-0.1,0.2-0.1,0.2-0.1s0.1,0,0.2,0c0.2-0.1,0.2-0.1,0.3-0.1l0.2,0c0.3-0.2,0.5-0.6,0.6-0.9
			c0.1-0.3-0.2-0.5,0-0.6c0.1-0.1,0.2-0.3,0.1-0.5c-0.1-0.1-0.2-0.5-0.2-0.5l0.3-0.1l0.2,0c0,0,0.3-0.2,0.4-0.2
			c0.1,0,0.4-0.2,0.4-0.3c0-0.1-0.1-0.2-0.1-0.2l0.2,0l0.1-0.2l0.3-0.2l0.1-0.1l0.7-0.5l0.2,0.1c0,0-0.1,0.3,0,0.3
			c0.1,0,0.3-0.3,0.3-0.3l0.2-0.3c0-0.1,0.1-0.2-0.1-0.3c-0.2,0-0.3,0-0.3,0s0.1-0.2-0.2-0.3c-0.3-0.1-0.5,0.3-0.6,0.3
			c0,0.1,0.1,0.1,0.1,0.1s0.1-0.1,0.2-0.1c0.1,0,0.1,0.2,0.1,0.2l-0.6,0.5l-0.1,0l-0.3,0.3l0,0c-0.3,0-0.2,0.2-0.2,0.2
			s0-0.1-0.3-0.1c-0.3,0-0.3,0.3-0.3,0.3s-0.2,0.1-0.3,0.2c-0.1,0,0,0.3,0,0.3l-0.4,0.2c0,0,0-0.1-0.1-0.2c-0.1-0.1-0.3,0-0.3,0
			s0-0.3-0.6-0.5c-0.6-0.2-1.5,0.4-1.7,0.5c-0.2,0.2-0.3,0.5-0.3,0.5l0,0.7l-0.2,0.1c0,0-0.4-0.2-0.6-0.4l0-0.3l-0.3,0l-0.5,0.3
			l-0.2-0.1l-1.1,0.4l0,0.3l-0.2,0.2l-0.8,0.7l-0.6-0.4l0.5-0.4l0.4-0.3l-0.6,0.1l-0.6,0.5l-0.3,0l-0.6,0.3l-1.6,0.7l0,0.4l-0.3,0.3
			l-2,1.3l-0.1,0l-0.4,0.2l-0.8-0.5c0,0,0.4-0.5,0.6-0.6c0.1-0.1,0.1-0.2,0.1-0.2l-0.3,0l-0.8,0.5l-0.1-0.1l-0.9,0.5l-0.1-0.2
			l-0.2-0.1l-0.1,0.1l0.1,0.4l-1.5,0.9l-0.1-0.2l-0.4-0.1l0,0.3l0.2,0.4l-3.8,2.6l-0.2-0.1l-1.1,0.5l-0.6,0.4l-0.3-0.3l0.3-0.2
			l0.2-0.4l0.6-0.4l0.3-0.4l-0.1-0.2l-0.8,0.3l-0.4,0.3l-0.1-0.1l-0.2,0.1l-0.1-0.1l-0.8,0.6l-0.2-0.1l-0.1,0.1l-0.9-0.7l0.7-0.5
			l0.5-0.4l0.2-0.1l0.1-0.3l-0.2,0l-0.1,0.2l-0.8,0.3l-0.9,0.7l-0.1-0.1l0,0.3l-0.8,0.6l-0.3-0.1l0,0.2l-0.5-0.8l-0.2-0.1l-0.1,0.1
			l0.1,0.1l-0.1,0.1l0.2,0.2l-0.1,0.1l0.3,0.6l-10.5,7.4l-0.9-0.7l0.7-0.4l0.1,0l0.9-0.9l0.1,0.1l0.2-0.1l-0.1-0.2l0.2-0.1l-0.1-0.2
			l-0.3,0.1l-0.1-0.1l-0.1,0.1l0.1,0.1l-1.1,0.5l-0.9,0.6l-0.2-0.1l-0.1,0.2l-1,0.8l-0.3-0.3c0,0-0.3-0.4-0.5-0.3
			c-0.2,0,0,0.6,0,0.6l0.3,0.4l-10.9,7.8l-0.2-0.1l-0.4,1.1l-4.9,3.5l-0.2-0.1l-0.2,0.4l-1.5,0.9l-1,0.2l-0.5-0.5l0.9-1.3l1.4-2.1
			l2.8-4.2l2.5,1.7c0,0,0.5-0.7,0.7-1c-0.1-0.3-2.3-1.8-2.3-1.8l0.9-1.4l0.1,0.1l0.1-0.1l-2.3-1.6l1.7-2.6l0.1,0.1l0.1-0.1l-17-11.4
			l-0.8,0l-5-3.4l19.5-29.1l0.1-0.1l-7.7-5.2l4.5-6.7c0.1-0.1,0.9-1.5,1.1-1.6c0.2-0.1,0.1-0.3,0-0.3c-0.1-0.1-0.2,0.2-0.2,0.2
			l-0.2,0.3c-0.1,0.1-1.4,1.1-1.7,1.2c-0.3,0.2-1.1,0.6-1.3,0.7c-0.2,0.1-1,0.5-1.1,0.7c-0.2,0.2-0.8,1-0.9,1.2
			c0,0.2-0.1,0.4-0.2,0.5s0,0.2,0.1,0.3c0.1,0.1,0.4-0.1,0.6-0.2c0.2-0.1,0.6-0.5,0.8-0.5c0.1-0.1,1-0.6,1.2-0.6
			c0.1,0,0.3-0.2,0.5-0.3l-3.5,5l-6.5-4.4l-1.3-0.8l-0.1,0.1l-19.4,29.2l-5.1-3.4l-0.3-0.7l-17.3-11.6l-0.1,0.1l0.1,0.1l-1.8,2.6
			l-2.3-1.6l-0.1,0.1l0.1,0.1l-1,1.3l-2.7-1.4l-0.7,1.2l2.3,2.1l-4.8,7.2l-1.5,2c-1.8-0.5-3.6-1-5.4-1.5l0.1-0.5l-4.2-0.8l0-0.8
			l-3.2-0.5c0,0,0-0.2,0.1-0.5c0.1-0.3,0.2-0.1,0.3-0.3c0.1-0.2,0.3,0,0.6-0.3c0.3-0.3,0.5-0.5,0.5-0.9c0-0.4,0.2-0.6,0.3-1.2
			c0-0.6-0.1-0.5-0.2-0.9c0-0.4,0.1-0.7,0-1.1c-0.1-0.4-0.1-0.8,0-1.1c0.1-0.3,0.1-0.5,0.2-0.7c0.1-0.3,0.2-0.8,0.4-1.2
			c0.2-0.4,0.3-0.9,0.5-1.3c0.2-0.4,0.3-2.4,0.3-2.8c0-0.4,0-0.7,0-1.2c-0.1-0.5,0-0.7,0.1-1.1c0.1-0.4,0.2-1,0.1-1.4
			c0-0.4-0.1-1.2,0-1.7c0.1-0.4-0.1-0.6-0.1-1.1c0-0.5-0.2-0.9-0.4-1.4c-0.2-0.5-0.2-1.2-0.3-1.5c-0.1-0.3-1.1-1.1-1.3-1.3
			c-0.2-0.1-1.2-0.4-1.4-0.5c-0.2-0.1-0.8-0.2-0.8-0.4c0-0.2,0.1-0.2-0.1-0.4c-0.2-0.2-0.5-0.3-0.6-0.5c-0.1-0.2,0.2-0.4,0-0.6
			c-0.2-0.1-0.6,0-0.9-0.1c-0.2-0.1-0.4-0.1-0.3-0.4c0-0.3-2.1-1.3-2.7-1.5c-0.6-0.2-2,0.3-2.2,0.2c-0.2-0.1-0.6-0.5-0.6-0.8
			c0-0.3,0.3-0.3,0.3-0.4c0-0.1,0.5-2.6,0.5-2.8c0.1-0.3,0.5-2.3,0.5-2.5c0-0.2,0.2-0.5,0.4-0.6c0.2-0.1,0.4-1,0.5-1.2
			c0.1-0.2,0.3-2.4,0.3-2.7c0-0.3-0.1-2.6-0.1-2.8c0-0.2-0.1-0.7-0.5-0.8c-0.4-0.1-1.1,0.3-1.1,0.3s0-0.1,0.1-0.4
			c0.1-0.2,0.2-0.4,0.1-0.6c-0.1-0.2-0.1-0.2-0.2-0.4c-0.1-0.2-0.5-1.2-0.8-1.4c-0.3-0.2-1.6-0.3-1.9-0.3c-0.3,0-0.7,0.5-0.8,0.8
			c-0.1,0.2-0.4,0.8-0.4,1c-0.1,0.2,0.2,0.3,0.1,0.5c-0.1,0.2-0.1,0.3-0.1,0.6c0,0.2,0,0.3,0.1,0.4c0.1,0.1,0.1,0.7,0.1,0.8
			c0,0.1,0,0.4,0.2,0.6c0.2,0.2,0.6,0.2,0.6,0.5c0,0.3-0.3,0.2-0.7,0.5c-0.3,0.3-0.7,0.9-0.8,1.2c-0.1,0.3,0.3,1,0.4,1.1
			c0.1,0.1-0.3,1.4-0.3,1.6c0,0.2-0.2,0.6-0.4,0.7c-0.2,0.1-0.8,0.9-1,0.9c-0.2,0-0.8,0.1-0.9,0c-0.1-0.1-0.1-1-0.1-1.1
			c-0.1-0.1-0.6-0.1-0.6-0.1l0.1-1.3l0.2,0l0-0.3l-0.8-1.1l-0.9-0.1l0.1-2l-0.4-0.1l0,0.3l-0.6-0.1l0-0.3l-0.5-0.1l0,0.2l-0.6,4.6
			c0,0-0.3,0-0.5-0.1c-0.1,0-0.3-0.2-0.3-0.3c-0.1-0.1,0-0.4-0.1-0.6c-0.1-0.2-0.2-1-0.3-1.2c-0.1-0.2-0.2-1-0.3-1.3
			c-0.1-0.3-0.6-0.6-0.8-0.8c-0.2-0.2-0.1-0.6-0.2-0.8c-0.1-0.2-0.7-1-0.9-1.2c-0.2-0.2-0.7-0.2-0.7-0.2s0.2-0.4,0.4-0.7
			c0.1-0.3,0.2-0.9-0.1-1c-0.2-0.1-0.3,0.2-0.5,0.3c-0.3,0.2-0.5,0.2-0.6,0.3c-0.1,0-0.3-0.3-1.7-0.6c-1.3-0.4-2.4,0.2-2.8,0.6
			c-0.4,0.4-0.2,0.6,0,0.9c0.2,0.2-0.1,0.3-0.3,0.4c-0.2,0.2-0.3,0.7-0.4,0.9c-0.1,0.2-0.4,0.5-0.6,0.7c-0.1,0.2-0.1,0.6-0.1,0.8
			c0,0.2-0.5,1.5-0.6,1.9c-0.1,0.4-0.6,0.7-0.7,1c-0.1,0.2-0.2,0.6-0.3,0.8c-0.1,0.2-0.5,0.4-0.8,0.7c-0.3,0.3,0.1,0.6,0.2,0.8
			c0,0.2-0.1,0.9-0.1,0.9s0.5,0.7,0.6,0.9c0.2,0.2,0.8,0,1,0.2c0.2,0.2,0.2,0.4,0.4,0.5c0.2,0.1,1.1,0,1.3,0
			c0.2-0.1,0.3-0.3,0.3-0.3l1.3,0.4l-0.2,1.5c0,0-0.1,2.1-0.1,2.2c0,0.1-0.6,0.1-0.6,0.1l-0.2,1c0,0-0.1,0.1-0.4,0.4
			c-0.2,0.3-0.2,2.9-0.1,4c0.1,1.1,0.7,1.4,0.7,1.4s-0.8-0.2-1.1-0.3c-0.3-0.1-2.2,0.7-2.7,0.9c-0.5,0.2-2,0.5-2.2,0.7
			c-0.3,0.3-0.4,1.5-0.6,1.9c-0.1,0.4,0.3,1,0.5,1.4c0.2,0.4-0.2,2.8-0.2,3.5c0,0.7,0.5,1.2,0.8,1.5c0.2,0.3,0,0.9,0,1.4
			c0,0.5,1,0.4,1,0.5c0,0.1,0.5,1,0.7,1.1c0.3,0.1,0.4,0.2,0.9-0.1c0.8-0.3,1.3-2.2,1.3-2.4c0-0.3-0.3-0.5-0.4-0.8
			c0-0.4,0.2-0.2,0.3-0.3c0.2-0.1,0.1-0.2-0.3-0.6c-0.4-0.4-0.4-0.4-0.5-0.7c-0.1-0.2-0.5-0.1-0.5-0.3c-0.1-0.2-0.5-0.7-0.7-1
			c-0.3-0.3-0.1-0.5-0.1-0.8c0-0.3-0.2-1.1-0.1-1.4c0.1-0.2,0.4-0.6,0.8-0.9c0.4-0.2,2.4-0.2,2.4-0.2s0.8,0,0.7,0.3
			c-0.1,0.3,0.6,0.6,1.1,0.6c0.5,0.1,2.6-0.3,3-0.3c0.4,0,1,0.2,1,0.2s0.1,2.6,0,3.5c-0.2,0.8,0.2,1.7,0.3,2.1
			c0.1,0.4-1,3.4-1.3,3.9c-0.7,0-1.3,1.2-1.9,1.3c-0.7,0-1.2,1.7-1.2,1.7l-4.6,0.4l-0.2,0.7l-2.5,0.2l-0.3,1l-0.7-5.1l-0.3-2.3
			l-1.6-10.8l0.1-0.1l0.2,0l0-0.1l0-0.1l-0.4-0.3l-0.3-1.8l0.1-0.1l0-0.2l0-0.1l-0.1,0l0-0.1l0.1,0l0,0l0,0l-0.2,0l0-0.1l0.1,0
			l0-0.1l-0.1,0l0,0l0.1,0l0-0.2l-0.1,0l0-0.1l0.1,0l0.1,0l0-0.2l-0.3,0l0-0.1l0.1,0l0-0.2l-0.2,0l0-0.2l0.2,0l0-0.1l-0.2,0l0-0.1
			l0.1,0l0-0.2l-0.1,0l0,0l0-0.1l0.1,0l0-0.2l-0.1,0l0-0.1l0.1,0l0-0.2l-0.2,0l-0.1-0.3l-0.2,0l0.1,0.4l-0.1,0l0,0.2l0.1,0l0,0.1
			l-0.1,0l0,0.1l0.1,0l0,0.2l-0.1,0l0,0.2l0.1,0l0,0.2l-0.1,0l0,0.2l0.1,0l0,0.2l-0.1,0l0,0.1l0.1,0l0,0.3l-0.1,0l0,0.1l0.1,0l0,0.1
			l-0.1,0l0,0.1l-0.1-0.1l-0.1,0l0,0.1l-0.1,0l0-0.1l-0.1,0l-0.1,0.1l0,0.1l-0.1,0l0-0.1l-0.6-4.1l-1.1-7.7l-0.9-6.3l-0.1-0.5
			l0.6-0.1l0-0.1l-0.1-0.1l-0.3,0.1l0-0.1l0-0.1l0.2-0.1l0-0.1l-0.5-0.4l-0.3-1.9l0.1-0.1l-0.3-0.8l0-0.1l0.1,0l0-0.1l-0.1,0l0-0.1
			l-0.1,0l0,0.1l-0.2,0l0-0.1l0-0.1l0.2,0l0-0.2l-0.3,0l0-0.2l0.2,0l0-0.1l-0.2,0l0-0.1l0-0.1l0.2,0l0-0.1l-0.2,0l0-0.2l0.1,0l0-0.1
			l-0.2,0l0-0.2l0.2,0l0-0.3l-0.1,0l0-0.3l-0.2,0l0,0.3l-0.1,0l0-0.3l-0.2,0l0,0.3l-0.1,0l0,0.2l0.1,0l0,0.2l0,0l0,0.1l0,0l0,0.2
			l-0.1,0l0,0.1l0.1,0l0,0.2l-0.1,0l0,0.1l0.1,0l0,0.2l-0.1,0l0,0.1l0.1,0l0,0.2l-0.1,0l0-0.1l-0.1,0l0,0.1l-0.1,0l0,0.2l0.1,0
			l0.1,0.3l-0.1,0l0.1,0.3l-0.1,0l-0.1-0.4l0.1,0l0-0.1l-0.1,0l0,0l0-0.1l-0.1,0l0,0.1l-0.2,0l0-0.1l0.2,0l0-0.2l-0.2,0l0-0.1l0.2,0
			l0-0.1l-0.2,0l0-0.2l0.2,0l0-0.1l-0.2,0l0-0.1l0.1,0l0-0.2l-0.1,0l0-0.2l0.1,0l0-0.2l-0.2,0l0-0.3l-0.1,0l0,0.3l-0.1,0l0-0.2
			l-0.2-1.7l-0.3-2.4l-0.2-1.5l0.1-0.1l0-0.1l-0.1-0.1l0,0l-0.1-1c0,0-0.2-1.9-0.3-2.1c0-0.2,0-0.1,0-0.2c0-0.1,0-0.2-0.1-0.3
			c0-0.1-0.1-0.1-0.1-0.2c0-0.1-0.2-1.1-0.2-1.2c0-0.1,0,0-0.1-0.2c0-0.1,0,0,0.1-0.1c0-0.1,0-0.1-0.1-0.1l0-0.2l0-0.1
			c0-0.1-0.1-0.2-0.1-0.3c0-0.1-0.1-0.1-0.1-0.1l0-0.2l-0.2-1.2l-0.2-1.2l0.1-0.1l0.5-0.1l0.2-0.1l-0.1-0.2c-0.1,0-0.3,0.1-0.4,0.1
			c-0.1,0-0.1,0-0.1-0.1l-0.1-0.1l-0.1,0l-0.2-1.4l0.1,0l0-0.3l0,0l0-0.1l0,0l0-0.1l0,0l0-0.1l-0.1,0l0-0.1l0.1,0l0-0.2l-0.1,0
			l0-0.1l0.1,0l0-0.2l-0.1,0l0-0.1l0,0l0-0.2l-0.1,0l0-0.1l0.1,0l0-0.2l-0.1,0l0-0.2l0.1,0l0-0.1l-0.1,0l0-0.1l0.2,0l0-0.2l0,0
			l-0.1,0l0-0.3l-0.1,0l0,0.3L176,8l0,0.2l0.2,0l0,0.1l0,0l0,0l0,0.1l0,0l0,0.1L176,8.6l0,0.1l0.1,0l0,0.1l0,0l0,0.2l0,0l0,0.1
			l-0.1,0l0-0.2L176,9l0.1,0.4l-0.1,0L175.8,9l-0.2,0l0-0.3l0.2,0l0-0.3l-0.3,0l0-0.3l0.1,0l0-0.1l-0.1,0l0,0l0-0.3l-0.3,0l0.1,0.4
			l-0.1,0l0-0.2L175,8l0,0.2l-0.1,0l0,0.1l0,0l0,0.1l-0.1,0l0,0.1l0,0l0.1,0l0,0.1l0,0.1l0,0.2l0,0l0,0.1L175,9.2l0,0.1l0,0l0-0.1
			l0-0.1l0-0.1l-0.1,0l-0.1-0.1l0,0l0-0.1l-0.1,0l0-0.1l0,0l0-0.1l0,0l0-0.1l0,0l0-0.1l0,0l0-0.1l0,0l0-0.2l0,0l0-0.1l0.1,0l0-0.2
			l-0.1,0l-0.1-0.3l-0.2,0.1l0,0.3l-0.1,0.1l0,0.1l0.1,0.1l0,0L174.3,8l0,0.1l0,0l0,0.1l0,0.1l0,0.1l0,0l0,0.1l0,0l0,0.1l0,0l0,0.1
			l0,0.1l0,0.1l-0.1,0.3l0,0.3L174,9.2c0,0-2.2-3.2-2.4-3.5c-0.2-0.3-0.3-0.6-0.3-0.7c0-0.1,0-0.1,0.1-0.2l0-0.3l-0.1-0.1l-0.1-0.1
			L171,4.5c0,0,0,0.2-0.3-0.1c-0.2-0.3-0.7-1.4-0.7-1.4l0.1-0.1l0-0.2L170,2.5l-0.1,0l-0.1-0.9l0.1-0.1l0.1,0l0-0.2l0,0l0,0l0.2,0
			l0,0.1l0.1,0l0-0.1l0.2,0l0-0.1l-0.2,0l0-0.1l-0.1,0l0,0.1l-0.1,0l0,0l-0.2,0l0-0.2l-0.1,0l0-0.1l0,0l0-0.3l0.1,0l0-0.2l0,0
			l-0.1,0L169.5,0l-0.2,0l0.1,0.4l-0.1,0l0,0.2l0.1,0l0,0.3l0,0l-0.2,0l0,0.2l-0.1,0l0,0l-0.2,0l0-0.1l-0.1,0l0,0.1l-0.1,0l0,0.1
			l0.1,0l0,0.1l0.1,0l0-0.1l0.2,0l0.1,0.1l0,0.2l0.2,0l0.1,0.1l0.1,0.5l0,0.4l-0.2,0.2l0,0.1l0.2,0.1c0.1,0,0.1,0.3,0.1,0.4
			c0,0.1,0,0.4,0,0.4l-0.2,0.8l-0.1,0l-0.4-0.1L169,4.5l0,0.2l0,0.4l0.2,0.2l0.1,0.4l-1.8,5.4l0,0l0-0.1l0-0.1l-0.1-0.4l0-0.1l0,0
			l0-0.1l0.1,0l0-0.2l-0.1,0L167,9.8l-0.1,0l-0.1-0.1l0-0.1l0-0.2l0-0.2l-0.1-0.1l0-0.1l0,0l0.1,0l0-0.2l-0.1,0l0-0.2l-0.1,0l0,0.2
			l-0.1,0l0,0.2l0.1,0l0,0l0,0.1l0,0.1l0,0.2l0,0.3l0,0.5l0,0.4l-0.2,0l0,0l0-0.2l0.2-0.1l0-0.3l-0.2,0l0-0.2l-0.2,0l0-0.1l0,0
			l0.1,0l0-0.2l-0.2,0l0-0.3l-0.2,0l0,0.3l0,0l-0.2,0l0,0.2l0.2,0l0,0.3l-0.2,0.1l-0.1,0l0,0.2l0.1,0l0.2,0l0.1,0.1l0.1,0.3
			l-0.1,0.1l0,0.1l0.1,0.1l0.1,0l0,0.2l0,0.3l0,0.2l0,0.3l-0.1,0.1l-0.1,0l0-0.1l0,0l0-0.1l0-0.2l-0.1-0.1l0,0l0,0l0-0.1l-0.1,0
			l0-0.1l0.1,0l0-0.1l-0.1-0.1l0-0.1l0.1-0.1l0-0.1l-0.1-0.1l0,0l0,0l0.1,0l0-0.1l-0.1,0l0-0.1l0.1,0l0-0.1l-0.1-0.1l-0.1-0.3l0.1,0
			l0-0.2l-0.1,0l0-0.3l-0.2,0l0,0.3l-0.1,0l0,0.2l0.1,0l0,0.3l-0.1,0.1l0,0.1l0.1,0l0,0.1l-0.1,0.1l0,0.1l0.1,0l0,0.1l-0.1,0.1
			l0,0.1l0,0l0.1,0l0,0.1l-0.1,0.1l0,0.1l0,0l0.1,0l0,0.1l-0.1,0.1l0,0l0.1,0l0,0.1l-0.1,0.1l0,0.2l0.1,0.1l0.2,1.3l0,0.2l-0.1,0.1
			l0,0.1l0.1,0l0,0.1l-0.1,0c0,0-0.4,0.1-0.5,0.1c-0.1,0-0.1,0.1-0.1,0.2l0.1,0l0.6-0.1l0.4,2.5l-0.1,0.1l0,0.2l0.1,0l0,0.1l-0.1,0
			l0,0.1l0.1,0l0,0.2l-0.1,0l0,0.1l0.2,0.1l0,0.1l-0.1,0l0,0.1l0.1,0l0,0.1l-0.1,0l0,0.1l0,0l0,0.1l0,0l0,0.2l0,0l0,0.1l-0.1,0.1
			l0,0.1l0,0l0,0.2l-0.1,0l0,0.1l0.1,0l0,0.1l-0.1,0l0,0.1l0.1,0l0,0.1l-0.1,0l0,0.1l0.1,0l0,0.1l0,0l0.5,3.3l-0.1,0.1l0,0.1l0.1,0
			l1,6.9l-0.1,0l0-0.1l0.1,0l0-0.2l-0.1,0l0-0.2l0.1,0l0-0.1l-0.1,0l0-0.1l0.1,0l0-0.1l-0.1,0l0-0.2l0.1,0l0-0.2l-0.1,0l-0.1-0.3
			l0,0l-0.1,0l0.1,0.3l-0.2,0l0,0.2l0.2,0l0,0.2l-0.1,0l0,0.1l0.1,0l0,0.1l-0.1,0l0,0.1l0,0l0,0.2l-0.1,0l0,0.2l0.1,0l0,0.2l-0.1,0
			l0,0.2l0,0l0,0.1l-0.1,0l0,0.1l0.1,0l0,0.2l-0.1,0l0,0l-0.1,0l0,0l0-0.1l-0.1,0l0,0.2l-0.1,0l0-0.2l0.1,0l0-0.1l-0.1,0l0-0.2
			l0.1,0l0-0.2l-0.1,0l0-0.1l0.1,0l0-0.2l-0.1,0l0-0.1l0.1,0l0-0.1l-0.1,0l0-0.2l0.1,0l0-0.2l-0.1,0l0-0.1l0-0.3l-0.1,0l0,0.3
			l-0.2,0l0-0.3l-0.2,0l0,0.3l0,0l-0.1,0l0,0.2l0.1,0l0.1,0.5l-0.1,0l0,0.1l0.1,0l0,0.2l-0.1,0l0,0.1l0.1,0l0,0.2l-0.1,0l0,0.1
			l0.1,0l0,0.2l-0.1,0l0-0.1l-0.1,0l0,0.1l-0.1,0l0,0.1l0.1,0l0.1,0.6l0,0.1l-0.1,0.1l0,0.2l0,0.1l0.1,0l0.3,2l-0.4,0.5l0,0.1l0,0
			l0.1,0l0,0.1l0.1,0l0.1,0.1l0,0l-0.1,0.1l-0.1,0.1l-0.1,0l-0.1,0l0,0.1l0,0.1l0.1,0.1l0,0l0,0l0,0l0,0l0.1,0l0,0l0.3,0l0,0.1
			l2.6,17.9l-0.1,0l0,0.2l-0.1,0l0-0.2l-0.2,0l0,0.2l-0.1,0l0-0.2l-0.1,0l0,0.2l-0.1,0l0-0.1l0,0l0-0.1l-0.1,0l0-0.1l0.1-0.1l0-0.1
			l-0.1,0l0-0.1l0.1,0l0-0.1l-0.1-0.1l0-0.1l0.1,0l0-0.1l-0.1,0l0-0.1l-0.1-0.1l0.1,0l0-0.1l-0.1,0l0-0.2l0,0l0.1,0l0-0.2l-0.2,0
			l0-0.3l-0.2,0l0,0.3l-0.2,0l0,0.2l0.2,0l0,0.2l-0.1,0l0,0.1l0.1,0l0,0.1l-0.1,0.1l0.1,0.1l0.1,0l0,0.2l-0.1,0l0,0.1l0.1,0l0,0.3
			l-0.1,0l0,0.1l0.1,0l0,0.2l-0.1,0l0-0.1l-0.1,0l0,0.1l0,0l0,0l0,0.1l0.1,0l0,0.2l-0.1,0.6l0,0.3l0,0l0.1,0.6l-5.1,0.7l-0.2-0.2
			l-0.2,0.1l0,0.1l-1.4,0.2l-13.9,1.8l-0.2-0.5l-0.3-0.3l-0.1-0.3l0.1,0l0-0.2l-0.1,0l-0.1-0.4l0.2,0l0-0.3l-0.3,0l0-0.3l0.1,0
			l0-0.1l-0.1,0l0-0.2l-0.1,0l0,0.2l0,0l-0.1,0l0,0.1l0.1,0l0,0l0,0.3l-0.3,0l0,0.3l0.2,0l0.1,0.4l-0.1,0.1l0,0.1l0.1,0l0.1,0.3
			l-0.2,0.3l-0.1,4.9l-0.1,0.2l-0.2-1.3l-0.1-0.3l0-0.3l0.1,0l0-0.1l-0.1,0l0-0.1l-0.1,0l0,0.1l-0.1,0l0,0.1l0.1,0l0,0.3l0,0.1
			l0,0.3l0.2,1.7l-0.1,0.3l-0.2,0l-0.1-0.2l0-0.2l0.1,0l0-0.1l-0.1,0l0-0.1l-0.1,0l0,0.1l-0.1,0l0,0.1l0,0l0,0l0,0.2l-0.1,0.4
			l0.2,1.5l-0.2,0L145,67l-0.1,0.1l-0.2-1.1l-0.1-0.2l-0.1,0.2l0.2,1.2l-0.1,0.3l1,6.6c-8.6-4.9-28.2,5.7-28.6,5.9
			c-0.4,0.2-1.2,0.7-1.4,0.7c-0.2,0-0.6-0.6-1-0.9c-0.4-0.3-3.6-3.4-3.8-3.6c-0.2-0.1-1.2-0.4-1.2-0.4l-0.2,0.2l-0.3-0.3l-1.7,0.2
			l-0.3,0.3l-0.4-0.2l-2.3,0.7l-0.4,0.5l1,1l-0.1,0.1l-1.3-1.3l-2.8,1.1c-0.1,0.1-0.4,0.5-0.4,0.6c0,0.2,1,1,1,1l-0.4,0.1l-1.3-1.2
			l-3.4,1.6l-1.2-1.1c0,0,0-0.2-0.2,0c-0.2,0.2-0.9,0.7-1.2,0.9c-0.3,0.1-0.7,0.1-0.9,0.3c-0.2,0.2-4,3.1-4.2,3.3
			c-0.2,0.2-1.6,1.4-1.6,1.4l-1.4,1.1l-0.4,1.2l0.9,1c0,0-1.1,1-1.2,1.2c-0.2,0.1-2.3,2.1-2.3,2.1l1.4,1.6L83,94.1l-1.4-1.4
			c0,0-1.4,1.3-1.7,1.6c-0.3,0.3-2.3,2.6-2.3,2.6l1.2,1.3L78,99.1l-1.3-1.3c0,0-0.9,0.9-1.1,1.2c-0.2,0.3-1.9,2.3-1.9,2.3l1.3,1.4
			l-0.8,0.8l-0.8-1.1c0,0-0.4,0-0.5,0c-0.1,0-0.8,0.9-1.2,1.4c-0.4,0.5-1.4,1.9-1.4,1.9l1.2,1.4l-0.4,0.3l-1-1.2l-0.7,0.5l-1.2,2.3
			l0.2,0.4l-0.4,0.5l-0.3,1.9l0.1,0.2l-0.4,0.3l0.2,0.2l0,1.1l0.2,0.3l-0.1,0.1l0.1,0.5l4.4,5.6c0,0-1.8,3.1-2.2,3.8
			c0,0-0.6,1-2.2,4.8c-0.8,1.5-1.3,3-1.6,4.5c-1.2-0.3-2-0.5-2-0.5c-0.1-0.1-0.5-0.1-0.6-0.2l-0.1-0.1l-0.6-0.2l-0.1,0l0-0.1l-0.1,0
			l-0.1-0.1l0-0.1l-0.2-0.1l-0.3-0.6l-2-4.3l0.4-0.6l-0.1-0.1l-0.1-0.1l-0.4,0l0.6-1l-0.3-0.1l-0.3,0.5l-0.1,0l0.8-1.5l-0.2-0.1
			l-0.4,0.6l-0.1-0.1l0.8-1.5l-0.2-0.2l-0.5,0.8l-0.1,0l0.5-1l-0.3-0.1l-0.4,0.8l-0.1-0.1l0.4-1l-0.3-0.1l-0.3,0.8l-0.1-0.1l0.4-1
			l-0.2-0.1l0-0.1l-0.1-0.1c-0.1,0-1.4,0.2-1.5,0.2c-0.1,0-0.4-0.2-0.5-0.3c-0.1-0.1,0-0.1,0-0.1c0,0-0.1-0.1-0.2,0
			c-0.1,0-2,1.1-2.2,1.2c-0.2,0.1-3,3.6-3.1,3.8c-0.1,0.2-1.6,2.8-1.6,2.8s-3.1-0.9-3.3-0.9c-0.2-0.1-3.3-1-3.6-1.1
			c-0.1,0-1-0.3-1.9-0.6c-0.4-0.6-1.3-2.4-1.4-2.7c-0.2-0.4-2.4-4.4-2.6-4.7c-0.1-0.2-0.9-1.5-0.9-1.5s0.1-0.1,0.3-0.5
			c0.1-0.3-0.1-0.5-0.2-0.7c0.9-1.2,1.6-2.3,1.7-2.5c0.4-0.6,3.3-5.1,3.7-5.7c0.4-0.7,2.1-3.5,2.1-3.5l0.2-0.3l-0.1,0l-0.1,0.1
			l-2.2-0.8l0-0.2c-0.1-0.1-0.3-0.2-0.3-0.1c-0.1,0.1-0.1,0.1-0.2,0.1c-0.1,0-0.2,0-0.2-0.2c0-0.1-0.4-0.4-0.4-0.4s-3.3,4.5-3.5,4.7
			c-0.2,0.1-4.4,6.1-4.5,6.1c0,0.1-0.2,0.1-0.3,0.3c-0.1,0.2-0.1,0.4-0.4,0.7c-0.2,0.3-2.3,3.2-2.4,3.4c-0.1,0.1-0.6,0.7-0.6,0.8
			l0,0.1c0.1,0,0.1-0.1,0.2-0.1c0.1,0.1,0.4,0.2,0.4,0.3c0,0.1-0.4,0.6-0.6,0.8c-0.2,0.2-1.2,1.5-1.3,1.6c-0.1,0.1-0.4,0.2-0.5,0.4
			c-0.1,0.1-0.3,0.3-0.4,0.5l-0.1,0c-0.3-0.1-0.8-0.3-0.9-0.3c-0.2-0.1-1-0.3-1-0.3l1.1-0.7l0-0.1l-0.2,0.1l-0.3-0.1l0.7-0.5
			c0,0-3.4-1.3-3.9-1.5c-0.5-0.2-5.1-2-5.6-2.2c-0.5-0.2-5.3-2.5-5.9-2.8c-0.6-0.3-2.7-1.4-2.7-1.4l-0.8,1l-0.7,0.8
			c-0.2,0.2-0.2,0.3-0.3,0.3c0,0-0.1,0-0.1,0.1c-0.1,0.1-0.1-0.1-0.2,0c-0.1,0.1-0.2,0.2-0.2,0.3l0,0.2c-0.1,0-0.4-0.1-0.5,0
			c-0.1,0.1-0.1,0.2,0,0.3c0.1,0.1,1.2,0.5,1.4,0.5c0.2,0.1,2.6,1,2.6,1l0.2,0.2l0.1,0.1L10,117l1.3,0.5l0.1,0.1
			c0.1,0.1,0.1,0.1,0.2,0.1c0.1,0,1.5,0.5,1.5,0.5l0.1,0.1l0.1,0.1c0.1,0,0.2,0,0.3,0c0.1,0.1,1.8,0.7,1.8,0.7l2,0.8
			c0,0,0.8,0.5,1.1,0.5c0.3,0.1,1,0.2,1.2,0.3c0.2,0.1,0.7,0.3,0.7,0.3s0,0.1,0.1,0.1c0.1,0,0.3,0,0.6,0.2c0.3,0.1,1.8,0.7,1.8,0.7
			l1.1,0.4c0,0,0.1,0.1,0.2,0.1c0.1,0,0.2-0.1,0.2-0.1l0.9,0.4L26,123l-0.1,0l-0.3,0.1c-0.1,0-0.1,0.3-0.1,0.3
			c0,0.1,0.1,0.2,0.2,0.3c0.1,0.1,0.1,0.3,0.1,0.5c0,0.1,0.1,0.2,0.1,0.4l-0.8,1.3l-1.4-0.1l-0.1-0.1c0,0-2.1,3-2.4,3.4
			s-3.8,5-4.4,5.6c-0.5,0.6-7.2,8.3-7.6,8.4l0.1,0.1l0.8,0.5l1.7,0.9l0,0.2c0.1,0,0.4,0.2,0.5,0.1c0.1,0,0.2,0.1,0.3,0.1
			c0.1,0,0.4-0.2,0.5-0.3c0.1-0.1,1-1.5,1.1-1.6c0.1-0.2,3.6-5,3.8-5.3c0.2-0.3,3.3-4.6,3.7-5.2c0.4-0.6,2.8-3.8,3.1-4.3
			c0.1-0.1,0.1-0.2,0.3-0.3l1.6,0.8c0.1,0.5,0.3,1.1,0.3,1.2c0,0,0.1,0.2,0.1,0.3l-3.5,5.2c-0.2,0-0.5-0.1-0.6-0.1
			c0-0.1-0.2-0.3-0.3-0.2c-0.1,0.1-0.2,0.5-0.1,0.6c0.1,0,0.2,0.1,0.3,0.1c0.1-0.1,0.3,0,0.4,0l-0.2,0.3l0.1,0.3
			c0,0,0.4,0.3,0.7-0.1c0,0,0.1-0.2,0.2-0.3c1.8,0.4,6.8,1.6,7.1,1.7c0.4,0.1,5.9,1.5,6.1,1.5c0.3,0.1,1.1,0.3,1.2,0.3
			c0.1,0,0.2,0.1,0.3,0.1c0.2,0,1.4,0.3,1.7,0.4c0.2,0,0.5,0.1,0.8,0.2l0,0l2.9,2l-1.2,3.1l-0.9,4.9l0.5,2.4l0.7,0.2l0.8,1.3
			l0.1,0.1l0-0.1l0.1,0.1l0.3-0.6l0.2,0l-0.2,0.4l0.5,0.2l0-0.4l0.2-0.4l0.1,0l-0.2,0.4l0.3,0.2l0.1-0.3l0.2,0.2l0.2,0l0.8-1.7
			l0.1,0l-0.3,0.8l0.3,0.1l0.7-1.6l0.1,0l-0.3,0.7l0.2,0.1l0.1-0.1l0.3-1l0.2,0.3l0.3,0l0.3-0.6l5.5-1.1l8,5.9c-1.1,2.4-2,4.8-3,7.3
			l-4.4-0.4l-4.2-0.3l-5.1-0.5l0-0.4l-0.2,0l-0.1,0.4l-1.2-0.1l-0.7,0c-0.1,0-0.1,0.1-0.2,0.2c-0.1,0.1-0.5,0.3-0.5,0.5
			c0,0.1,0.3,0.4,0.4,0.5l0.3,0l0.2,0.3l0.5,0l-0.1,0.2l-0.5,0.3l-1.1,0l0,0.2l0.5,0.1l0,0.1l0.1,0.3l-0.2,0.2l-1.5,1
			c0,0-2.4,1.4-2.5,1.5c-0.1,0.1-0.4,0.1-0.5,0.1c-0.1,0-0.2-0.2-0.2-0.2l-0.2,0.1l-0.2,0.1l-0.9,0.2l0,0.1l-0.4,0l0-0.2l-0.1,0
			l0,0.2l-0.5,0l0,0.1l0.5,0l0,0.2l0.1,0l0-0.2l0.4,0l0,0.1l0.8,0.3l-0.1,0.1l-0.2,0.1c0,0-0.7-0.1-0.8-0.1c-0.2,0-0.5,0-0.6-0.2
			c-0.1-0.1-0.2-0.2-0.2-0.2l-0.2,0.1c-0.1,0.1-0.2,0.2-0.3,0.2c-0.1,0.1-0.6,0.2-0.7,0.1l-0.1-0.1l-0.1-0.1l-0.2,0l-0.7,0l0,0.1
			l0.6,0.1l0,0.1l-0.1,0c0,0-0.4,0.1-0.5,0.1c-0.1,0-1.5,0.3-1.6,0.3c-0.1,0-0.8,0.1-0.9,0.1l-0.1-0.1l-0.2,0.1l-0.4,0
			c-0.1,0,0-0.2-0.2-0.2l-0.2,0.2l-0.2,0c-0.1,0,0-0.2-0.1-0.2l-0.1,0.1l-0.4,0l0,0.1l0.4,0.1c0,0,0,0.1,0.1,0.2
			c0.1,0,0.1-0.2,0.1-0.2l0.2,0c0.1,0,0,0.3,0.2,0.3c0.1,0,0.2-0.2,0.2-0.2l0.4,0l0,0.1l0.2,0l0.1,0c0,0,0.2,0,0.3,0.1
			c0.1,0,2.4,0.8,2.4,0.8l0,0.1l-0.5,0l0,0.2c0,0,0.4,0,0.5,0.1c0.1,0.1,0.1,0.1,0.2,0.1c0.1,0,0.2,0,0.2-0.1c0,0,0.2,0,0.4,0
			c0.1,0,0.7,0.3,0.7,0.3l0,0.1c0,0.1,0.2,0.3,0.4,0.3c0.2,0,0.2-0.1,0.3-0.2c0.1-0.1,0.4,0,0.5,0c0.1,0,0.1-0.1,0.2-0.1l0.6,0.1
			l0.2,0.2l-0.3,0.1l-0.4,0l0-0.1l-0.2,0l0,0.2l0,0l-0.3,0l0,0.2l0.4,0l0.1,0.2l0.1,0l0.1-0.1l0.4,0c0.1,0,0.2,0.1,0.3,0.2
			c0.1,0.1,0.4,0.1,0.4,0.1l0,0.1l-0.6,7.2l-1.7,1.5l-0.6,0.5l-1.1,0l0-0.3l-0.1,0l0,0.3l-0.4,0l0,0.2l0.4,0l0,0.3l0.1,0l0-0.3
			l0.4,0.1l0,0.1l-0.1,0l-0.1,0.2l0.1,0.1l-0.1,0.2l-0.2,0.1l-0.1,0.1l0.3,0.1l0,0.2l-0.2,0l0,0.2l0.1,0l0,0.2l-0.3,0l0,0.2l0.3,0.1
			l0,0.3l-0.1,0l0,0.2l0.1,0l0,0.2l-0.3,0l0,0.2l0.3,0.1l0,0.3l-0.1,0l0,0.2l0.1,0l0,0.2l-0.2,0l0,0.1l0.2,0.1l0,0.2l-0.1,0l0,0.1
			l0.1,0.1l-0.1,0.2l-0.2,0l0,0.2l0.2,0l0,0.3l-0.1,0l0,0.2l0.1,0.1l0,0.2l-0.3,0l0,0.1l0.2,0.1l0,0.2l-0.2,0l0,0.2l0.1,0.1l0,0.1
			l-0.3,0.1l-0.1,0l-1,0l-0.1-0.1l-0.2,0l-0.4-0.2l-0.3,0l-0.1,1.1l0.7,0.2c0,0,0.1-0.1,0.2-0.1c0.1-0.1,0.3,0.1,0.3,0.1l0.1,0
			l0.1,0l0.6,0.1l0,0.1l0.2,0l0,0.2l-0.1,0l-0.1,0.1l0.1,0.1l-0.1,0.1l-0.2,0l-0.1,0.1l0.3,0.1l0,0.2l-0.1,0l0,0.2l0.1,0.1l0,0.2
			l-0.3,0l0,0.2l0.2,0.1l0,0.1l-0.1,0l-0.1,0.2l0.1,0.1l0,0.2l-0.3,0l-0.1,0.2l0.3,0.1l0,0.2l-0.1,0l0,0.2l0.1,0l0,0.2l-0.3,0l0,0.2
			l0.3,0.1l0,0.2l-0.1,0l-0.1,0.2l0.1,0.1l0,0.2l-0.3,0l0,0.2l0.3,0.1l0,0.2l-0.2,0l0,0.2l0.1,0l0,0.2l-0.2,0l0,0.3l0.2,0.1l0,0.2
			l-0.1,0l-0.1,0.2l0.1,0l0,0.2l-0.3,0l0,0.3l-0.1,0l-0.3,0l0.1-0.2l-0.2,0l0,0.2l-0.1,0l0-0.2l-0.1,0l-0.1,0.3l-0.2,0l0-0.1l-0.3,0
			l-0.1,0.1c0,0-0.6,0-0.7-0.1c-0.1,0-0.1-0.2-0.2-0.3c-0.1-0.1-0.2,0-0.4,0.1c-0.1,0.1-0.2,0.2-0.3,0.2c-0.1,0-0.3-0.1-0.4,0
			c-0.1,0-0.1,0.1-0.3,0.1s-1.7,0.1-2,0.1c-0.3,0-2.6,0-2.8,0c-0.1,0-0.1-0.2-0.3-0.3c-0.2,0-0.2,0.2-0.2,0.3c0,0.1-0.1,0-0.2-0.1
			c-0.1-0.1-0.2,0-0.3,0c-0.1,0-0.5,0-0.5,0s0,0,0.1,0.1c0.1,0,0.4,0.1,0.4,0.2c0.1,0.1,0.2,0,0.3,0c0.1-0.1,0.1,0,0.1,0l0.1,0.3
			l0.3,0c0.1-0.1,0.1-0.1,0.2-0.1c0.1,0,3.8,0.7,3.9,0.7c0.1,0,0.7,0.1,0.8,0.2c0.1,0,0.1,0.2,0.1,0.2c0,0,0.4,0,0.5,0.1
			c0.1,0.1,0.2,0.2,0.3,0.3l0.3,0l0.2-0.2c0.1-0.1,0.7,0.1,0.8,0.1c0.1,0,0.4,0.1,0.4,0.1l0,0.3l0.1,0l0-0.2l0.1,0l0,0.2l0.1,0
			l0.1-0.2l0.1,0l0.2,0.1l0.1,0.2l0.1,0.1l0,0.3l0,0.1l-0.2,0.1l-0.1,0.1l0.2,0.1l0,0.3l0,0.2l-0.3,0.1l0,0.2l0.2,0.1l0,0.4l0,0.2
			l-0.2,0l0,0.2l0.1,0.2l0,0.3l0,0.2l-0.2,0l-0.1,0.2l0.2,0.1l0,0.2l-0.1,0l0,0.2l0.1,0l0,0.2l-0.2,0.1l0,0.2l0.2,0.1l0,0.2l-0.1,0
			l0,0.2l0.1,0.1l-0.3,0.1l0,0.2l0.2,0.1l0,0.2l-0.2,0l0,0.2l0.1,0.1l-0.1,0.1l-0.3,0l0,0.2l-1.1-0.2L31,201l-0.7,0.1l-0.1,0.2
			l-0.1,0.8l0.1,0.2l0.1,0l0.3-0.1l0.2,0l0.1,0.1l0.1,0l0.1-0.1l0.8,0l0.2,0.1l0.2,0.1l0,0.5l-0.2,0.1l-0.1,0.2l0.2,0.1l0,0.5
			l-0.2,0l0,0.3l0.2,0.1l0,0.4l-0.2,0.1l0,0.2l0.2,0.2l-0.1,0.4l-0.2,0.1l0,0.2l0.2,0.1l0,0.5l-0.2,0l0,0.2l0.2,0.1l0,0.5l-0.3,0
			l0,0.2l0.2,0L32,208l-0.4,0l0-0.2l-0.1,0l0,0.2l-0.5,0l0,0.2l0.5,0l0,0.2l0.1,0l0-0.2l1.1,0.1l1.9,2.2l0,0.4l-0.7,7l-1.2-0.1
			c0,0-2.7-0.3-2.9-0.3c-0.1-0.1-0.1-0.2-0.2-0.3c-0.1-0.1-0.4-0.2-0.5-0.3c-0.1-0.1-0.3-0.1-0.3-0.1l-0.1-0.2l-0.2,0l-0.1,0.1
			l-1.5-0.2c-0.1-0.1-0.2-0.1-0.2-0.2c0-0.1,0-0.2,0-0.3c0-0.1,0-0.1-0.1-0.1c-0.1,0-0.1,0.2-0.1,0.4c0,0.2-0.2,0.2-0.2,0.2l-0.1,0
			l-2.6-0.3c0,0-1.3-0.2-1.4-0.2c-0.1-0.1-0.1-0.2-0.1-0.2l-0.3,0l-0.2,0.1c0,0-1.9,0.5-2,0.5c-0.1,0-0.3,0.1-0.4,0.1
			c-0.1,0-0.1-0.2-0.2-0.2c-0.1,0-0.2,0.2-0.2,0.2l-0.3,0.1l0.2,0.1c0.1,0,0,0.2,0.2,0.3s0.3-0.2,0.3-0.2l1.8,1l-0.2,0.1
			c0,0-0.5,0-0.7,0c-0.2,0-0.6-0.1-0.7-0.2c-0.1-0.1-0.2-0.2-0.4-0.2c-0.1,0-0.2,0.1-0.4,0.2c-0.2,0.1-1.1,0.3-1.3,0.4
			c-0.2,0.1-0.8,0.1-0.9,0c-0.2,0-0.5-0.4-0.6-0.5c-0.1-0.1-0.3,0-0.3,0l-0.8-0.1l-0.1-0.2l0-0.2l-0.1-0.1l-0.2,0.4
			c0,0-1.3-0.1-1.6-0.1c-0.3,0-0.3-0.2-0.5-0.3c-0.1-0.1-0.2,0.1-0.3,0.2c-0.1,0.1-0.6,0.2-0.9,0.3c-0.2,0.1-0.2,0-0.4,0
			c-0.2,0-0.1,0-0.3,0c-0.1,0.1-0.2,0-0.2,0.1c0,0.1,0.2,0.1,0.3,0.2c0.1,0.1,0.2-0.1,0.2-0.1l0.9,0.6l-0.1,0.1c0,0-0.9-0.1-1.1-0.1
			c-0.2,0-0.2-0.3-0.4-0.2c-0.2,0-0.3,0.2-0.5,0.2c-0.2,0-0.1-0.1-0.4-0.2c-0.2-0.1-0.6,0-0.8,0.2c-0.2,0.2-0.4,0.2-0.5,0.2
			c-0.1,0-3.1,0.9-3.2,0.9c-0.1,0-0.2-0.1-0.3-0.1c-0.1,0-0.2,0.2-0.4,0.2c-0.2,0-0.3,0-0.5-0.1c-0.2-0.1-0.5,0.1-0.5,0.1l-3.2-0.2
			l0,0.1c0,0,3,0.4,3.2,0.4c0.1,0.1,0.1,0.1,0.2,0.2c0.1,0.1,0.3,0,0.3,0l0.5,0.1c0.1,0.1,0,0.2,0.2,0.3c0.1,0.1,0.2-0.1,0.3-0.1
			c0.1,0,1.3,0.8,1.6,0.9c0.2,0.1,1.2,0.6,1.2,0.6s0.1,0.1,0.1,0.3c0.1,0.2,0.3,0.3,0.3,0.3s0.5,0.1,0.6,0.1c0.2,0,0.4-0.3,0.4-0.3
			l0.9,0.1c0.1,0.1,0.1,0.2,0.3,0.2c0.2,0,0.5,0,0.7-0.1c0.2-0.1,0.3,0,0.4,0.1c0.1,0.1-0.1,0.2-0.2,0.2c-0.1,0.1-0.1,0.2-0.1,0.2
			s-0.4,0-0.5,0c-0.1,0-0.2-0.2-0.4-0.2c-0.2,0-0.3,0.1-0.4,0.2L7.7,223l-0.2-0.1c-0.1-0.1-0.3,0-0.4,0.1c0,0.1,0.1,0.3,0.3,0.3
			c0.1,0,0.2-0.2,0.2-0.2s1.2,0.9,1.4,1c0.2,0,0.2-0.2,0.2-0.2l1.9,0.2l0.4,0.5l0.1,0.1l0.1-0.4l0.1-0.1l0.7,0c0,0-0.1,0.2,0.4,0.3
			c0.5,0.1,0.9-0.4,0.9-0.4l2,0.3l2.1,0.2c0,0,0.1,0.3,0.3,0.4c0.1,0.1,0.2-0.1,0.2-0.1s0.8,0.2,0.9,0.2c0.2,0.1,0.3,0.3,0.3,0.3
			s-0.1,0.1-0.3,0.2c-0.2,0-0.4,0-0.5-0.1c-0.1-0.1-0.1-0.1-0.2-0.2c-0.1-0.1-0.4-0.1-0.5,0.1c-0.1,0.1-1.4,0.4-1.6,0.5
			c-0.2,0.1-1.1,0.2-1.2,0.1c-0.1-0.1-0.5,0-0.6,0.1c-0.1,0.1,0.1,0.3,0.3,0.4c0.2,0.1,0.4-0.2,0.4-0.2s2.1,1.4,2.5,1.5
			c0.3,0.1,0.7-0.2,0.7-0.2l4,0.5l0.1,0.2l0.2,0l0.1,0.4l0.1,0l0.1-0.6l0.2-0.1c0,0,1,0.1,1.9,0.3c0.9,0.1,1.6-0.5,1.6-0.5l4,0.4
			l16.9,1.8l0.1,0.2l0.2-0.1l2.1,0.3l0.2,0c0,0.2,0,0.4,0.1,0.7l-4.9,2l-6.6,3l-0.6,0.3l0,0.4l-4,4.4c0,0-2.6,1.1-2.7,1.1
			c-0.1,0-0.3,0.2-0.3,0.2s0.2,0.5,0.2,0.6c0,0.1,0.2,0.1,0.3,0.1c0.1,0,0-0.2,0-0.2l0.4-0.1l2.4-0.9l1.4,4.3c0,0-0.7,0.3-0.9,0.4
			c-0.2,0.1-3.6,1.5-3.7,1.6c-0.1,0.1-0.4,0.1-0.6,0.1c-0.2,0-0.1,0.1-0.2,0.2c-0.1,0.1-0.1,0.1-0.2,0.2c-0.1,0.1-1.6,0.8-1.9,0.9
			c-0.3,0.1-3.5,1.6-3.8,1.7c-0.3,0.1-3.6,1.7-3.9,1.8c-0.2,0.1-3.5,1.6-3.8,1.7c-0.3,0.1-0.8,0.1-1.1,0.2c-0.3,0.1-0.4,0-0.7,0
			c-0.3,0-0.3,0.2-0.4,0.3c-0.1,0.1-0.4,0.6-0.5,0.7c-0.1,0.2-0.8,0.8-1.1,1c-0.3,0.2-2.5,2.1-2.7,2.3c-0.2,0.2-2,1.7-2.2,1.8
			c-0.2,0.1-0.2,0.3-0.3,0.4c-0.1,0.1-0.1,0-0.3,0c-0.2,0-0.3,0-0.4,0.1c-0.1,0.1-0.1,0.2-0.1,0.2c-0.1,0.1-0.1,0-0.3,0.1
			c-0.2,0.1-0.2-0.1-0.4,0c-0.2,0.1-0.1,0.3-0.2,0.4c-0.1,0.1-0.6,0.3-0.7,0.3c-0.1,0-0.2,0-0.3,0c-0.1,0-0.1,0.2-0.1,0.2l-0.5,0.3
			l-0.6,0.3l0,0.1c0,0,0.2-0.2,0.5-0.3c0.3-0.1,0.7-0.2,0.8-0.2c0.1,0.1,0.2,0,0.3-0.1c0.1-0.1,0.1-0.2,0.3-0.3
			c0.2-0.1,0.3-0.1,0.4-0.1c0.1,0,0.1,0.1,0.2,0.1c0.2,0,0.2,0,0.2-0.2c0-0.1,0.1-0.2,0.2-0.2c0.1,0,0.2,0.1,0.3,0.1
			c0.1,0,0.3-0.2,0.5-0.3c0.2-0.1,4.2-0.8,4.6-0.9c0.3-0.1,3.9-0.6,3.9-0.6s0.3,0.2,0.6,0.3c0.3,0.1,0.6-0.1,0.8-0.2
			c0.3-0.1,0.5-0.6,0.5-0.8c0.1-0.1,1.7-1.1,1.7-1.1l5.3-1.9l0.1,0.7c0,0-0.7,1-0.8,1.1c-0.1,0.1-0.1,0-0.2-0.1
			c-0.1-0.1-0.4,0-0.5,0.1c-0.1,0.1,0,0.3,0.1,0.4c0.2,0.1,0.2,0.2,0.2,0.2s-0.8,1.1-1,1.2c-0.2,0.1-0.2-0.2-0.4-0.2
			c-0.2,0-0.3,0.1-0.3,0.3c0,0.2,0.2,0.1,0.3,0.2c0.1,0.1,0.1,0.2,0.1,0.2s-0.7,0.9-0.9,1c-0.1,0.1-0.1,0-0.3-0.1
			c-0.2-0.1-0.4,0.1-0.4,0.1c-0.1,0.1-0.1,0.2,0.1,0.4c0.2,0.1,0.2,0.3,0.2,0.3s-0.2,0.2-0.4,0.5c-0.2,0.3-0.4,0.2-0.5,0.3
			c-0.1,0-0.2-0.2-0.4-0.3c-0.1-0.1-0.3,0.2-0.3,0.2c0,0,0,0.3,0.2,0.3c0.2,0,0.3,0.4,0.3,0.4s-0.4,0.6-0.5,0.7
			c-0.1,0.1-0.3,0.3-0.5,0.4c-0.2,0-0.2-0.2-0.4-0.2c-0.2,0-0.2,0.1-0.2,0.4c0,0.2,0.3,0.3,0.3,0.3s-0.6,0.8-0.8,0.9
			c-0.2,0.2-0.1,0.2-0.2,0.2c-0.1,0-0.1-0.2-0.3-0.3c-0.2-0.1-0.3,0.1-0.3,0.2c-0.1,0.1,0,0.2,0.2,0.2c0.2,0,0.3,0.3,0.3,0.3
			s-0.7,1-0.8,1.2c-0.1,0.1-0.2-0.2-0.3-0.3c-0.1-0.1-0.2,0-0.3,0c-0.1,0-0.2,0-0.1,0.2c0.1,0.2,0.3,0.2,0.3,0.2l0.1,0.3
			c0,0-0.7,0.8-0.8,0.9c-0.1,0.1-0.1,0.1-0.2,0.1c-0.1,0-0.2-0.2-0.3-0.3c-0.1-0.1-0.4,0.1-0.3,0.3c0.1,0.2,0.1,0.2,0.3,0.3
			c0.2,0.1,0.2,0.2,0.2,0.2s-0.6,0.7-0.7,0.8c-0.1,0.1-0.2-0.2-0.3-0.3c-0.1-0.1-0.3,0-0.4,0.1c-0.1,0.1-0.1,0.2,0.1,0.4
			c0.2,0.1,0.2,0.3,0.2,0.3l-0.6,0.7c0,0-0.3,0.1-0.4,0.1c-0.2,0.1-0.2-0.1-0.3-0.1c-0.1,0-0.1,0.1-0.2,0.2c-0.1,0-0.2,0.1-0.3,0
			c-0.1-0.1-0.2-0.4-0.4-0.4c-0.2,0-0.2,0.3-0.2,0.6c0,0.3-0.1,0.3-0.2,0.4c-0.1,0-0.3-0.2-0.4-0.1c-0.1,0.1,0.1,0.2,0,0.2
			c-0.1,0-0.3,0.2-0.3,0.4c0,0.2,0.3,0,0.4,0.1c0.1,0.1,0,0.2,0.2,0.2c0.1,0.1,0.2-0.3,0.3-0.3c0.1,0,0.3,0,0.4,0.2
			c0.1,0.1,0.3,0.2,0.4,0.2c0.1,0,0.1-0.2,0.1-0.3c-0.1-0.2,0-0.4,0-0.4l0.3-0.1l0.3,0.2l0.3-0.1l0-0.2l0.4-0.1c0,0,0.7,0.2,0.8,0.2
			s0,0.2-0.1,0.3c-0.1,0.2,0,0.3,0.2,0.4c0.2,0.2,0.4-0.2,0.4-0.4c0-0.2,0.1-0.1,0.1-0.1s1,0.4,1.1,0.5c0.1,0.2-0.1,0.2-0.1,0.4
			c0.1,0.2,0.3,0.1,0.4,0.1c0.1-0.1,0.1-0.3,0.1-0.4c0-0.1,0.2-0.1,0.2-0.1s1,0.4,1.2,0.5c0.1,0.1-0.1,0.2-0.1,0.3
			c0,0.1,0.1,0.3,0.3,0.3c0.1,0,0.2,0,0.2-0.2c0-0.2,0-0.3,0-0.3l0.2-0.1l1.1,0.4c0,0,0.1,0.2,0.1,0.3c0,0.1-0.1,0.2-0.1,0.4
			c0.1,0.3,0.4,0.1,0.5,0c0.1-0.1,0-0.3,0-0.3l0-0.2c0,0,1.2,0.3,1.3,0.4c0.1,0,0.1,0.2,0,0.3s0,0.2,0.2,0.3c0.2,0.1,0.3,0,0.3-0.2
			c0-0.2,0.1-0.2,0.1-0.2s1.1,0.4,1.2,0.5c0.1,0.1,0,0.2-0.1,0.3c0,0.1,0,0.2,0.2,0.3c0.2,0.1,0.4-0.1,0.3-0.3
			c-0.1-0.2,0.1-0.3,0.1-0.3s1.2,0.4,1.4,0.5s-0.1,0.3,0.1,0.5c0.2,0.2,0.3,0.1,0.4,0c0.1-0.1,0.1-0.3,0.1-0.3s1.3,0.4,1.3,0.5
			c0.1,0.1-0.1,0.2-0.1,0.3c0,0.1,0.2,0.3,0.4,0.3c0.2,0,0.3-0.3,0.3-0.4s0.2-0.1,0.2-0.1l1.3,0.5c0,0,0.1,0,0.1,0.2
			c0,0.1,0,0.3,0,0.4c0.1,0.1,0.4,0.1,0.4-0.1c0-0.2,0.1-0.3,0.1-0.3l1.4,0.4l0.7,2.2l-1.2,0.3l-5.8,1.5l-0.6-0.2l-0.5,0.2l-0.1-0.2
			l-0.2,0.1l-0.1-0.2l-1.5,0.6l-0.4,0.6l-1.3,0.4l-0.2-0.2l-0.2-0.4l-0.2,0.2l-0.2,1.2l-0.2,0.2l-4.8,2.4c0,0-0.4,0.3-0.5,0.3
			c-0.1,0-0.3,0.1-0.3,0.2l-0.1,0.1c0,0-0.2,0-0.3,0c-0.1,0-0.2-0.1-0.2-0.1c-0.1-0.1-0.2,0.1-0.2,0.3c0,0.1-0.1,0.1-0.2,0.1
			c-0.1,0-0.4-0.2-0.4-0.2c-0.1,0-0.3,0.2-0.3,0.2s-0.6,0.2-0.7,0.2c-0.1,0-0.2,0-0.3,0c-0.1,0-0.2,0.2-0.2,0.2l-1,0.3l0,0.1
			c0,0,0.9-0.2,1-0.2c0.1,0,0.2,0.1,0.3,0.1c0.2,0,0.2-0.1,0.2-0.1s0.3-0.1,0.7-0.1c0.4,0,0.2,0.1,0.5,0.1c0.3,0,0.3-0.3,0.5-0.3
			c0.2,0,0.1,0.1,0.2,0.1c0.2,0.1,0.2-0.1,0.2-0.2c0,0,0.4,0.1,0.5,0.1c0.1,0.1,0.4-0.1,0.4-0.1l6.1,0.9l1.4,1.3l0.2-0.1l0.1-0.5
			l1.4-0.5l0.4,0.4c0,0,0.1,0,0.3-0.1c0.2,0,0.2-0.3,0.2-0.3l0.2-0.1l0.1-0.1l0.5-0.2l0.5-0.5l0.5-0.2l5.2-1l4.8-1.1l4.7-1l0.2,0.1
			l0.7,2.2c0,0-2.2,0.7-2.5,0.6c-0.2,0-0.3,0.3-0.2,0.5c0,0.2,0.1,0.3,0.1,0.3s0.1-0.1,0.2,0c0.1,0.1,1.3-0.3,1.3-0.3s0,0.1,0.1,0.2
			s0.7-0.1,0.7-0.1s0,0,0.1,0.2c0.1,0.1,0.6-0.1,0.6-0.1s0.2,0.2,0.4,0.3c0.2,0.1,0.4-0.2,0.4-0.2s0.2,0.1,0.4,0.3
			c0.2,0.2,0.7-0.1,0.7-0.1s0.1,0.1,0.3,0.3c0.2,0.2,0.7-0.1,0.7-0.1s0.2,0.1,0.4,0.3c0.2,0.1,0.6-0.2,0.6-0.2s0,0.1,0.2,0.2
			c0.2,0.1,0.7-0.1,0.7-0.1s0.1,0,0.1,0.1c0,0.1,0.4,0.2,0.4,0.2l2-0.5l10.1-1.8c0.5,0.5,1.1,1.2,1.1,1.2s1.7,1.9,1.9,2.1
			c0.2,0.2,1,1.1,1.1,1.2c0.1,0.1,0.3,0.4,0.3,0.5s0.4,0.8,0.4,0.8l0.2,0h0.2l0.3,0.3l-0.1,0.1l0.1,0.1c0,0.1-1,3.5-1,3.6
			c0,0.1-1,3.4-1,3.5c0,0.1-1,3.5-1.1,3.7c0,0.1-0.9,3.1-0.9,3.2c0,0.1-0.3,1.1-0.3,1.1l-0.2,0l-0.9,1.3l-0.4,0.4l-0.2,0.9
			c0,0,0.1-0.1,0.2-0.1c0.1-0.1,0.9-0.7,0.9-0.7s5.9,1.9,6.2,2c0.2,0.1,4.3,1.4,4.6,1.5c0.2,0.1,7.1,2.4,7.3,2.4
			c0.2,0.1,7.1,2.5,7.2,2.5c0.2,0.1,3.3,1.1,3.4,1.2c0.1,0.1,1.3,0.5,1.3,0.5s2.6,2.6,2.8,2.8c0.2,0.2,1.6,1.6,1.7,1.7
			c0.1,0.1,0.1,0.2,0.3,0.3c0.2,0.1,0.7,0.6,0.7,0.6l0.1,0.1c-1.6,2-3.7,4.5-3.9,4.7c-0.3,0.3-0.6,0.1-0.9,0
			c-0.3-0.1-1.9-1.2-2.1-1.2c-0.2,0-0.5,0.5-0.6,0.7c-0.1,0.2,0.6,0.7,0.7,0.8c0.1,0.1-0.5,0.9-0.5,0.9l0,0.4l-1,1.2l0.7,0l0.7-0.8
			l-0.4-0.2l0.2-0.2l1.1,0.9l-1,1.2l-5.7,7.1l-7,8.6c0,0,0,0.1-1.2-0.4c-1.2-0.5-2.7,0.2-3.4,0.4c-1.3,0.4-2.7,1.4-2.9,1.6
			c-0.2,0.2-0.6,0.7-0.2,1.6c0.5,0.9,2.5,2.7,2.5,3c0,0.4-0.4,0.7-0.7,0.8c-0.3,0.1-1-0.2-1.2,0c-0.2,0.2-0.5,0.8-0.5,1.3
			c0,0.5,0.6,1.1,0.6,1.1l-0.7,0.8c0,0-0.1,0,0,0.2c0.1,0.2,0.6,0.5,0.6,0.5l-5.5,6.6l-5.6,7c-0.5-0.1-0.9,0-0.9,0s-1,1-1.1,1.6
			c-0.1,0.5,0.3,0.8,0.3,0.8l-1.2,1.2l-0.2-0.2l0.4-0.5l-0.4-0.2l-1.7,2l0.1,0.3l0.4,0l0.4,0.5l-1.8,2.4l0.2,0.2l2.1-2.3
			c0,0,0,0,0.6,0.2c0.7,0.1,1.3-0.2,1.4-0.5c0.1-0.3-0.1-0.3-0.1-0.3s0.3-0.2,0.6-0.5c0.3-0.3-0.2-1.1-0.2-1.1l0.1-0.1
			c0,0,0.1-0.1,0.3-0.1c0.2,0,0.8-0.1,0.8-0.1s1-1.1,1.1-1.4c0.2-0.3-0.2-0.9-0.2-0.9l11.5-14.2c0,0,0.1,0.1,0.2,0.2
			c0.1,0.1,1.3,0.4,1.9,0.2c0.7-0.1,1.1-0.5,1.4-1c0.3-0.4-0.4-0.9-0.4-0.9l0.7-0.8c0,0,1.3,0.8,2.2,0.8c0.8,0.1,1.7,0,2.3-0.7
			c0.3-0.4,1.2-3.2,1.4-4.2s-0.9-2.1-0.9-2.1l14-16.8l0.2,0l0.6-0.7c0,0,0.8,0.7,1.1,0.7c0.3,0.1,0.4-0.2,0.4-0.2l0-0.2
			c0,0,0.1-0.2,0.3-0.3c0.1-0.2,0.1-0.3,0.1-0.3l-0.6-0.7l0-0.4l-0.2-0.2l5.8-6.9l0-0.1c2.7,2.2,5.5,4.3,8.4,6.3l-0.6,1.8l-1.3,3.7
			l-2,6l-1.7,4.9l-0.1,0l0,0.1l4.7,1.6l3.8,2.7l3.7-0.2l3.4,1.1l5.2-1.6l11.1,3.7l-0.1,0.4l0.2,0.1l-0.9,2.5l0.2,1.9l-0.9,2.5
			c0,0,0.6,0.2,1.1,0.4c0,0.2-0.3,1.7-0.2,3.7c-1.2-0.1-1.8,0.3-1.8,0.3l-0.6,1.7c0.2,1,3,1.9,3,1.9s-0.3,0.9-0.3,1
			c0,0.1,1.2,1.2,1.2,1.2l1.4,2.3l-0.2,0.5l1.2,0.4l0.2,0.3l0.5,0.2l0.1-0.2l1.2,0.4l0.2-0.5l2.4-1.1c0,0,1.4-0.2,1.7-0.2
			c0.3-0.1,0.2-0.9,0.2-0.9l0.2-0.3c-0.1-0.1,0,0,0,0l0,0c0.1,0,0.4,0.1,1.2,0.4c1.7,0.5,2.4,0,2.4,0s0,0,0.4-1.1
			c0.3-1-0.9-1.6-1.1-2c0.3-0.2,2.1-3,2.1-3l1,0.3l0.8-2.4l1.3-1.6l0.9-2.5l0.2,0.1l0.1-0.4L166,368l3.1,4.5l3.7,1.3l2.5,2.2
			l4.3,0.1l5,1.7l0.1-0.2l-0.1,0l0.3-1l0.1,0l6.5-17.6c0.6,0,1.2,0,1.8,0c1.1,2.8,2.7,7.2,2.7,7.4c0.1,0.2,1.6,4.4,1.8,4.8
			c0.2,0.4,0.4,1.5,0.4,1.6c0,0.2-0.1,0.3-0.1,0.3l0.6-0.1l4.1,1.3l4.9-3.3l1-1l0.5,1.4l0.9,0.7l0.5,1.5l-0.1,0.1l0,0.1l-0.2,0.1
			l0.1,0l0,0l-0.1,0.1l0.1,0.2l0.3,0.1l0.6,1.7l-0.1,0.1l0.5,0.6l0.1,0.1l0.2,0l0.4,1.2l-0.1,0.1l0.1,0.1l0.1,0.1l-0.1,0.1l0.1,0.1
			l0.2-0.1l0.1,0.2l-0.1,0.1l0,0.1l0.2-0.1l0.1,0.2l-0.1,0.1l0,0.1l0.2,0l0.1,0.2l-0.1,0.1l0.1,0.1l0.2,0l0,0.1l-0.1,0l0,0l0.1,0
			l0.1,0.1l-0.2,0.1l0.1,0.2l0.2,0l0.1,0.2l0,0l0.1,0.1l0.1,0l0.1,0.1l0.1,0l0-0.1l0,0l0-0.1l-0.1,0l0-0.3l0.2-0.1l-0.1-0.2l-0.2,0
			l-0.1-0.2l-0.1-0.2l0.2-0.1l0-0.2l-0.1,0l-0.1-0.2l0.1-0.1l-0.1-0.1l-0.1,0l0-0.2l0.1,0l-0.1-0.1l-0.1,0l0-0.2l0.1-0.1l0-0.1
			l-0.1,0l0-0.2l-0.1,0l-0.1-0.1l-0.3-1c0,0,0.3-0.3,0.4-0.3c0.1,0,0.1,0,0.2,0.1l0,0.2l0.1,0.2l0.1-0.2c0,0,0.4,0.4,0.5,0.5
			c0,0.1,0,0.1,0,0.2l0.2,0.1l0.1-0.1l0.5,0.4l0,0.2l0.2,0.2l0.1-0.2l0.4,0.5l0,0.2l0.2,0.2l0.2-0.2l0.3,0.2c0,0,0,0,0.1,0.1
			c0.1,0.1,0,0.1,0,0.2l0,0.2l0.2,0.1l0.1-0.2l0.1,0c0,0,0.3,0.3,0.3,0.4c0.1,0.1,0,0.1,0,0.1l0.1,0.2l0.1,0.1l0.1-0.2l0.2,0.5
			l0.7,2.1l0.5,1.5l-0.1,0.2l0.1,0l0.1,0.3l0.7,2l0.6,1.8l0,0.2l0,0l0,0.1l0.2,0l0.4,1.2l0,0.1c0,0,0.6,1.7,0.6,1.9
			c0,0.1,0,0.1-0.1,0.2l-0.2,0.3c0,0.1,0,0.1,0.2,0.1c0.2,0,0.8,0.3,0.9,0.4s1.8,1.5,1.9,1.6c0.1,0.1,1.7,1.4,1.8,1.5
			c0.1,0.1,1,0.9,1.1,0.9l0.1,0.2c0,0.1-0.1,0.1-0.1,0.2c0,0.1,0.1,0.1,0.2,0.1l0.1,0.1l0,0.2l0.2,0.1l0.5,1.6l0,0.1l0.1,0l0-0.1
			c0,0-0.4-1.2-0.5-1.5c-0.1-0.2,0-0.2,0-0.3c0-0.1-0.1-0.1-0.1-0.1l0-0.1c0-0.1,0.1-0.1,0.1-0.2c0-0.1-0.2-0.1-0.2-0.1s0-0.1,0-0.2
			c0-0.1,0-0.3,0-0.4c0-0.1,0.2-1.4,0.3-1.6c0-0.2,0.5-3.2,0.5-3.4c0-0.2,0.3-1.8,0.4-1.9c0-0.1,0.4-0.6,0.4-0.7l-0.3,0l0-0.1
			l-0.1,0c0,0-0.6-1.8-0.6-1.9c0-0.1-0.2-0.1-0.2-0.1s-0.3-0.9-0.3-1c0-0.1,0-0.2,0-0.2l0.1-0.2l-0.1-0.1l-0.1,0l-0.6-1.7l-0.4-1.2
			l0.1,0l2.1,1.5l2.8,1.9l0.1,0.2l0.1,0l0.1,0.2l0.1,0l0.1,0.1l0,0.1l-0.1,0l-0.1-0.1l-0.1,0l0.2,0.5l0,0l0.1-0.1l0.1,0l0.1,0.1
			l-0.1,0.2l0.1,0l0.5-0.1l0-0.1l-0.1-0.1l0,0l0.2,0.1l0,0l-0.2-0.5l-0.1,0.1l-0.2-0.1l0.1-0.2l-0.1-0.2l0-0.1l-0.1-0.3l0.3-0.3
			l0.6-0.9l1.6-2.1l1.4-1.9l1-1.4l0.1,0l0.1,0.4l0.5,1.8l0,0.2l0,0.1l0.2,0l0.4,1.4l1,3.3l-0.1,0.2l0,0.1l-0.1,0.1l0,0.1l0.2,0
			c0.1,0,0.4,1.2,0.4,1.3c0,0.1-0.1,0.1-0.1,0.2l0.7,2.1l-0.3,0.5l0,0.1c0.3,0,1,0.5,1.2,0.6c0.2,0.1,2.9,2.7,3,2.7l1.6,1.5l0.1,0.2
			c0,0.1-0.1,0.1-0.1,0.2c0,0.1,0.2,0.1,0.2,0.1l0.1,0.2l-0.1,0.1l0.1,0.1l0.5,1.8l0.1,0.1l0.1-0.1l-0.1-0.1l-0.5-1.7l0.1-0.1
			l-0.1-0.1c-0.1,0,0-0.1-0.1-0.2c0-0.1,0.1-0.1,0.1-0.2c0-0.1-0.1-0.1-0.2-0.2l-0.1-0.2c0-0.1,0.1-0.4,0.1-0.5
			c0-0.1,0.2-1.5,0.3-1.7c0-0.2,0.3-1.9,0.4-2.1c0-0.2,0.6-3,0.6-3.2c0-0.2,0.3-0.8,0.3-0.8l0.1-0.3c0,0-0.1-0.1-0.3-0.1
			c-0.2,0-0.1,0-0.2-0.1c-0.1-0.1-0.5-1.7-0.5-1.9c0-0.2-0.2-0.2-0.2-0.2c0,0-0.3-1-0.4-1.2c0-0.1,0.1-0.2,0.2-0.3
			c0-0.1-0.2-0.1-0.3-0.2c0,0-1.3-4.4-1.3-4.5c0-0.1,0-0.1,0.1-0.2c0-0.1-0.2-0.1-0.2-0.1c-0.1,0-0.4-1.3-0.4-1.4
			c0-0.1-0.1-0.4-0.2-0.4l0-0.1l1.5-0.2c0,0,0.2,0.4,0.3,0.4c0.1,0,0.2,0,0.3,0.1c0.1,0,0.3,0.4,0.3,0.4l1.7,2.6l0.2,0.4l-0.1,0.2
			l0.2,0.1l0,0.1l0.1,0.1l0.3,0.9l0.1,0.4l0.1,0l0-0.1l-0.4-1.2l0-0.2l-0.1-0.1l0-0.2l-0.1-0.2l0-0.3c0-0.1,0.1-1.5,0.1-1.6
			c0-0.1,0.1-1.8,0.1-2c0-0.2,0.3-0.2,0.3-0.2l0-0.4c0,0,0.9-0.1,1-0.2c0.1,0,4.3-0.8,4.5-0.8c0.1,0,4-0.7,4-0.7l0.2,0.4
			c0,0,0.2,0,0.4,0.1c0.2,0.1,0.3,0.4,0.4,0.5c0.1,0.1,1.7,2.6,1.7,2.7c0.3,0.4,0.3,0.5,0.2,0.6l0,0.2l0.1,0.1l0,0.1l-0.1,0.1
			l0.1,0.1c0,0,0.3,1.2,0.4,1.3c0,0.1,0,0.1,0,0.1l0.1,0l0-0.1c0,0-0.2-0.9-0.3-1.2c-0.1-0.2,0-0.2,0-0.3l-0.1-0.1l0-0.1l0-0.1
			c0-0.1-0.1-0.2-0.1-0.2c0-0.1,0-0.4,0-0.5c0-0.1,0.1-2,0.1-2.1c0-0.2,0.1-1.4,0.2-1.5c0.1-0.1,0.3-0.2,0.3-0.2l-0.1-0.4l0.1,0
			l0.1,0.1l0,0.1l0,0.1l0.2,0l0.1,0l0.1,0.3l0,0l0.2,0.2l0.1-0.2l0,0l0-0.3l0.1-0.2l0.2-0.1l0.1,0.1l0.2,0.2l0.2,0.6l-0.1,0.1
			l0.1,0.1c0,0,0.1,0.2,0.1,0.4c0,0.1-0.3,0.1-0.4,0.2l0,0.1l0.1,0l0,0.1l0,0l0.1,0.1l0.4-0.1l0.1,0.1l0,0.2l0,0.2l0.2,0l0.1,0.3
			l0,0.1l0.2,0.1l0.1-0.1l-0.1-0.1l-0.1-0.3l0.1-0.1l0.1-0.2l0-0.1l-0.2,0l0-0.2l0.1,0l0.2,0l0.2-0.1l0,0l-0.1,0l0,0l0,0l0-0.1
			c-0.1,0-0.1,0-0.2,0c-0.1,0-0.1,0-0.2-0.1c-0.1-0.1-0.1-0.2-0.1-0.3c0-0.1,0.1-0.2,0.1-0.2l-0.1,0c-0.1,0,0-0.1-0.1-0.2
			c0-0.1-0.1-0.4-0.1-0.5s0-0.2,0-0.3c0-0.1-0.5-3-0.5-3.2c0-0.1-0.7-4.7-0.7-4.7l0-0.3l0.3,1.2l-0.1,0c0,0,0.1,0.3,0.1,0.4
			c0,0.1,0.1,0.2,0.2,0.3c0.1,0.1,0.1,0,0.2,0.1c0.1,0.1,0,0.1-0.1,0.2c0,0.1,0.1,0,0.2,0.1c0.1,0,0,0.1,0,0.2
			c0,0.1-0.1,0.1-0.1,0.1l0.2,0l0,0.1l0,0.1l0.1,0.1l-0.1,0.1l0,0.1l0.1,0.1l0.2,0l0.1,0.3l0.1,0.1l0-0.2l0-0.2l0.1-0.2l-0.1-0.2
			l-0.1-0.2l0-0.1l0-0.1l0.1-0.2l0-0.1l-0.1,0l0.1-0.3l0-0.1c0,0-0.1,0-0.2-0.1c0-0.1,0.1,0,0.1-0.1c0-0.1-0.1-1-0.1-1l-0.1,0
			l-0.3-1.2l0.4-0.1l-0.1-1.2l-0.2,0l-0.8-3.2l1.9-0.5l-0.2-1.5l-0.1,0l-0.9-3.4l0.3-1.1l-0.7-2.7l0.2,0l3.9-1.1l0.3-3.2l0.1-2.1
			l-1.7-5.7c3.6-2.1,7-4.4,10.3-6.8c1.5,1.6,4,4.3,4,4.3s1,1.1,1.2,1.3c0.2,0.2,0.5,0.4,0.8,0.4c0.3,0,0.7-0.3,1.1-0.6
			c0.4-0.3,1.3-1,1.6-1.1c0.2,0,0.4,0.3,0.5,0.4c0.1,0.1,0.4,0,0.6-0.1c0.2-0.1,0.2-0.1,0.4-0.3c0.2-0.1,0.1,0,0.4,0
			c0.3,0,1.2,0,1.6,0c0.4,0,1.5-0.4,1.8-0.3c0.2,0,0.8,0.3,0.8,0.5s0.3,0.3,0.5,0.4c0.2,0.1,0.9,0.8,1.1,1c0.2,0.2,0.1,0.4,0.2,0.6
			c0.1,0.2,0.6,0.8,0.7,1s0.1,0.4,0.2,0.6c0,0.2,0.2,0.3,0.4,0.4c0.1,0.2,0.2,0.5,0.3,0.7c0.1,0.2,0.5,0.9,0.7,1
			c0.2,0.2,0.3,0.1,0.5,0.4c0.2,0.2,0.5,0.3,0.7,0.5c0.3,0.2,0.4,0.7,0.5,0.8c0.1,0.2,0.3,0.2,0.5,0.4c0.2,0.2,0.3,0.3,0.4,0.5
			c0.1,0.3,0.1,0.2,0.2,0.3c0.1,0.1,0.6,0.8,0.8,1.1c0.3,0.2,0.4,0.4,0.5,0.6c0.1,0.2,0.4,0.6,0.6,0.9c0.2,0.3,0.5,0.8,0.5,0.9
			c0,0.1,0,0.5,0,0.6c-0.1,0.1-0.1,0.2-0.1,0.3c0,0.1-0.4,0.4-0.4,0.5c-0.1,0.2,0.2,0.4,0.4,0.5c0.2,0.1,0,0.1,0.1,0.2
			c0.1,0.1,0.1,0.2,0.2,0.3s0.7,0.3,0.8,0.5c0.1,0.1,0,0.1,0,0.2c0,0.1,0.7,0.7,0.9,0.9c0.2,0.2,0.6,0.9,0.8,1.1
			c0.2,0.3,0.9,1.4,0.9,1.5c0.1,0.2-0.1,0.2,0,0.3c0,0.1,0,0.1-0.1,0.2c-0.1,0.1-0.1,0.2-0.1,0.4c0,0.1,0.2,0.2,0.4,0.3
			c0.2,0.1,0.2,0.1,0.4,0.1c0.2,0.1,0.9,1,1.1,1.2c0.2,0.2,0.4,0.5,0.4,0.7c0,0.2-0.4,1.1-0.5,1.4c-0.1,0.3-0.7,1.8-0.8,2.1
			c-0.1,0.3-0.4,0.8-0.6,1.2c-0.2,0.4-0.4,1.3-0.4,1.5c0,0.2-0.1,0.7-0.1,0.9c0,0.2,0.2,0.3,0.4,0.4c0.1,0.1,1.3,0.4,1.8,0.5
			c0.4,0.1,0.9,0.2,1,0.3c0.1,0.1,0.1,0.3,0.5,0.4c0.3,0.1,0.7,0,1.1-0.2c0.3-0.1,1.9,0,2.4,0c0.5,0,0.8,0.2,1,0.2
			c0.2,0,0.4,0,0.6,0.1c0.2,0.1,0.3,0.1,0.4,0.2c0.1,0,0.1,0.2,0.2,0.2c0.2,0,0.5-0.1,0.7-0.1c0.2,0,0.5-0.3,0.7-0.4
			c0.2-0.1,0.8,0,1.1-0.1c0.3-0.1,1.1-0.2,1.4-0.1c0.4,0.1,1,0.9,1.2,1c0.2,0.2,0.3,0.4,0.3,0.6c0,0.2,0.2,0.5,0.2,0.6
			c0,0.1-0.1,0.1-0.1,0.3c0,0.2,0.1,0.1,0.2,0.4c0,0.3,0.1,0.8,0.4,1s0.6,0.2,0.7,0.2s0.5,0.8,0.6,0.9c0.2,0.2,0.2,0.2,0.4,0.3
			c0.2,0.1,0.6,0.6,0.7,0.7c0.1,0.1,0.8,0.3,0.9,0.3c0.2,0,0.1,0.1,0.5,0.2c0.3,0.1,0.9-0.3,1.1-0.6c0.2-0.3,0.5-0.9,0.5-1.2
			c0-0.3,0.1-0.7,0.2-0.9c0-0.2,0.2-0.6,0.2-1.1c0-1.1-0.8-2-0.9-2.2c-0.2-0.2-0.2-0.3-0.2-0.4c0-0.1,0-0.3-0.4-0.7
			c-0.4-0.4-1.2-0.3-1.4-0.3c-0.2,0-0.2,0.3-0.5,0.4c-0.3,0.1-1.2-0.9-1.6-1.3c-0.3-0.4-0.2-1-0.1-1.4c0.1-0.4,0.4-0.7,0.6-1.1
			c0.2-0.3,0.2-0.4,0.2-0.7c0.1-0.3,0.3-0.9,0.4-1.2c0.1-0.3-0.1-1-0.1-1.2c0-0.2-0.1-0.2-0.1-0.4c0-0.2,0.1-0.2,0.1-0.5
			c0-0.2,0.1-1.2,0.1-1.4c0-0.2,0.1-1.2,0.2-1.2c0.1-0.1,0.2-1.6,0.3-2.3c0.1-0.7-0.2-1.4-0.3-1.5c-0.1-0.1-0.2-0.1-0.2-0.1
			c-0.1,0-0.1-0.1-0.2-0.2c-0.1-0.1,0-0.2,0.1-0.3c0-0.1-0.3-0.2-0.5-0.2c-0.2,0-0.3,0.2-0.5,0.3c-0.1,0.1,0,0.2-0.2,0.2
			c-0.1,0-0.6,0-0.8,0c-0.2,0-0.2-0.1-0.5-0.1c-0.2,0-1.7,0.3-2.1,0.4c-0.4,0.1-1.6,0.3-1.9,0.4c-0.3,0.1-0.6,0.1-0.8,0.1
			c-0.2,0-0.5-0.7-0.6-0.8c-0.1-0.1-0.3-0.5-0.4-0.7c-0.1-0.2-0.2,0-0.2,0c0-0.1,0-0.1-0.1-0.4c-0.1-0.3,0-0.4,0-0.7
			c0-0.2-0.2-0.3-0.1-0.4c0.1-0.1-0.1-0.2-0.2-0.3c-0.1-0.1-0.2,0.1-0.4,0.2c-0.1,0.1-0.3,0.3-0.4,0.6s-0.2,0.3-0.4,0.3
			c-0.2,0-0.4-0.4-0.6-0.6c-0.2-0.2-1.2-1.6-1.4-1.7c-0.2-0.2-0.3-0.2-0.4-0.4c-0.1-0.2-0.4-0.3-0.6-0.5c-0.2-0.2-1.6-2-2-2.4
			c-0.4-0.4-0.5-0.3-0.8-0.3c-0.3,0-0.2,0-0.4-0.2c-0.2-0.2-0.4-0.1-0.5-0.2c-0.2-0.1-0.3-0.4-0.7-0.6c-0.4-0.2-0.3-0.3-0.5-0.5
			c-0.1-0.2,0-0.2-0.4-0.4c-0.3-0.2-0.3-0.4-0.5-0.7c-0.2-0.3-0.5-1.1-0.5-1.4c-0.1-0.2-0.5-1.1-0.6-1.2c-0.1-0.1,0.1-0.3-0.2-0.4
			c-0.2-0.2-0.2-0.5-0.3-0.8c-0.1-0.2-0.4-1-0.6-1.3c-0.2-0.3-0.3-0.3-0.5-0.6c-0.2-0.3-0.2-0.5-0.3-0.6c-0.1-0.2-0.2-0.1-0.3-0.2
			c-0.1,0,0,0-0.4-0.4c-0.4-0.4-0.3-0.3-0.4-0.7c-0.1-0.4-0.3-0.5-0.5-0.8c-0.2-0.3-0.3-0.3-0.7-0.7c-0.4-0.5-0.3-0.3-0.4-0.7
			c-0.1-0.4-0.1-1.6,0-2.4c0.1-0.8,0.1-0.3,0.1-0.7c0-0.3,0.6-0.9,0.9-1.2c0.3-0.2,0.1-0.2,0-0.4c-0.1-0.3-0.2-0.2-0.2-0.4
			c0-0.2-0.2-0.3-0.3-0.6c-0.1-0.3,0.2-0.2,0.3-0.4s0.4-0.4,0.7-0.8c0.2-0.3,0.6-0.6,0.7-1c0-0.4-0.6-1.2-0.9-1.5
			c-0.3-0.2-0.7-1-1.4-1.9c-0.1-0.1-0.3-0.3-0.5-0.6l4.6,2.6l6.5-0.5l5.2-10.2l0.9-1.5l-0.4-0.2l-0.3,0l-0.8-1.3l5.7-4l1.1,0.4
			l0.6,0l1.2,0.7l7.6,4.4l0.5,0.3l0,0.2l0.3,0.2l0.2-0.2l0.1,0.1l0,0.2l0.4,0.2l-0.2,0.4c0,0,0.2,0.1,0.3,0.2
			c0.1,0.1,0.1,0.2,0.2,0.3c0.1,0.1,0.1,0.1,0.3,0.1c0.2,0,0.6,0.3,0.9,0.5c0.3,0.2,0.2,0.2,0.2,0.3l0.3,0.1c0.1-0.1,0-0.1,0.3,0
			c0.3,0.1,3.2,1.7,3.3,1.8c0.1,0.1,0.3,0.4,0.5,0.1c0.2-0.3-0.4-0.3-0.4-0.4c0-0.1-2.9-1.7-2.9-1.9c-0.1-0.1-0.1-0.3-0.1-0.3
			l0.4-0.5l1.6,0.2l0.2,0.3c0,0,0.5,0.3,0.7,0.5c0.2,0.1,0.6,0.4,0.6,0.6c0,0.1,0.1,0.2,0.3,0.2c0.1,0.1,0.3-0.2,0.3-0.2l0.3,0.1
			l3.2,1.8l0.2,0.3l0.3,0.2l0.2,0l0.3,0.2l0,0.3l0.1,0.2l0.1,0.1l0.3-0.1l0.5-0.2l0.2,0.1l0.1-0.1l0.8,0.5l0,0.2l0.3,0.2l0.1-0.1
			c0,0,2.2,1.2,2.4,1.3c0.2,0.1,0.2,0.2,0.4,0.3c0.1,0.1,0.3-0.1,0.3-0.3c0-0.2-0.3-0.3-0.3-0.3l-0.3-0.1l-1.5-1l0.6-0.4
			c0,0,0.3,0.2,0.5,0.3c0.2,0.1,0.8,0.5,0.9,0.6c0.1,0.1,0.3,0.1,0.4-0.1c0.1-0.1-0.2-0.3-0.2-0.3l-0.3-0.1l-1-0.7l0.3,0l0.7,0.4
			l0.9,0.4c0,0,1.4,0.8,1.5,0.9c0.1,0.1,0,0.5,0,0.5l0.1,0.2l1.9,0.4l0.3,0.3l0.3,0.1l0.2,0.6l0.9-0.2c0,0,1.2,0.7,1.4,0.8
			c0.2,0.1,0.2,0,0.2,0s0.1-0.3,0.2-0.1c0.1,0.3,0.3,0.5,0.5,0.6c0.2,0.1,0.6,0.3,0.9,0.3c0.3,0,0.4,0.1,0.4,0.1s-0.1,0.3,0.1,0.4
			c0.2,0.1,0.4,0,0.6,0c0.2,0,0.5,0.2,0.7,0.4c0.3,0.1,0.3-0.1,0.2-0.2c-0.1-0.1-0.1-0.4,0.1-0.4c0.2,0,0.1,0.1,0.1,0.2
			c0.1,0.1,0.2,0,0.4,0.1c0.2,0.1,0.1,0.1,0.3,0.2c0.2,0.1,0.1,0.2,0.2,0.3c0.1,0.1,0.2-0.1,0.3,0c0.1,0,0.6,0.2,0.6,0.4
			c0.1,0.1,0.3,0.2,0.3,0.2s1.8,1,1.9,1.1c0.1,0.1,0.3,0.2,0.5,0.3c0.2,0.1,0.2-0.1,0.2-0.2s-0.3-0.1-0.4-0.2
			c-0.1,0-0.1-0.1-0.1-0.1l-1.1-0.7l0.2-0.1c0,0,0.5,0.3,0.7,0.4c0.3,0.2,0.3,0.2,0.4,0.2c0.1,0,0.4,0.2,0.5,0.3
			c0.1,0.1,0.3,0.1,0.4,0.1c0.1-0.1,0.2,0.2,0.3,0.3c0.1,0.1,0.5,0.3,0.7,0.4c0.2,0.1,1.2,0.7,1.4,0.7c0.1,0,0.2-0.1,0.2-0.3
			c0-0.2-0.2-0.3-0.1-0.5c0.1-0.1,0.4,0.1,0.4,0.2l0.1,0.2l0.2-0.1l0.1-0.1c0,0.4,0.3,1.3,1.2,1.3c0,0.8,0.2,3.8,0.2,4.3
			c0,0.5,0,0.4,0.1,0.5c0.1,0.2,0.3,0.1,0.4-0.1c0.1-0.2-0.1-0.2-0.2-0.4c0-0.2-0.2-3.6-0.2-4.3l0.2,0c0.9-0.3,2.3,0,2.8,0.2
			c0.5,0.2,1.6,0.9,1.8,1.1c0.2,0.2,0.1,0.3,0.3,0.5c0.2,0.2,0.4,0.1,0.6,0.1c0.2,0,0.6,0.2,0.8,0.3c0.2,0.2,0.3,0.3,0.4,0.5
			c0.1,0.2-0.6,0.9-0.6,1c0,0.1,0.2,0.2,0.3,0.1c0.1,0,0.4-0.7,0.6-0.9c0.2-0.2,0.5-0.1,0.5-0.1s0.9,0.5,1.1,0.7
			c0.2,0.1,0.1,0.2,0.1,0.4c0,0.2,0.1,0.1,0.2,0.1c0.1,0,0.3,0.2,0.4,0.4c0.1,0.2,0.3,0.1,0.3,0c0-0.1-0.3-0.3-0.3-0.4
			c0-0.1,0.1-0.1,0.2,0c0.1,0,0.4-0.1,0.6-0.4c0.1-0.2-0.2-0.5-0.3-0.6c-0.2-0.1-0.4,0-0.5,0c-0.1,0-0.5,0.4-0.5,0.4
			s-0.7-0.4-0.9-0.5c-0.2-0.1-0.3-0.3-0.4-0.5c-0.1-0.2,0-0.3,0.1-0.5c0.1-0.1,0.2-0.2,0.2-0.3c0.1-0.1,0.1-0.1,0-0.3
			c-0.1-0.1-0.1,0-0.1,0l-0.4,0.6l-0.1,0.1c0,0-0.4,0.1-0.9-0.1c-0.5-0.3-0.4-0.4-0.6-0.8c-0.2-0.5-0.8-0.1-0.8-0.1
			s-0.4-0.2-1.1-0.6c-0.7-0.4-1.7-1.1-2.2-2.5c-0.5-1.4-0.8-1.5-1.1-1.6c-0.3-0.1-0.8,0.2-0.8,0.2l-0.1-0.2l0-0.2l-0.2-0.1l-0.1,0.1
			l-0.7-0.5l-0.4-0.4l0.1,0c0,0,0.7,0.4,0.9,0.6c0.1,0.1,0.3,0,0.3,0s0.1,0,0-0.2c-0.1-0.2-0.3-0.1-0.3-0.1l-0.9-0.6l-0.1-0.2
			c0,0,0.8,0.5,0.9,0.6c0.1,0.1,0.3,0.1,0.3,0.1c0,0,0.2,0,0.1-0.2c-0.1-0.2-0.3-0.1-0.3-0.1l-1.4-0.9l-0.1-0.2c0,0-0.1-0.1-0.1-0.2
			c-0.1-0.1-0.4,0.1-0.5,0.1c-0.1,0-1.9-1.1-1.9-1.1l0-0.2c0,0,1.4,0.7,1.5,0.9c0.2,0.2,0.3,0.1,0.3,0.1s0.1-0.1,0-0.3
			c-0.1-0.2-0.3,0-0.3,0l0,0c-0.3-0.2-1.5-1-1.5-1l0.1-0.1l1.2,0.7l0.1,0.1l0.3,0c0.1,0,0.1-0.1,0-0.3c-0.1-0.2-0.4-0.1-0.4-0.1
			l-3.1-2l0-0.2l-0.2,0.1c0,0-0.1,0-0.2-0.2c-0.1-0.1-0.7-0.3-0.7-0.3l-0.1,0l0.2-0.4l0.7,0.3l0.1-0.1l-0.8-0.5l-0.5-0.7l-0.3,0.4
			l-0.7-0.4l0-0.2c-0.1-0.1-0.3-0.6-0.7-0.7c-0.5-0.1-1.3,0.2-1.3,0.2l-0.2-0.2c0,0,0.1,0,0.2,0c0.1,0,0.2,0,0.1-0.2
			c-0.1-0.2-0.4-0.1-0.4-0.1l-0.1,0l-0.4-0.5l0.1-0.2c0,0,0.6,0.3,0.7,0.3c0.1,0.1,0.2,0.2,0.2,0.3c0,0.1,0.2,0.1,0.4,0.1
			c0.1,0,0.1-0.1,0-0.3c-0.1-0.2-0.3-0.1-0.3-0.1l-0.9-0.5l-0.8-0.9l-0.5,0.1l-0.3-0.2l0-0.2l-0.3,0l-0.7-0.6l-0.3-0.3l0-0.2
			l-0.1-0.1l-0.1,0.1l-0.3,0.1l-3.3-2.3l-0.2-0.3l0.1-0.1c0,0,1.3,0.6,1.5,0.7c0.2,0.1,0.2,0.1,0.3,0.3c0.1,0.2,0.4,0.2,0.4,0.2
			l0.4,0.1c0,0-0.2-0.3-0.3-0.4c-0.1-0.1-0.4-0.2-0.4-0.2l-1.9-1.3l0.1-0.1l1.8,1l0,0.1l0.2,0.1l0.2-0.1l0.2,0.1l0.1-0.1l-0.2-0.2
			l0.1-0.2l-0.2-0.1l-0.1,0.1l-0.2-0.1l-2.5-1.6l-0.7-0.4l0.1-0.4l-0.8-1l-0.6,0.2l-1.1-0.7l-2.7-1.6l-0.6-0.5l-0.1-0.2l-0.4,0.1
			c0,0-0.2-0.2-0.7-0.5c-0.5-0.3-0.8-0.1-0.9-0.1c-0.2,0-1.3-1.3-1.3-1.3l0.4-0.7l0.3,0c0,0,2.9,1.6,3.1,1.7
			c0.1,0.1,0.1,0.2,0.1,0.2c0.1,0,0.3,0.1,0.3-0.2c0-0.3-0.4-0.2-0.4-0.2l-3-1.9l0-0.3l-0.4,0l-1-0.6l0-0.2l-0.1-0.1l-0.3,0
			l-0.2-0.1l-0.2,0.1l-0.2,0l-0.4,0.2l-0.4-0.2l0.1-0.2l-0.2-0.1l-0.3,0.2l-0.1,0l-7.4-4.4l0.4-0.6l1.3,0.5l0.1-0.3l-0.9-0.8
			l0.4-0.4l1.6,0.4l-1-0.9l0.4-0.2l1.5,0.3l-1-0.8l0.4-0.3l1,0.3l-0.3-1.1l1.3,0.1l-0.4-0.9l1.5,0.4l-1.1-1.1l0.7-1.1l1.1,0.2
			l-0.6-0.6l0.6-0.3l2.2,0.7l-1.6-1.3l0.5-0.6l2.4,1l-5.4-4.3l-7.2-8.3l-1.6-2.5c1-2.3,1.9-4.6,2.8-6.9c1.8,0.3,3.9,0.5,3.9,0.5
			l5.6,0.6l0,0.3l0.4,0.1l0-0.3l3.6,0.3l0-0.2l-1.4-0.2c0,0-1.3-0.3-1-0.5s3.2-2.1,3.3-2.2c0.2-0.1,3.7,0.5,4,0.5
			c0.3,0,0.2,0.3,0.6,0.3c0.4,0,3.4-1,3.4-1l-1.7-0.9l4.8,0.3l0.4,0.1l0-0.2l1.2,0.2l0,0.3l0.2,0l0-0.3l0.2,0l0,0.3l0.2,0l0-0.3
			l0.4,0.1l0-0.2l-0.4-0.1l0-0.3l-0.2,0l0,0.3l-0.2,0l0-0.3l-0.2,0l0,0.3l-1.2-0.2l0-0.3l-0.4-0.1l1.2-8.8l0.7-0.6l3.8,0.5l0,0.3
			l0.4,0.1l0-0.3l6.8,0.9l0,0.2l0.2,0l0,0.2l0.6,0.1l-0.1,1l0.4,0.1l0.2-1.2l1.4,0.2l0,0.2l0.6,0.1l0-0.2l3.6,0.5l0-0.3l-3.6-0.5
			l-0.4-0.2l0.2-1.2l1,0.1l0,0.3l0.4,0.1l0.4-0.3l1.4,0.2l0-0.3c0,0,0.1,0,0.4,0.1c0.3,0,0.3,0.3,0.4,0.4c0.1,0.1,0.3,0.3,0.6,0.1
			c0.3-0.3,0.6-0.1,1-0.2c0.4-0.1,0.2,0.4,0.3,0.6c0.1,0.1,0.4,0.2,0.4-0.1c0-0.3,0.9-0.2,1.1-0.4c0.2-0.2,0.7,0.1,0.8,0.5
			c0,0.4,0.8,0.5,0.8-0.1c0-0.5,0.5-0.8,0.5-0.8l1,0.1l0,0.2l0.2,0l0-0.2l2.6,0.3l0.5-0.6l1,0.1l0,0.2l0.2,0l0-0.2l1.8,0.2l0.1-0.9
			l1,0.1l0,0.3l0.4,0.1l0-0.3l0.2-0.3c0,0,0.2,0,0.4,0.1c0.2,0,0.1,0.9,1.3,1.2c0.8,0.3,1.2-0.1,1.4,0c0.3,0.1,0.4,0.2,0.4,0.2
			l0-0.2l0.4,0.1l0.4,0.1l0,0.2l0.2,0l0-0.2l0.2,0l0-0.2l-0.2,0l0-0.2l-0.2,0l0,0.2l-0.4-0.1l0.1-0.9l0.6,0.1l0,0.2l0.4,0.1l0-0.3
			l2.2,0.3l0-0.2l1,0.1l0,0.2l0.4,0.1l0-0.2l0.2,0l0,0.2l0.2,0l-0.1,0.5l0.2,0l0.1-0.5l0.2,0l0-0.2l0.2,0l0,0.3l0.4,0.1l0-0.3
			c0,0,0.5,0.1,0.8,0.1c0.3-0.1,0.1,0,0.4,0.2c0.3,0.2,0.5,0.2,0.6,0.1c0.1-0.1-0.1-0.3-0.2-0.4C399.5,251.4,400,251.2,400,251"/>
		<path clip-path="url(#SVGID_2_)" fill="#FFFFFF" d="M191.4,300.7v1c50.3,0,91-40.8,91-91c0-50.3-40.8-91-91-91
			c-50.3,0-91,40.8-91,91c0,50.3,40.8,91,91,91V300.7v-1c-24.6,0-46.8-10-63-26.1c-16.1-16.1-26.1-38.4-26.1-62.9
			c0-24.6,10-46.8,26.1-63c16.1-16.1,38.4-26.1,63-26.1c24.6,0,46.8,10,63,26.1c16.1,16.1,26.1,38.4,26.1,63
			c0,24.6-10,46.8-26.1,62.9c-16.1,16.1-38.4,26.1-63,26.1V300.7z"/>
		<path clip-path="url(#SVGID_2_)" fill="#FFFFFF" d="M191.4,310.8v1c55.9,0,101.2-45.3,101.2-101.2c0-55.9-45.3-101.2-101.2-101.2
			c-55.9,0-101.2,45.3-101.2,101.2c0,55.9,45.3,101.2,101.2,101.2V310.8v-1c-27.4,0-52.2-11.1-70.1-29.1c-18-18-29.1-42.7-29.1-70.1
			c0-27.4,11.1-52.2,29.1-70.1c18-18,42.7-29.1,70.1-29.1c27.4,0,52.2,11.1,70.1,29.1c18,18,29.1,42.7,29.1,70.1
			c0,27.4-11.1,52.2-29.1,70.1c-18,18-42.7,29.1-70.1,29.1V310.8z"/>
		<path clip-path="url(#SVGID_2_)" fill="#FFFFFF" d="M191.4,321v1c61.5,0,111.3-49.9,111.3-111.3c0-61.5-49.9-111.3-111.3-111.4
			C129.9,99.3,80,149.1,80,210.6C80,272.1,129.9,322,191.4,322V321v-1c-30.2,0-57.5-12.2-77.3-32c-19.8-19.8-32-47.1-32-77.3
			c0-30.2,12.2-57.5,32-77.3c19.8-19.8,47.1-32,77.3-32c30.2,0,57.5,12.2,77.3,32c19.8,19.8,32,47.1,32,77.3
			c0,30.2-12.2,57.5-32,77.3c-19.8,19.8-47.1,32-77.3,32V321z"/>
		<path clip-path="url(#SVGID_2_)" fill="#FFFFFF" d="M191.4,331.2v1c67.1,0,121.5-54.4,121.5-121.5c0-67.1-54.4-121.5-121.5-121.5
			c-67.1,0-121.5,54.4-121.5,121.5c0,67.1,54.4,121.5,121.5,121.5V331.2v-1c-33,0-62.9-13.4-84.5-35c-21.6-21.6-35-51.5-35-84.5
			c0-33,13.4-62.9,35-84.5c21.6-21.6,51.5-35,84.5-35c33,0,62.9,13.4,84.5,35c21.6,21.6,35,51.5,35,84.5c0,33-13.4,62.9-35,84.5
			c-21.6,21.6-51.5,35-84.5,35V331.2z"/>
		<path clip-path="url(#SVGID_2_)" fill="#FFFFFF" d="M191.4,290.5v1c44.7,0,80.9-36.2,80.9-80.9c0-44.7-36.2-80.9-80.9-80.9
			c-44.7,0-80.9,36.2-80.9,80.9c0,44.7,36.2,80.9,80.9,80.9V290.5v-1c-21.8,0-41.5-8.8-55.8-23.1c-14.3-14.3-23.1-34-23.1-55.8
			c0-21.8,8.8-41.5,23.1-55.8c14.3-14.3,34-23.1,55.8-23.1c21.8,0,41.5,8.8,55.8,23.1c14.3,14.3,23.1,34,23.1,55.8
			c0,21.8-8.8,41.5-23.1,55.8c-14.3,14.3-34,23.1-55.8,23.1V290.5z"/>
		<path clip-path="url(#SVGID_2_)" fill="#FFFFFF" d="M191.4,280.3v1c39,0,70.7-31.7,70.7-70.7c0-39-31.7-70.7-70.7-70.7
			c-39,0-70.7,31.7-70.7,70.7c0,39,31.7,70.7,70.7,70.7V280.3v-1c-19,0-36.1-7.7-48.6-20.1c-12.4-12.4-20.1-29.6-20.1-48.6
			c0-19,7.7-36.1,20.1-48.6c12.4-12.4,29.6-20.1,48.6-20.1c19,0,36.1,7.7,48.6,20.1c12.4,12.4,20.1,29.6,20.1,48.6
			c0,19-7.7,36.1-20.1,48.6c-12.4,12.4-29.6,20.1-48.6,20.1V280.3z"/>
		<path clip-path="url(#SVGID_2_)" fill="#FFFFFF" d="M191.4,270.2v1c33.4,0,60.5-27.1,60.5-60.5c0-33.4-27.1-60.5-60.5-60.5
			c-33.4,0-60.5,27.1-60.5,60.5c0,33.4,27.1,60.5,60.5,60.5V270.2v-1c-16.2,0-30.8-6.6-41.4-17.1c-10.6-10.6-17.1-25.2-17.1-41.4
			c0-16.2,6.6-30.8,17.1-41.4c10.6-10.6,25.2-17.1,41.4-17.1c16.2,0,30.8,6.6,41.4,17.1c10.6,10.6,17.1,25.2,17.1,41.4
			c0,16.2-6.6,30.8-17.1,41.4c-10.6,10.6-25.2,17.1-41.4,17.1V270.2z"/>
		<path clip-path="url(#SVGID_2_)" fill="#FFFFFF" d="M191.4,260v1c27.8,0,50.4-22.6,50.4-50.4c0-27.8-22.6-50.4-50.4-50.4
			c-27.8,0-50.4,22.6-50.4,50.4c0,27.8,22.6,50.4,50.4,50.4V260v-1c-13.4,0-25.4-5.4-34.2-14.2c-8.8-8.8-14.2-20.8-14.2-34.2
			c0-13.4,5.4-25.4,14.2-34.2c8.8-8.8,20.8-14.2,34.2-14.2c13.4,0,25.4,5.4,34.2,14.2c8.8,8.8,14.2,20.8,14.2,34.2
			c0,13.4-5.4,25.5-14.2,34.2c-8.8,8.8-20.8,14.2-34.2,14.2V260z"/>
		<path clip-path="url(#SVGID_2_)" fill="#FFFFFF" d="M191.4,249.9v1c22.2,0,40.2-18,40.2-40.2c0-22.2-18-40.2-40.2-40.2
			c-22.2,0-40.2,18-40.2,40.2c0,22.2,18,40.2,40.2,40.2V249.9v-1c-10.6,0-20.1-4.3-27-11.2c-6.9-6.9-11.2-16.5-11.2-27
			c0-10.6,4.3-20.1,11.2-27c6.9-6.9,16.5-11.2,27-11.2c10.6,0,20.1,4.3,27,11.2c6.9,6.9,11.2,16.5,11.2,27c0,10.6-4.3,20.1-11.2,27
			c-6.9,6.9-16.5,11.2-27,11.2V249.9z"/>
		<path clip-path="url(#SVGID_2_)" fill="#F8AF00" d="M313.3,210.6c0-49.7-29.7-92.4-72.3-111.4l-49.6,111.4L141.8,99.2
			c-42.6,19-72.3,61.7-72.3,111.4c0,67.3,54.6,121.9,121.9,121.9S313.3,278,313.3,210.6"/>
		<path clip-path="url(#SVGID_2_)" fill="#F8AF00" d="M313.3,210.6h0.5c0-49.9-29.8-92.8-72.6-111.9l-0.5-0.2l-49.3,110.8L142,98.6
			l-0.5,0.2c-42.8,19.1-72.6,62-72.6,111.9c0,67.6,54.8,122.4,122.4,122.4c67.6,0,122.4-54.8,122.4-122.4H313.3h-0.5
			c0,33.5-13.6,63.9-35.6,85.9c-22,22-52.3,35.6-85.9,35.6c-33.5,0-63.9-13.6-85.9-35.6c-22-22-35.6-52.3-35.6-85.9
			c0-49.5,29.6-92,72.1-110.9l-0.2-0.5l-0.5,0.2l50.1,112.4l50.1-112.4l-0.5-0.2l-0.2,0.5c42.4,18.9,72.1,61.5,72.1,110.9H313.3z"/>
	</g>
	<path fill="#FFFFFF" d="M90.5,225.3H101v-2.9H90.5V225.3z M101,245.2H90.5v2.9H101V245.2z M101,239.5H90.5v2.9H101V239.5z
		 M82.6,245.2H72.1v2.9h10.5V245.2z M82.6,239.5H72.1v2.9h10.5V239.5z M101,233.8H72.1v2.9H101V233.8z M82.6,228.1H72.1v2.9H101
		v-2.9H90.5v0.1L82.6,228.1L82.6,228.1z M72.1,225.3h10.5v-2.9H72.1V225.3z M82.6,216.6H72.1v3h10.5V216.6z M101,216.6H90.5v3H101
		V216.6z"/>
	<path fill="#FFFFFF" d="M118.7,244.6h-10.5v3.4h10.5V244.6z M118.7,238.9h-10.5v4h10.5V238.9z M118.7,233.3h-10.5v4h10.5V233.3z
		 M118.7,227.6h-10.5v4h10.5V227.6z M108.2,225.9h10.5v-4h-10.5V225.9z M118.7,216.6h-10.5v3.6h10.5V216.6z"/>
	<g>
		<defs>
			<rect id="SVGID_3_" x="-0.7" width="400.7" height="399.5"/>
		</defs>
		<clipPath id="SVGID_4_">
			<use xlink:href="#SVGID_3_"  overflow="visible"/>
		</clipPath>
		<path clip-path="url(#SVGID_4_)" fill="#FFFFFF" d="M146.9,221.9h-20.5c-0.6,1.2-0.9,2.5-1,4h9.9c-0.1-0.2-0.1-0.3-0.1-0.5
			c0-0.9,0.7-1.8,2.7-1.8c2.3,0,4.2,0.8,6.3,2.3h0.2L146.9,221.9z M138.2,227.6h-12.7c0.2,1.6,0.6,2.9,1.4,4h19.9
			c-1.5-1.5-3.7-2.5-6.6-3.4C139.4,228,138.7,227.8,138.2,227.6 M137.9,237.2h11c-0.1-1.6-0.4-2.9-0.9-4h-19.4
			c1.4,1,3.2,1.9,5.5,2.6C135.9,236.4,137.1,236.8,137.9,237.2 M146.5,244.6h-21.6c2.9,2.2,7,3.8,11.7,3.8
			C141,248.4,144.4,247,146.5,244.6 M128.3,237.4l-3.5,5.6h22.9c0.6-1.2,1-2.5,1.2-4h-9.8l0,0.1c0,1.1-1.1,1.7-2.6,1.7
			C133.8,240.8,131.3,239.7,128.3,237.4 M148,220.2l0.6-1.1c-2.1-1.7-6.1-3.2-10.2-3.2c-4.8,0-8.7,1.5-10.9,4.2H148z"/>
	</g>
	<path fill="#FFFFFF" d="M168.9,244.6h-10.1v3.3h10.1V244.6z M168.9,238.9h-10.1v4h10.1V238.9z M168.9,233.3h-10.1v4h10.1V233.3z
		 M168.9,227.6h-10.1v4h10.1V227.6z M152.5,225.9h22.5v-4h-22.5V225.9z M175.1,216.5h-22.5v3.7h22.5V216.5z"/>
	<g>
		<defs>
			<rect id="SVGID_5_" x="-0.7" width="400.7" height="399.5"/>
		</defs>
		<clipPath id="SVGID_6_">
			<use xlink:href="#SVGID_5_"  overflow="visible"/>
		</clipPath>
		<path clip-path="url(#SVGID_6_)" fill="#FFFFFF" d="M210.1,225.9c-0.6-1.5-1.4-2.8-2.3-4h-26.7c-1,1.2-1.8,2.5-2.4,4h11.9
			c1-0.8,2.3-1.3,3.8-1.3c1.4,0,2.7,0.5,3.7,1.3H210.1z M201,231.6h10.3c0-1.4-0.3-2.7-0.6-4h-11C200.4,228.7,200.8,230.1,201,231.6
			 M199.8,237.2h10.7c0.4-1.3,0.7-2.6,0.7-4H201C200.9,234.8,200.5,236.1,199.8,237.2 M205.6,244.6h-22.5c2.9,2.4,6.8,3.8,11.2,3.8
			C198.8,248.4,202.7,247,205.6,244.6 M190.5,238.9h-11.7c0.6,1.5,1.5,2.8,2.5,4h26c1-1.2,1.9-2.5,2.5-4h-11.5
			c-1.1,0.9-2.4,1.4-3.9,1.4C193,240.4,191.6,239.8,190.5,238.9 M187.8,233.3h-10.3c0.1,1.4,0.3,2.7,0.7,4h10.8
			C188.4,236.1,187.9,234.8,187.8,233.3 M178.2,227.6c-0.4,1.3-0.6,2.6-0.6,4h10.3c0.1-1.5,0.6-2.9,1.3-4H178.2z M206.2,220.2
			c-2.9-2.7-7-4.2-11.7-4.2c-4.7,0-8.8,1.6-11.7,4.2H206.2z"/>
		<path clip-path="url(#SVGID_6_)" fill="#FFFFFF" d="M242.4,244.6h-11l1.7,3.3h11.2L242.4,244.6z M239,238.9h-10.5l2.1,4h10.8
			L239,238.9z M227.4,244.6h-10.2v3.3h10.2V244.6z M227.4,238.9h-10.2v4h10.2V238.9z M239.7,233.3h-22.5v4h10.2v-0.5l0.2,0.5H238
			l-1.1-1.8C238,234.9,238.9,234.2,239.7,233.3 M227.3,227.6h-10.1v4h23.6c0.6-1.2,1.1-2.5,1.3-4h-9.6c-0.2,1.6-1.4,2.4-3.6,2.4
			h-1.7V227.6z M217.2,221.9v4h10.1V224h1.7c1.9,0,3.1,0.5,3.5,1.9h9.7c0-1.5-0.3-2.8-0.9-4H217.2z M240.3,220.2
			c-2-2.4-5.4-3.7-10-3.7h-13.1v3.7H240.3z"/>
	</g>
	<path fill="#FFFFFF" d="M259.3,244.6h-10.5v3.4h10.5V244.6z M259.3,238.9h-10.5v4h10.5V238.9z M259.3,233.3h-10.5v4h10.5V233.3z
		 M259.3,227.6h-10.5v4h10.5V227.6z M248.8,225.9h10.5v-4h-10.5V225.9z M259.3,216.6h-10.5v3.6h10.5V216.6z"/>
	<g>
		<defs>
			<rect id="SVGID_7_" x="-0.7" width="400.7" height="399.5"/>
		</defs>
		<clipPath id="SVGID_8_">
			<use xlink:href="#SVGID_7_"  overflow="visible"/>
		</clipPath>
		<path clip-path="url(#SVGID_8_)" fill="#FFFFFF" d="M292,221.9h-23c-1,1.2-1.8,2.5-2.4,4h11.6c1-0.8,2.2-1.2,3.5-1.2
			c2.7,0,4.4,1.2,6.2,2.9L292,221.9z M276.8,227.6h-10.7c-0.4,1.3-0.6,2.6-0.7,4h10.3C275.7,230,276.1,228.7,276.8,227.6 M293,244.6
			h-22.4c2.8,2.5,6.7,3.9,11.1,3.9C286.9,248.5,290.1,246.9,293,244.6 M278.7,238.9h-12.1c0.6,1.5,1.4,2.8,2.4,4h23.8l-4.2-5.7
			c-1.8,1.7-4,2.8-6.3,2.8C280.9,240,279.7,239.6,278.7,238.9 M275.7,233.3h-10.3c0.1,1.4,0.3,2.7,0.6,4h11
			C276.3,236.2,275.8,234.8,275.7,233.3 M292.6,220.2c-2.6-2.2-5.9-4.1-10.6-4.1c-4.4,0-8.3,1.5-11.2,4.1H292.6z"/>
	</g>
	<path fill="#FFFFFF" d="M309.8,244.6h-10.5v3.4h10.5V244.6z M309.8,238.9h-10.5v4h10.5V238.9z M309.8,233.3h-10.5v4h10.5V233.3z
		 M309.8,227.6h-10.5v4h10.5V227.6z M299.3,225.9h10.5v-4h-10.5V225.9z M309.8,216.6h-10.5v3.6h10.5V216.6z"/>
	<g>
		<defs>
			<rect id="SVGID_9_" x="-0.7" width="400.7" height="399.5"/>
		</defs>
		<clipPath id="SVGID_10_">
			<use xlink:href="#SVGID_9_"  overflow="visible"/>
		</clipPath>
		<path clip-path="url(#SVGID_10_)" fill="#FFFFFF" d="M129.7,268.6H140c-0.1-1.4-0.3-2.7-0.6-4h-11.1
			C129.1,265.6,129.6,267,129.7,268.6 M128.3,274.3h11.1c0.4-1.2,0.6-2.5,0.7-4h-10.3C129.6,271.8,129.1,273.2,128.3,274.3
			 M134.1,281.6h-23.5v3.5h11.7C126.8,285.1,130.9,283.9,134.1,281.6 M120.6,275.9h-10.1v4H136c1.1-1.1,2-2.5,2.7-4h-12.4
			c-1.1,0.6-2.5,1-4,1h-1.6V275.9z M120.6,270.3h-10.1v4h10.1V270.3z M120.6,264.6h-10.1v4h10.1V264.6z M110.6,258.9v4h10.1v-1h1.6
			c1.6,0,2.9,0.3,4.1,1h12.5c-0.6-1.5-1.5-2.8-2.6-4H110.6z M134.3,257.2c-3.1-2.3-7.3-3.5-12.1-3.5h-11.7v3.5H134.3z"/>
	</g>
	<path fill="#FFFFFF" d="M173.9,281.6h-10.4l1.1,3.4h10.5L173.9,281.6z M170,270.3h-9.8l0.4,1.5h-4.7l0.4-1.5h-9.3l-1.4,4h25.6
		L170,270.3z M159.7,268.6h9.7l-1.4-4h-9.5L159.7,268.6z M147.7,268.6h9.2l1.2-4h-9L147.7,268.6z M166.1,258.9h-15l-1.4,4h17.8
		L166.1,258.9z M143.8,279.9h9.8l0.1-0.3h9.2l0.1,0.3h10.4l-1.4-4h-26.8L143.8,279.9z M143.2,281.6L142,285h10l1.1-3.4H143.2z
		 M165.5,257.2l-1.2-3.6h-11.4l-1.2,3.6H165.5z"/>
	<g>
		<defs>
			<rect id="SVGID_11_" x="-0.7" width="400.7" height="399.5"/>
		</defs>
		<clipPath id="SVGID_12_">
			<use xlink:href="#SVGID_11_"  overflow="visible"/>
		</clipPath>
		<path clip-path="url(#SVGID_12_)" fill="#FFFFFF" d="M205,258.9h-24.2c-1,1.2-1.8,2.5-2.4,4h11.6c1-0.8,2.2-1.2,3.5-1.2
			c1.8,0,3.1,0.4,4.3,1.2h3.3L205,258.9z M188.5,264.6h-10.7c-0.4,1.3-0.6,2.6-0.7,4h10.3C187.4,267,187.8,265.7,188.5,264.6
			 M192.9,268.6h16.8c0-0.7,0.1-1.3,0.1-2h-16.8V268.6z M200.2,274.3h8.5c0.3-1.2,0.6-2.5,0.8-4h-16.6v2l7.9,0
			C200.7,273,200.5,273.7,200.2,274.3 M204.4,281.6h-22.1c2.8,2.5,6.7,3.9,11.1,3.9C197.9,285.6,201.6,284.2,204.4,281.6
			 M189.5,275.9h-11.2c0.6,1.5,1.4,2.8,2.4,4h25.3c0.9-1.2,1.6-2.5,2.2-4h-9c-1.3,1.4-3.2,1.9-5.2,1.8
			C192.1,277.6,190.6,277,189.5,275.9 M187.3,270.3h-10.3c0.1,1.4,0.3,2.7,0.6,4h10.6C187.8,273.2,187.4,271.9,187.3,270.3
			 M204.9,257.2c-2.4-2.3-5.8-4.1-11.4-4.1c-4.4,0-8.3,1.5-11.2,4.1H204.9z"/>
	</g>
	<path fill="#FFFFFF" d="M235.1,281.6h-19.6v3.5h19.6V281.6z M225.5,275.9h-10.1v4h19.6v-2.7h-9.5V275.9z M233.2,270.3h-17.7v4h10.1
		v-0.1h7.7V270.3z M225.5,264.6h-10.1v4h17.7v-3.8h-7.7V264.6z M215.4,258.9v4h10.1v-1.3h9.1v-2.7H215.4z M234.6,253.7h-19.2v3.5
		h19.2V253.7z"/>
	<path fill="#FFFFFF" d="M261.6,262.9h9.9v-4h-9.9V262.9z M271.5,281.6h-10.9l2.8,3.4h8.1V281.6z M271.5,275.9H256l3.2,4h12.3V275.9
		z M251.6,281.6h-9.9v3.4h9.9V281.6z M251.6,275.9h-9.9v4h9.9V275.9z M271.5,270.3h-29.8v4h9.9v-3.7l3,3.7h16.9V270.3z M259.5,264.6
		h-17.8v4h29.8v-4h-9.9v2.5L259.5,264.6z M241.7,258.9v4h16.5l-3.2-4H241.7z M253.6,257.2l-2.9-3.6h-9v3.6H253.6z M271.5,253.6h-9.9
		v3.6h9.9V253.6z"/>
	<rect x="108.2" y="208.3" fill="#FFFFFF" width="201.4" height="2.8"/>
	<rect x="71.7" y="208.3" fill="#FFFFFF" width="29.2" height="2.8"/>
	<g>
		<defs>
			<rect id="SVGID_13_" x="-0.7" width="400.7" height="399.5"/>
		</defs>
		<clipPath id="SVGID_14_">
			<use xlink:href="#SVGID_13_"  overflow="visible"/>
		</clipPath>
		<path clip-path="url(#SVGID_14_)" fill="#FFFFFF" d="M247.7,189v-4h-11.3v4h3.1v11.7h5V189H247.7z M232.6,200.7V185h-5.2v5.8h-4
			V185h-5.2v15.7h5.2v-5.5h4v5.5H232.6z M214.3,198.8l-2.5-3.4c-0.9,0.9-2,1.4-3.2,1.4c-2.1,0-3.3-1.6-3.3-3.9c0-2.3,1.3-3.8,3-3.8
			c1.4,0,2.2,0.6,3.1,1.5l2.6-3.5c-1.4-1.2-3-2.2-5.5-2.2c-4.7,0-8.3,3.5-8.3,8.2c0,4.7,3.4,8,8.2,8
			C211.1,201,212.8,200.1,214.3,198.8 M196.4,200.7v-4h-4.8v-1.9h3.8V191h-3.8v-2h4.6v-4h-9.6v15.7H196.4z M177.4,190.3
			c0,1-0.6,1.5-1.8,1.5h-0.8v-3h0.8C176.8,188.8,177.4,189.2,177.4,190.3 M183.3,200.7l-3.7-6.5c1.6-0.7,2.7-2.3,2.7-4.4
			c0-3.1-2.2-4.8-5.9-4.8h-6.6v15.7h5.1v-5.6l2.9,5.6H183.3z M165.9,189v-4h-11.3v4h3.1v11.7h5V189H165.9z M150.9,193.5V185h-5.2v9
			c0,1.7-0.9,2.8-2.4,2.8s-2.4-1.1-2.4-2.8v-9h-5.2v8.5c0,5.2,3.3,7.5,7.6,7.5S150.9,198.8,150.9,193.5"/>
		<path clip-path="url(#SVGID_14_)" fill="#FFFFFF" d="M232.3,294.2h-19.8v6.1h9l-8.6,17.5h8.4L232.3,294.2z M208.2,317.8v-23.6H202
			c-1.6,3.5-3.6,4.4-6.3,4.7v5.7c2-0.1,3.8-0.6,4.9-1.6v14.6H208.2z M185.8,306c0,3.9-1.1,6.2-3.2,6.2c-2.1,0-3.2-2.3-3.2-6.2
			s1.1-6.2,3.2-6.2C184.7,299.8,185.8,302.1,185.8,306 M193.4,306c0-6.7-4-12.2-10.7-12.2c-6.7,0-10.7,5.5-10.7,12.2
			s4,12.2,10.7,12.2C189.4,318.1,193.4,312.7,193.4,306 M169.1,300.9c0-4.3-3.2-7.1-8.9-7.1c-5.5,0-9,2.9-9,9v0.4h6.8v-0.5
			c0-2,0.8-2.8,2-2.8c1,0,1.7,0.6,1.7,1.8c0,0.9-0.6,1.9-1.5,3.2l-9.7,12.9H169v-6h-6.4l3.4-3.9
			C167.9,305.7,169.1,303.6,169.1,300.9"/>
	</g>
</g>
</svg>
